<svg xmlns="http://www.w3.org/2000/svg" xmlns:xlink="http://www.w3.org/1999/xlink" width="714.869" height="3958.331" viewBox="0 0 714.869 3958.331">
  <defs>
    <filter id="Rectangle_7505" x="426.364" y="3668.01" width="75.479" height="76.148" filterUnits="userSpaceOnUse">
      <feOffset dy="3" input="SourceAlpha"/>
      <feGaussianBlur stdDeviation="3" result="blur"/>
      <feFlood flood-color="#00334b" flood-opacity="0.251"/>
      <feComposite operator="in" in2="blur"/>
      <feComposite in="SourceGraphic"/>
    </filter>
    <linearGradient id="linear-gradient" x1="0.644" y1="1.055" x2="0.468" y2="0.019" gradientUnits="objectBoundingBox">
      <stop offset="0" stop-color="#fff"/>
      <stop offset="1"/>
    </linearGradient>
    <linearGradient id="linear-gradient-2" x1="0" y1="0.5" x2="1" y2="0.5" xlink:href="#linear-gradient"/>
    <linearGradient id="linear-gradient-3" x1="0" y1="0.5" x2="1" y2="0.5" xlink:href="#linear-gradient"/>
    <linearGradient id="linear-gradient-4" y1="0.5" x2="1" y2="0.5" gradientUnits="objectBoundingBox">
      <stop offset="0"/>
      <stop offset="1" stop-color="#fff"/>
    </linearGradient>
    <linearGradient id="linear-gradient-5" x1="0" y1="0.5" x2="1" y2="0.5" xlink:href="#linear-gradient-4"/>
    <linearGradient id="linear-gradient-6" x1="0.509" y1="0.444" x2="0.41" y2="1.04" xlink:href="#linear-gradient-4"/>
    <filter id="Rectangle_7507" x="476.613" y="3596.143" width="100.144" height="78.912" filterUnits="userSpaceOnUse">
      <feOffset dy="3" input="SourceAlpha"/>
      <feGaussianBlur stdDeviation="3" result="blur-2"/>
      <feFlood flood-color="#00334b" flood-opacity="0.302"/>
      <feComposite operator="in" in2="blur-2"/>
      <feComposite in="SourceGraphic"/>
    </filter>
    <filter id="Rectangle_7509" x="478.391" y="3766.81" width="104.319" height="82.008" filterUnits="userSpaceOnUse">
      <feOffset dy="3" input="SourceAlpha"/>
      <feGaussianBlur stdDeviation="3" result="blur-3"/>
      <feFlood flood-color="#00334b" flood-opacity="0.251"/>
      <feComposite operator="in" in2="blur-3"/>
      <feComposite in="SourceGraphic"/>
    </filter>
  </defs>
  <g id="t0-i1" transform="translate(134.869 3164.331)">
    <g id="t0-i1-2" data-name="t0-i1" transform="translate(-134.869 -3164.331)">
      <rect id="Rectángulo_5597" data-name="Rectángulo 5597" width="400" height="390" transform="translate(314.869 3568.331)" fill="none"/>
      <g id="Group_59631" data-name="Group 59631" opacity="0.5">
        <g id="Group_59624" data-name="Group 59624">
          <g id="Group_59622" data-name="Group 59622">
            <path id="Path_103829" data-name="Path 103829" d="M620.167,3614.859a4.01,4.01,0,1,0-4.01,4.011A4.011,4.011,0,0,0,620.167,3614.859Z" fill="#4dd0e1"/>
          </g>
          <g id="Group_59623" data-name="Group 59623">
            <path id="Path_103830" data-name="Path 103830" d="M611.132,3642.359h-6.137v-.863h6.137a4.6,4.6,0,0,0,4.593-4.593v-22.044h.863V3636.9A5.463,5.463,0,0,1,611.132,3642.359Z" fill="#4dd0e1"/>
          </g>
        </g>
        <g id="Group_59627" data-name="Group 59627">
          <g id="Group_59625" data-name="Group 59625">
            <circle id="Ellipse_4054" data-name="Ellipse 4054" cx="5.776" cy="5.776" r="5.776" transform="translate(404.095 3572.228)" fill="#4dd0e1"/>
          </g>
          <g id="Group_59626" data-name="Group 59626">
            <path id="Path_103831" data-name="Path 103831" d="M503.3,3588.793h-.864v-5.765a4.6,4.6,0,0,0-4.592-4.592h-82.2v-.864h82.2a5.463,5.463,0,0,1,5.456,5.456Z" fill="#4dd0e1"/>
          </g>
        </g>
        <g id="Group_59630" data-name="Group 59630">
          <g id="Group_59628" data-name="Group 59628">
            <path id="Path_103832" data-name="Path 103832" d="M340.456,3814.366a4.01,4.01,0,1,0-4.01,4.01A4.01,4.01,0,0,0,340.456,3814.366Z" fill="#4dd0e1"/>
          </g>
          <g id="Group_59629" data-name="Group 59629">
            <path id="Path_103833" data-name="Path 103833" d="M422.665,3853.9H343.48a7.474,7.474,0,0,1-7.465-7.465v-32.065h.863v32.065a6.61,6.61,0,0,0,6.6,6.6h79.185Z" fill="#4dd0e1"/>
          </g>
        </g>
      </g>
      <rect id="Rectangle_7501" data-name="Rectangle 7501" width="171.772" height="336.408" rx="15.527" transform="translate(420.151 3586.331)" fill="#bcf4fa"/>
      <g id="Group_59636" data-name="Group 59636">
        <g id="Group_59634" data-name="Group 59634">
          <g id="Group_59633" data-name="Group 59633">
            <g id="Group_59632" data-name="Group 59632">
              <path id="Line_152" data-name="Line 152" d="M14.036.538H0V-.538H14.036Z" transform="translate(434.362 3611.517)" fill="#0e1535"/>
              <path id="Line_153" data-name="Line 153" d="M14.036.538H0V-.538H14.036Z" transform="translate(434.362 3616.196)" fill="#0e1535"/>
              <path id="Line_154" data-name="Line 154" d="M14.036.538H0V-.538H14.036Z" transform="translate(434.362 3620.875)" fill="#0e1535"/>
            </g>
          </g>
        </g>
        <g id="Group_59635" data-name="Group 59635">
          <path id="Path_103834" data-name="Path 103834" d="M571.875,3621.686l-.76-.76,4.729-4.729-4.729-4.729.76-.76,5.49,5.49Z" fill="#01003b"/>
        </g>
      </g>
      <g id="Group_59647" data-name="Group 59647">
        <g id="Group_59646" data-name="Group 59646">
          <path id="Path_103835" data-name="Path 103835" d="M419.6,3890.977v15.4a19.923,19.923,0,0,0,19.835,20.009H572.088a19.923,19.923,0,0,0,19.835-20.009v-15.4Z" fill="#12263f"/>
          <g id="Group_59645" data-name="Group 59645" opacity="0.56">
            <g id="Group_59641" data-name="Group 59641">
              <g id="Group_59640" data-name="Group 59640">
                <g id="Group_59639" data-name="Group 59639">
                  <g id="Group_59638" data-name="Group 59638">
                    <path id="Path_103836" data-name="Path 103836" d="M488.254,3916.161c-1.185,0-1.951-.653-1.951-1.664h.716c0,.856.864.948,1.235.948s1.235-.092,1.235-.948h.716C490.2,3915.508,489.439,3916.161,488.254,3916.161Z" fill="#fff"/>
                    <g id="Group_59637" data-name="Group 59637">
                      <path id="Path_103837" data-name="Path 103837" d="M483.49,3912.683h9.375l.051.3a10.99,10.99,0,0,0,.262,1.211l.142.462H482.979l.154-.469a11.593,11.593,0,0,0,.3-1.214Zm8.774.716h-8.189c-.046.21-.09.391-.128.54h8.429C492.342,3913.793,492.3,3913.613,492.264,3913.4Z" fill="#fff"/>
                      <path id="Path_103838" data-name="Path 103838" d="M492.881,3912.795h-9.407l.065-.414a14.488,14.488,0,0,0,.176-2.794,4.227,4.227,0,0,1,.99-2.874,4.516,4.516,0,0,1,2.332-1.472,1.356,1.356,0,0,1,1.218-1.257,1.385,1.385,0,0,1,1.23,1.325,4.367,4.367,0,0,1,2.126,1.5,4.7,4.7,0,0,1,.984,2.756,27.076,27.076,0,0,0,.23,2.826Zm-8.575-.716h7.758c-.094-.785-.156-1.622-.184-2.494a3.865,3.865,0,0,0-2.82-3.654l-.264-.068,0-.273c-.009-.525-.29-.891-.536-.891s-.51.342-.533.85l-.013.281-.276.054a3.678,3.678,0,0,0-3,3.675A14.974,14.974,0,0,1,484.305,3912.079Z" fill="#fff"/>
                    </g>
                  </g>
                </g>
              </g>
            </g>
            <g id="Group_59642" data-name="Group 59642">
              <path id="Path_103839" data-name="Path 103839" fill="#fff"/>
              <path id="Path_103840" data-name="Path 103840" d="M527.848,3904.763a1.881,1.881,0,0,1,1.36.537c.83.764.958,1.958.38,3.55a9.228,9.228,0,0,1-4.218,4.627l-.158.078-.158-.077a9.237,9.237,0,0,1-4.227-4.581c-.6-1.585-.48-2.78.343-3.553a1.885,1.885,0,0,1,1.38-.552,4.15,4.15,0,0,1,2.642,1.205A4.127,4.127,0,0,1,527.848,3904.763Zm-2.639,7.987a8.55,8.55,0,0,0,3.706-4.145c.478-1.315.414-2.225-.2-2.782l-.012-.012a1.163,1.163,0,0,0-.859-.332,3.43,3.43,0,0,0-2.368,1.272l-.282.374-.286-.371a3.446,3.446,0,0,0-2.362-1.247,1.169,1.169,0,0,0-.874.342l-.012.012c-.6.564-.659,1.475-.167,2.784A8.539,8.539,0,0,0,525.209,3912.75Z" fill="#fff"/>
            </g>
            <g id="Group_59643" data-name="Group 59643">
              <path id="Path_103841" data-name="Path 103841" d="M565.827,3913.241l-2.494-1.686a5.153,5.153,0,1,0-4.1,2.965,5.124,5.124,0,0,0,3.268-1.7l2.491,1.684a.746.746,0,0,0,.5.124.754.754,0,0,0,.545-.333A.767.767,0,0,0,565.827,3913.241Zm-6.7.348a4.278,4.278,0,1,1,3.083-1.908c-.005.008-.014.011-.019.019s0,.011-.006.016A4.228,4.228,0,0,1,559.126,3913.589Z" fill="#fff"/>
            </g>
            <g id="Group_59644" data-name="Group 59644">
              <path id="Path_103842" data-name="Path 103842" d="M458.611,3915.79h-9.877v-6.457h.716v5.741H457.9v-5.741h.716Z" fill="#fff"/>
              <path id="Path_103843" data-name="Path 103843" d="M459.9,3911.248l-6.224-6.278-6.224,6.278-.508-.5,6.732-6.791,6.732,6.791Z" fill="#fff"/>
              <path id="Rectangle_7502" data-name="Rectangle 7502" d="M1.116-.358H1.47A1.475,1.475,0,0,1,2.944,1.116v3.09h-3.3V1.116A1.475,1.475,0,0,1,1.116-.358ZM2.228,3.49V1.116A.759.759,0,0,0,1.47.358H1.116a.759.759,0,0,0-.758.758V3.49Z" transform="translate(452.426 3911.556)" fill="#fff"/>
            </g>
          </g>
        </g>
      </g>
      <g id="Group_59654" data-name="Group 59654" style="mix-blend-mode: multiply;isolation: isolate">
        <g id="Group_59651" data-name="Group 59651">
          <g id="Group_59648" data-name="Group 59648">
            <rect id="Rectangle_7503" data-name="Rectangle 7503" width="3.451" height="2" transform="translate(490.838 3714.402)" fill="#85effa"/>
          </g>
          <g id="Group_59649" data-name="Group 59649">
            <path id="Path_103844" data-name="Path 103844" d="M523.92,3753.629h-2V3747.2h2Zm0-12.855h-2v-6.427h2Zm0-12.854h-2v-6.428h2Zm-4.553-10.866a5.026,5.026,0,0,0-2.476-.652H513.57v-2h3.321a7.029,7.029,0,0,1,3.464.913Zm-12.223-.652h-6.428v-2h6.428Z" fill="#85effa"/>
          </g>
          <g id="Group_59650" data-name="Group 59650">
            <rect id="Rectangle_7504" data-name="Rectangle 7504" width="2" height="3.451" transform="translate(521.92 3760.074)" fill="#85effa"/>
          </g>
        </g>
        <g id="Group_59652" data-name="Group 59652">
          <path id="Path_103845" data-name="Path 103845" d="M542.968,3764.238h-2v-6.318h2Zm0-12.637h-2v-6.319h2Zm0-12.637h-2v-6.319h2Zm0-12.638h-2v-6.318h2Zm0-12.638h-2v-6.318h2Zm0-12.636h-2v-6.319h2Zm0-12.638h-2V3682.1h2Zm0-12.637h-2v-6.319h2Zm0-12.637h-2v-6.174h2Z" fill="#85effa"/>
        </g>
        <g id="Group_59653" data-name="Group 59653">
          <path id="Path_103846" data-name="Path 103846" d="M480.957,3818.374h-6.318v-2h6.318Zm-12.637,0H462v-2h6.319Zm-8.563-4.074h-2v-6.319h2Zm0-12.638h-2v-6.318h2Zm0-12.637h-2v-6.318h2Zm0-12.637h-2v-6.319h2Zm0-12.637h-2v-6.319h2Zm0-12.638h-2v-6.318h2Zm0-12.637h-2v-6.319h2Z" fill="#85effa"/>
        </g>
      </g>
      <g transform="matrix(1, 0, 0, 1, 0, 0)" filter="url(#Rectangle_7505)">
        <rect id="Rectangle_7505-2" data-name="Rectangle 7505" width="57.479" height="58.148" rx="13.802" transform="translate(435.36 3674.01)" fill="#039be5"/>
      </g>
      <g id="_ffffffff" data-name=" ffffffff">
        <path id="Trazado_102967" data-name="Trazado 102967" d="M451.68,3686.412a3.317,3.317,0,0,1,2.456-1.064c1.105,0,2.211-.01,3.316.007q6.256,7.845,12.535,15.67c.257.31.49.643.772.934q.006-8.3,0-16.6c1.1-.037,2.209-.005,3.313-.017a3.328,3.328,0,0,1,3.344,3.31v.039q0,3.289,0,6.58a3.347,3.347,0,0,0,.861,2.288,1.323,1.323,0,1,1,.13,2.053,3.318,3.318,0,0,0-.989,2.331c-.005,2.253,0,4.5,0,6.758a3.327,3.327,0,0,1-3.344,3.263c-1.1-.005-2.211.008-3.316-.008q-6.258-7.845-12.537-15.674c-.255-.311-.492-.638-.767-.934q-.009,8.3,0,16.6c-1.105.03-2.209,0-3.313.014a3.327,3.327,0,0,1-3.341-3.259c-.007-2.283.006-4.565-.007-6.848a3.344,3.344,0,0,0-3.065-3.2,3.458,3.458,0,0,0,2.08-.963,3.324,3.324,0,0,0,.989-2.332c0-2.224,0-4.45,0-6.674A3.318,3.318,0,0,1,451.68,3686.412Z" fill="#fff"/>
        <path id="Trazado_102968" data-name="Trazado 102968" d="M465.094,3716.066a1.874,1.874,0,0,1,1.764-.215,1.211,1.211,0,0,1,.769.986c-.186.012-.37.018-.554.023a.777.777,0,0,0-.812-.571c-.345-.017-.826.03-.951.415-.1.233.1.451.3.535a8.6,8.6,0,0,1,1.728.572,1,1,0,0,1,.217,1.394l-.011.014a1.575,1.575,0,0,1-1.2.548,1.77,1.77,0,0,1-1.442-.492,1.4,1.4,0,0,1-.282-.692c.183,0,.366,0,.55,0,.111.63.886.7,1.4.6.274-.058.6-.235.62-.549a.461.461,0,0,0-.31-.464c-.59-.257-1.3-.2-1.823-.622a.979.979,0,0,1-.063-1.382A.878.878,0,0,1,465.094,3716.066Z" fill="#fff"/>
        <path id="Trazado_102969" data-name="Trazado 102969" d="M450.772,3715.82l.559,0q1.049,1.459,2.1,2.918c.015-.972,0-1.944.007-2.917h.557v3.862l-.557,0q-1.05-1.457-2.1-2.917c-.016.972,0,1.944-.007,2.915h-.557Q450.771,3717.751,450.772,3715.82Z" fill="#fff"/>
        <path id="Trazado_102970" data-name="Trazado 102970" d="M457.3,3715.92c.185-.037.369-.071.554-.1,0,.348,0,.7,0,1.047.187.006.374.013.561.023-.01.183-.016.365-.025.549-.178,0-.356-.006-.533-.008.015.444-.031.892.025,1.334.055.246.312.33.521.408,0,.171,0,.343,0,.515a1.087,1.087,0,0,1-1.093-.954c-.033-.434,0-.87-.018-1.3l-.482.006v-.558h.487C457.3,3716.555,457.3,3716.237,457.3,3715.92Z" fill="#fff"/>
        <path id="Trazado_102971" data-name="Trazado 102971" d="M458.7,3715.82h.558c0,.186,0,.372,0,.557H458.7C458.7,3716.19,458.7,3716,458.7,3715.82Z" fill="#fff"/>
        <path id="Trazado_102972" data-name="Trazado 102972" d="M472.309,3715.82h.557v.556h-.557Q472.308,3716.1,472.309,3715.82Z" fill="#fff"/>
        <path id="Trazado_102973" data-name="Trazado 102973" d="M476.437,3715.92c.183-.036.367-.071.553-.1,0,.348,0,.7,0,1.047.185.007.371.011.557.02-.007.183-.012.366-.018.55-.18,0-.358-.005-.536-.006a13.229,13.229,0,0,0,.026,1.336c.056.245.312.328.521.405v.518a1.094,1.094,0,0,1-1.092-.961c-.033-.433,0-.868-.018-1.3l-.481.007c0-.187,0-.374,0-.559h.487C476.434,3716.555,476.434,3716.237,476.437,3715.92Z" fill="#fff"/>
        <path id="Trazado_102974" data-name="Trazado 102974" d="M454.569,3717.067a2.037,2.037,0,0,1,1.477-.091.975.975,0,0,1,.632.855c.016.617,0,1.234.005,1.851h-.561l.018-.263a1.123,1.123,0,0,1-1.759-.155.862.862,0,0,1,.581-1.2,8.964,8.964,0,0,1,1.192-.056c-.034-.172-.064-.371-.235-.462a1.533,1.533,0,0,0-1.233.048q-.066-.26-.118-.522m.266,1.743c.08.455.7.467,1.043.333.3-.093.25-.433.26-.68-.43.01-1.084-.146-1.3.347Z" fill="#fff"/>
        <path id="Trazado_102975" data-name="Trazado 102975" d="M462.529,3717.1a1.187,1.187,0,0,1,1.584.157,1.762,1.762,0,0,1,.421,1.278c-.673,0-1.348,0-2.021,0a.926.926,0,0,0,.5.632.829.829,0,0,0,.869-.266l.447.3a1.3,1.3,0,0,1-1.8.331l-.052-.038a1.577,1.577,0,0,1-.123-2.227,1.55,1.55,0,0,1,.176-.168m-.017,1q.717.006,1.432,0c-.091-.347-.372-.72-.772-.669-.355.026-.561.36-.659.669Z" fill="#fff"/>
        <path id="Trazado_102976" data-name="Trazado 102976" d="M468.02,3717.762a1.356,1.356,0,0,1,1.307-.892,1.433,1.433,0,0,1,1.085.537c-.148.112-.3.219-.45.324a.861.861,0,0,0-1.045-.21.946.946,0,0,0,0,1.6.864.864,0,0,0,1.043-.209c.154.1.31.21.464.316a1.44,1.44,0,0,1-1.692.423A1.494,1.494,0,0,1,468.02,3717.762Z" fill="#fff"/>
        <path id="Trazado_102977" data-name="Trazado 102977" d="M471.19,3717.287a1.345,1.345,0,0,1,.973-.429v.557c-.388-.01-.856.139-.93.576a16.419,16.419,0,0,0-.035,1.69h-.558v-2.72h.559C471.2,3717.069,471.192,3717.178,471.19,3717.287Z" fill="#fff"/>
        <path id="Trazado_102978" data-name="Trazado 102978" d="M473.907,3717.3a1.24,1.24,0,0,1,.757-.422,1.086,1.086,0,0,1,.957.365,1.66,1.66,0,0,1,.223,1.836,1.184,1.184,0,0,1-1.081.69,1.171,1.171,0,0,1-.856-.431c.024.494.007.988.012,1.483h-.558v-3.862h.561c-.006.114-.011.228-.016.341m.552.16a.956.956,0,0,0,0,1.72.8.8,0,0,0,1-.713c.117-.552-.4-1.222-1-1.007Z" fill="#fff"/>
        <path id="Trazado_102979" data-name="Trazado 102979" d="M458.7,3716.961h.558v2.722H458.7Z" fill="#fff"/>
        <path id="Trazado_102980" data-name="Trazado 102980" d="M459.4,3716.96c.2,0,.4,0,.6.005q.358.963.732,1.923c.239-.641.492-1.277.724-1.92.2-.007.4-.01.6-.011-.331.907-.692,1.8-1.018,2.71-.2.01-.4.015-.6.019C460.087,3718.782,459.746,3717.87,459.4,3716.96Z" fill="#fff"/>
        <path id="Trazado_102981" data-name="Trazado 102981" d="M472.309,3716.961h.557v2.722h-.557Z" fill="#fff"/>
      </g>
      <g id="Group_59666" data-name="Group 59666">
        <g id="Group_59657" data-name="Group 59657">
          <path id="Path_103847" data-name="Path 103847" d="M402,3713.851l-2.93-18.4c.237-1.9-3.2-6.44-4.86-7.393-4.556-2.61-10.181-2.985-15.322-1.917-16.758,3.482-9.736,28.613-9.736,28.613" fill="#12263f"/>
          <path id="Path_103848" data-name="Path 103848" d="M380.865,3701.755a.444.444,0,0,1-.445.461c-1.057-.005-3.5-.23-3.84,2.534-.349,2.795,2.314,4.368,3.917,4.455a3.571,3.571,0,0,1,1.843.461c.964,1.048,1.417,3.339,2.158,6.194a8.11,8.11,0,0,1-3.316,9.187s16.52,8.122,16.366-.02c0,0-1.306-14.977-1.229-15.054,1.29-1.289,6.3-1.843,3.149-12.519-2.917-9.89-10.173-9.187-12.017-8.86C385.894,3688.87,380.491,3689.209,380.865,3701.755Z" fill="#ff9a87"/>
          <g id="Group_59656" data-name="Group 59656">
            <path id="Path_103849" data-name="Path 103849" d="M377.781,3705.551s1.66-3.5,3.768,1.192" fill="#ff9a87" style="mix-blend-mode: multiply;isolation: isolate"/>
            <path id="Path_103850" data-name="Path 103850" d="M390.049,3701.767a2.482,2.482,0,1,1-2.426,2.538A2.482,2.482,0,0,1,390.049,3701.767Z" fill="#ff9a87" opacity="0.5" style="mix-blend-mode: multiply;isolation: isolate"/>
            <path id="Path_103851" data-name="Path 103851" d="M400.39,3702.694a2.483,2.483,0,0,1-.83-4.573A12.1,12.1,0,0,1,400.39,3702.694Z" fill="#ff9a87" opacity="0.5" style="mix-blend-mode: multiply;isolation: isolate"/>
            <path id="Path_103852" data-name="Path 103852" d="M398.3,3701.414l-3.784,1.885s1.851,1.347,2.851.61A3.336,3.336,0,0,0,398.3,3701.414Z" fill="#fff"/>
            <path id="Path_103853" data-name="Path 103853" d="M395.4,3698.667l.6,2.7,1.315-.581a.349.349,0,0,0,.071-.6Z" fill="#ff9a87" style="mix-blend-mode: multiply;isolation: isolate"/>
            <path id="Path_103854" data-name="Path 103854" d="M390.55,3697.654c-.329.459-.139-1.142.4-1.51a1.11,1.11,0,0,1,1.552.177A3.475,3.475,0,0,0,390.55,3697.654Z" fill="#12263f"/>
            <path id="Path_103855" data-name="Path 103855" d="M397.685,3694.954c.543.152-.606-.978-1.257-.927a1.11,1.11,0,0,0-1.1,1.109A3.471,3.471,0,0,1,397.685,3694.954Z" fill="#12263f"/>
            <path id="Path_103856" data-name="Path 103856" d="M392.732,3699.641c.182.452.508.747.727.659s.249-.527.067-.979-.509-.748-.728-.659S392.549,3699.189,392.732,3699.641Z" fill="#12263f"/>
            <path id="Path_103857" data-name="Path 103857" d="M396.236,3697.972c.175.432.486.714.7.629s.238-.5.064-.935-.486-.713-.7-.629S396.062,3697.54,396.236,3697.972Z" fill="#12263f"/>
            <path id="Path_103858" data-name="Path 103858" d="M396.319,3709.973a39.686,39.686,0,0,1-7.1.747C386.841,3710.567,398.761,3724.256,396.319,3709.973Z" opacity="0.3" fill="url(#linear-gradient)" style="mix-blend-mode: multiply;isolation: isolate"/>
          </g>
          <path id="Path_103859" data-name="Path 103859" d="M391.709,3687.058a12.025,12.025,0,0,1,5.147,3.331l-3.633,1.816-2.271-3.179.606,2.876-7.569,4.087-.908-2.119-.454,2.422-3.633,1.665S377.415,3681.582,391.709,3687.058Z" fill="#12263f"/>
        </g>
        <path id="Path_103860" data-name="Path 103860" d="M320.532,3948.194c0-1.565,22.046-2.833,49.242-2.833s49.243,1.268,49.243,2.833-22.047,2.833-49.243,2.833S320.532,3949.758,320.532,3948.194Z" fill="#ccc"/>
        <g id="Group_59658" data-name="Group 59658">
          <path id="Path_103861" data-name="Path 103861" d="M393.732,3927.941l1.715,12.182s2.752,8.079,5.307,4.951a25.207,25.207,0,0,1,5.083-4.78l.839-12.665Z" fill="#ff9a87"/>
          <path id="Path_103862" data-name="Path 103862" d="M400.418,3928.4l.442,16.57s-8.086,1.214-5.081-4.2l-1.767-11.488Z" opacity="0.3" fill="url(#linear-gradient-2)" style="mix-blend-mode: multiply;isolation: isolate"/>
          <path id="Path_103863" data-name="Path 103863" d="M353.015,3927l-3.791,12.152s-2.885,2.53-3.926,2.464c-1.895-.119-2.888-3.387-2.888-3.387L342.1,3927Z" fill="#ff9a87"/>
          <path id="Path_103864" data-name="Path 103864" d="M347.554,3923.757l-2.651,20.1s-5.435,1.435-2.431-3.977l-.662-15.464Z" opacity="0.3" fill="url(#linear-gradient-3)" style="mix-blend-mode: multiply;isolation: isolate"/>
          <path id="Path_103865" data-name="Path 103865" d="M406.68,3940.231l10.2,8.269c.522.388.15,1.041-.6,1.047l-15.06.122a.88.88,0,0,1-.809-.41l-1.136-2.329c-.328-.673-.982-.727-.922-.015l-.556,2.249c.03.354-3.571.257-3.6-.065a63.571,63.571,0,0,1,.578-10.357.75.75,0,0,1,.675-.522h0a1.026,1.026,0,0,1,.842.232c1.017.983,4.267,3.943,6,3.344a12.745,12.745,0,0,0,3.134-1.535A1.07,1.07,0,0,1,406.68,3940.231Z" fill="#ffca28"/>
          <path id="Path_103866" data-name="Path 103866" d="M342.269,3937.813l-5.793,9.7a1.89,1.89,0,0,0,.844,2.735c1.811,1.078,3.291,3.229,4.431,3.261,2.06.056,5.261-2.112,7.127-2.926,1.253-.546,2.233-1.346,2.078-2.393l-1.44-9.733c-.018-.121-.23-.165-.335-.07l-2.218,2.011c-.727.658-2.7.57-3.189-.219-.349-.563-1.169-2.378-1.169-2.378A.228.228,0,0,0,342.269,3937.813Z" fill="#ffca28"/>
        </g>
        <g id="Group_59659" data-name="Group 59659">
          <path id="Path_103867" data-name="Path 103867" d="M373,3766.925a89.3,89.3,0,0,0-9.837,24.839c-3.117,12.192-20.236,115.321-21.706,137.5,3.842.926,8.471.177,10.9.042,7.723-22.133,31.534-93.4,34.845-107.344.509-2.143,3.821-1.672,3.563.515-1.88,15.923.634,83.419,2.653,107.082,2.015,1.025,11.559,1.2,13.886.907,2.531-27.31,15.963-130.7-4.314-164.211C393.714,3764.974,382.4,3766.645,373,3766.925Z" fill="#12263f"/>
          <path id="Path_103868" data-name="Path 103868" d="M401.775,3769.884s8.259,20.438,8.259,49.283-9.455,101.922-9.455,101.922" fill="#12263f"/>
          <path id="Path_103868_-_Outline" data-name="Path 103868 - Outline" d="M400.733,3921.109l-.308-.04c.024-.183,2.391-18.518,4.727-40.141,2.156-19.954,4.727-46.867,4.727-61.761a156.029,156.029,0,0,0-4.125-35.423,106.586,106.586,0,0,0-4.122-13.8l.288-.116a106.925,106.925,0,0,1,4.137,13.847,153.648,153.648,0,0,1,2.842,15.6,155.276,155.276,0,0,1,1.292,19.889c0,14.908-2.571,41.833-4.728,61.795C403.124,3902.588,400.756,3920.926,400.733,3921.109Z" fill="#fff"/>
          <path id="Line_155" data-name="Line 155" d="M.152,153.126l-.3-.06L29.909-.03l.3.06Z" transform="translate(347.509 3768.942)" fill="#fff"/>
          <path id="Path_103869" data-name="Path 103869" d="M383.352,3769.749s-.281,26.422-12.139,24.339" fill="#12263f"/>
          <path id="Path_103869_-_Outline" data-name="Path 103869 - Outline" d="M372.507,3794.359a7.628,7.628,0,0,1-1.321-.119l.054-.306a6.318,6.318,0,0,0,5.351-1.4c3.308-2.748,4.929-8.791,5.705-13.376a68.073,68.073,0,0,0,.9-9.411l.31,0a68.437,68.437,0,0,1-.9,9.46,39.972,39.972,0,0,1-1.995,7.652,14.233,14.233,0,0,1-3.818,5.911A6.549,6.549,0,0,1,372.507,3794.359Z" fill="#fff"/>
          <path id="Path_103870" data-name="Path 103870" d="M402.851,3770.422l-38.174,28.745s-1.594-15.512,5.188-28.245Z" fill="#12263f" opacity="0.21" style="mix-blend-mode: multiply;isolation: isolate"/>
          <path id="Path_103871" data-name="Path 103871" d="M407.961,3795.3c-11.859,2.083-9.951-24.206-9.951-24.206" fill="#12263f"/>
          <path id="Path_103871_-_Outline" data-name="Path 103871 - Outline" d="M406.67,3795.572a5.941,5.941,0,0,1-4.1-1.586,12.745,12.745,0,0,1-3.274-5.889,38.067,38.067,0,0,1-1.331-7.61,67.972,67.972,0,0,1-.109-9.4l.309.022a67.629,67.629,0,0,0,.109,9.36,37.752,37.752,0,0,0,1.319,7.545,12.447,12.447,0,0,0,3.184,5.745,5.826,5.826,0,0,0,5.157,1.392l.054.306A7.63,7.63,0,0,1,406.67,3795.572Z" fill="#fff"/>
        </g>
        <path id="Path_103872" data-name="Path 103872" d="M385.106,3721.809s-2.419-.7-2.018-.184a10.056,10.056,0,0,0,2.118,1.659Z" fill="#c00b00"/>
        <path id="Line_156" data-name="Line 156" d="M0,.521,0,.21,15.208-.155l.007.31Z" transform="translate(393.22 3921.249)" fill="#fff"/>
        <path id="Line_157" data-name="Line 157" d="M12.587.445,0,.155,0-.155l12.591.29Z" transform="translate(342.276 3920.959)" fill="#fff"/>
        <path id="Path_103873" data-name="Path 103873" d="M361.648,3816.489c0-.2-.2-2.36-.2-2.36l.978,3.1Z" fill="#cf6a49"/>
        <path id="Path_103874" data-name="Path 103874" d="M367.768,3819.557l.682.531s-.708,1.29-1.011,1.188A2.223,2.223,0,0,0,367.768,3819.557Z" fill="#cf6a49"/>
        <g id="Group_59660" data-name="Group 59660">
          <path id="Path_103875" data-name="Path 103875" d="M461.683,3763.663c-8.541-.264-14.244-.253-15.041-.191l-27.532-.6.083-.071s-1.39-.007-2.368-.081a1.086,1.086,0,0,1-.979-.83c-2.641-11.144-7.985-40.516-17.566-38.121-.139.035.9.841,1.245,1.275,3.138,3.953,4.587,23.039,4.587,23.039.067.295.057,1.6.051,3.474-3.373,19.332.661,20.829.661,20.829a9.253,9.253,0,0,0,2.032.9c.015.02.029.041.044.06l.04-.033c12.294,3.821,47.865-4.485,47.865-4.485C457.7,3768.043,464.159,3763.739,461.683,3763.663Z" fill="#ff9a87"/>
          <path id="Path_103876" data-name="Path 103876" d="M398.28,3723.767s4.294-1.951,7.419,2.911,10.07,30.093,10.88,34.954l10.3,1.042s0,9.839-.81,10.88c0,0-17.709,6.713-22.339.926S398.28,3723.767,398.28,3723.767Z" fill="#ffca28"/>
        </g>
        <path id="Path_103877" data-name="Path 103877" d="M449.389,3763.42s6.459-4.09,6.729-3.1c.532,1.948-4.836,4-4.161,4.6C451.957,3764.926,450.4,3763.96,449.389,3763.42Z" fill="#ff9a87"/>
        <g id="Group_59664" data-name="Group 59664">
          <path id="Path_103878" data-name="Path 103878" d="M400.567,3723.784c-.27.655,7.69,19.626,7.369,26.046-.324,6.468-4.742,17.35-4.4,18.323,0,0-5.018,3.959-32.7-.4-8.511-7.446-1.033-32.753,1.825-40.766,0,0,5.449-2.727,7.795-2.9A37.312,37.312,0,0,0,400.567,3723.784Z" fill="#4dd0e1"/>
          <g id="Group_59661" data-name="Group 59661">
            <path id="Path_103879" data-name="Path 103879" d="M374.88,3725.977s3.387-1.846,4.776-1.961c0,0,13.427,16.2,11,48.844,0,0,4.836,48.608,4.488,49.071s-44.806-1.615-44.806-1.615S380.752,3729.444,374.88,3725.977Z" fill="#ffca28"/>
            <path id="Path_103880" data-name="Path 103880" d="M399.1,3725.636s3.2,80.206-.731,96.295l25.026.807s-7.326-45.542-7.627-48.489c-1.348-13.17-15.279-51.159-15.279-51.159Z" fill="#ffca28"/>
          </g>
          <g id="Group_59662" data-name="Group 59662">
            <path id="Rectangle_7506" data-name="Rectangle 7506" d="M0,0H37.519a4.964,4.964,0,0,1,4.964,4.964V27.512a0,0,0,0,1,0,0H0a0,0,0,0,1,0,0V0A0,0,0,0,1,0,0Z" transform="matrix(0.999, 0.05, -0.05, 0.999, 346.215, 3787.801)" fill="#4dd0e1"/>
            <circle id="Ellipse_4055" data-name="Ellipse 4055" cx="4.923" cy="4.923" r="4.923" transform="translate(361.817 3797.48)" fill="#fff"/>
          </g>
          <path id="Path_103881" data-name="Path 103881" d="M380.387,3724.057l3.921-5.128a51.371,51.371,0,0,0,11.685,5.771l-.121,1.837a4.873,4.873,0,0,1-7.322,3.889C385.291,3728.518,381.8,3726.145,380.387,3724.057Z" fill="#fff"/>
          <path id="Path_103882" data-name="Path 103882" d="M396.934,3718.648s1.171,4.443-1.035,6.139l.632,1.539a2.088,2.088,0,0,0,4.053-.482,8.474,8.474,0,0,0-.057-2.307Z" fill="#fff"/>
          <g id="Group_59663" data-name="Group 59663">
            <path id="Path_103883" data-name="Path 103883" d="M397.377,3729.69c0,.664-.287,1.2-.641,1.2s-.641-.538-.641-1.2.287-1.2.641-1.2S397.377,3729.026,397.377,3729.69Z" fill="#fff"/>
            <path id="Path_103884" data-name="Path 103884" d="M397.7,3734.818c0,.664-.287,1.2-.641,1.2s-.641-.538-.641-1.2.287-1.2.641-1.2S397.7,3734.155,397.7,3734.818Z" fill="#fff"/>
            <path id="Path_103885" data-name="Path 103885" d="M397.943,3740.467c0,.663-.287,1.2-.641,1.2s-.641-.539-.641-1.2.287-1.2.641-1.2S397.943,3739.8,397.943,3740.467Z" fill="#fff"/>
          </g>
        </g>
        <g id="Group_59665" data-name="Group 59665">
          <path id="Path_103886" data-name="Path 103886" d="M364.52,3784.12s-5.766,2.677-1.31,19.025a6.186,6.186,0,0,1,.264,2.73l-1,7.026c-.15.752-.252,1.762.386,2.187.8.532,5.352,4.716,5.906,4.9,1.125.374-.1-5.179.081-8.1a27.576,27.576,0,0,1,.227,2.89l.138,2.284c1.361-.623,1.333-3.246,1.546-4.129a3.427,3.427,0,0,0-.085-2.231,19.264,19.264,0,0,1-1.99-6.177c-.109-1.359.843-6.407,1.631-15.807Z" fill="#3f6870" opacity="0.6"/>
          <path id="Path_103887" data-name="Path 103887" d="M363.786,3744.333c-10.691,59.708-3.747,71.047-3.047,71.513.876.583,5.866,5.168,6.473,5.37,1.232.411-.113-5.676.089-8.883a30.211,30.211,0,0,1,.248,3.168l.152,2.5c1.491-.683,1.461-3.558,1.694-4.527a3.749,3.749,0,0,0-.093-2.444,21.117,21.117,0,0,1-2.181-6.77c-.119-1.491,10.012-49.982,11.793-57.107,2.421-9.682-.626-20.8-4.034-21.18C370.65,3725.51,364.671,3739.388,363.786,3744.333Z" fill="#ff9a87"/>
          <path id="Path_103888" data-name="Path 103888" d="M369.355,3793.231c5.093-15.973,7.778-38.949,9.559-46.074,2.421-9.682-.626-20.8-4.034-21.18-4.23-.467-9.229,5.215-12.7,15.4-7.769,22.789-7.871,45.6-5.787,46.761" fill="#ffca28"/>
        </g>
      </g>
      <g id="Group_59680" data-name="Group 59680">
        <g id="Group_59679" data-name="Group 59679">
          <path id="Path_103889" data-name="Path 103889" d="M593.33,3952.037c0-1.875,26.429-3.4,59.03-3.4s56.846.961,56.846,2.837-28.139,2.711-60.74,2.711S593.33,3953.913,593.33,3952.037Z" fill="#ccc"/>
          <g id="Group_59667" data-name="Group 59667">
            <path id="Path_103890" data-name="Path 103890" d="M600.464,3942.579l1.808-3.574,10.773.389.242,3.185-5.062,8.782-9.111-7.025Z" fill="#ff9a87"/>
            <path id="Path_103891" data-name="Path 103891" d="M607.036,3939.364l.452,8.3a39.1,39.1,0,0,0,6.07-4.521l-.449-4.7Z" opacity="0.3" fill="url(#linear-gradient-4)" style="mix-blend-mode: multiply;isolation: isolate"/>
            <path id="Path_103892" data-name="Path 103892" d="M599.814,3942.456a12.049,12.049,0,0,1,6.846,2.733c2.193,1.662,5.505-1.767,6.519-2.654.207-.18.487-.018.522.3l1.274,11.6H582.917a.8.8,0,0,1-.675-.878v-2.44a.888.888,0,0,1,.462-.833Z" fill="#4dd0e1"/>
            <path id="Line_158" data-name="Line 158" d="M5.063,3.155-.1.169.1-.169,5.258,2.816Z" transform="translate(598.013 3943.065)" fill="#fff"/>
            <path id="Line_159" data-name="Line 159" d="M5.063,3.155-.1.169.1-.169,5.258,2.816Z" transform="translate(595.763 3944.216)" fill="#fff"/>
          </g>
          <g id="Group_59668" data-name="Group 59668">
            <path id="Path_103893" data-name="Path 103893" d="M652.7,3942.579l1.809-3.574,9.886-1.483,1.128,5.057-5.062,8.782-9.111-7.025Z" fill="#ff9a87"/>
            <path id="Path_103894" data-name="Path 103894" d="M660.341,3939.134l-.9,7.836a39.1,39.1,0,0,0,6.07-4.521l-.9-4.006Z" opacity="0.3" fill="url(#linear-gradient-5)" style="mix-blend-mode: multiply;isolation: isolate"/>
            <path id="Path_103895" data-name="Path 103895" d="M652.045,3942.456a12.049,12.049,0,0,1,6.846,2.733c2.192,1.662,5.5-1.767,6.519-2.654.206-.18.487-.018.522.3l1.273,11.6H635.148a.8.8,0,0,1-.675-.878v-2.44a.889.889,0,0,1,.461-.833Z" fill="#4dd0e1"/>
            <path id="Line_160" data-name="Line 160" d="M5.063,3.155-.1.169.1-.169,5.258,2.816Z" transform="translate(649.518 3943.295)" fill="#fff"/>
            <path id="Line_161" data-name="Line 161" d="M5.063,3.155-.1.169.1-.169,5.258,2.816Z" transform="translate(647.269 3944.446)" fill="#fff"/>
          </g>
          <path id="Path_103896" data-name="Path 103896" d="M615.726,3683.539a4.415,4.415,0,0,0,1.705,1.531c1.5.594,3.406-.65,5.078-1.947,1.644-1.276,4.78.8,5.268,1.141l3.778,12.215-.295.159.111.216h0l.111.216,3.791-2.042.03-.1c2.785-9.163,2.609-11.221,1.281-15.216-3.512-5.685-14.623-8.733-15.462-9.429a5.648,5.648,0,0,0-6.474-.553c-3.892,2.364-3.16,7.666-.934,11.213A5.061,5.061,0,0,0,615.726,3683.539Zm3.994-12.452a4.991,4.991,0,0,0-6.426,3.749,4.344,4.344,0,0,1,2.077-3.836A4.146,4.146,0,0,1,619.72,3671.087Zm13.478,24.507-.823.443a4.027,4.027,0,0,1,1.659-1.019Z" fill="#12263f"/>
          <g id="Group_59669" data-name="Group 59669">
            <path id="Path_103897" data-name="Path 103897" d="M602.466,3802.211s-4.123,49.315-4.511,62.941,2.348,74.37,2.348,74.37l13.8.3s15.332-101.907,31.99-134.769Z" fill="#ffa726"/>
            <path id="Path_103898" data-name="Path 103898" d="M610,3939.4l-.391-.011c.017-.6,1.732-60.208,1.732-68.854,0-3.64,1.975-15.812,5.869-36.177,2.9-15.162,5.837-29.44,5.866-29.582l.383.079c-.117.57-11.727,57.052-11.727,65.681C611.73,3879.184,610.016,3938.8,610,3939.4Z" fill="#fff"/>
            <path id="Line_162" data-name="Line 162" d="M14.884.2H0V-.2H14.884Z" transform="translate(600.155 3933.191)" fill="#fff"/>
          </g>
          <g id="Group_59671" data-name="Group 59671">
            <path id="Path_103899" data-name="Path 103899" d="M605.359,3802.277s6.6,41.042,16.287,70.126c7.824,23.5,28.365,68.2,28.365,68.2l16.021-.175-16.7-67.332a58.577,58.577,0,0,1-1.678-10.711c-.859-13.657,1.948-41.253,3.122-58.936Z" fill="#ffca28"/>
            <g id="Group_59670" data-name="Group 59670">
              <path id="Path_103900" data-name="Path 103900" d="M658.98,3940.365c-.2-.675-19.785-67.554-23.779-75.731-.936-1.916-1.493-6.356-1.657-13.2-.13-5.455-.014-12.45.347-20.79.613-14.2,1.736-27.553,1.747-27.686l.389.033c-.011.133-1.133,13.483-1.746,27.672-.81,18.752-.37,30.439,1.271,33.8,4.009,8.207,23.606,75.118,23.8,75.793Z" fill="#00092b"/>
              <path id="Line_163" data-name="Line 163" d="M16.59.2H0V-.2H16.59Z" transform="translate(647.513 3934.339)" fill="#00092b"/>
              <path id="Line_164" data-name="Line 164" d="M14.205,18.95-.155.118.155-.118l14.36,18.832Z" transform="translate(619.676 3802.517)" fill="#00092b"/>
            </g>
          </g>
          <g id="Group_59672" data-name="Group 59672">
            <path id="Path_103901" data-name="Path 103901" d="M625.48,3724.622s.545-4.426-3.546-5.069-15.119-3.567-43.157,6.007c0,0-5.647-27.276-4.9-29.343.952-2.652-14.742-3.36-25.351-3.536-2.035-.034,3.964,5.092,5.853,5.849,7.769,3.115,11.433,4.646,11.785,3.454,0,0-3.162,38.031,1.39,41.945S630.007,3737.964,625.48,3724.622Z" fill="#ff9a87"/>
            <path id="Path_103902" data-name="Path 103902" d="M590.058,3721.559s42.459-10.623,42,1.717-62.277,35.463-67.448,28.572c-8.209-10.94.781-48.4.781-48.4l10.148-4.528,2.966,25.449Z" fill="#0380bd"/>
            <path id="Path_103903" data-name="Path 103903" d="M593,3745.91c2.461,2.952,26.537-3.244,29.177-7.264,0,0,.411-13.476-.614-13.754C611.112,3722.058,593,3745.91,593,3745.91Z" fill="#025b87"/>
          </g>
          <g id="Group_59673" data-name="Group 59673">
            <path id="Path_103904" data-name="Path 103904" d="M639.7,3716.491s21.536,2.2,22.891,20.033-9.769,73.56-9.769,73.56l-54.021.937,3.014-70.281a25.973,25.973,0,0,1,4.058-12.757c2.252-3.515,4.888-7.5,6.386-7.688l22.608-6.074Z" fill="#0380bd"/>
            <path id="Path_103905" data-name="Path 103905" d="M644.148,3723.2c13.084-5.248,17.765,4.4,18.443,13.321,1.356,17.833-9.786,75.035-9.786,75.035l-53.692-.226" fill="#025b87"/>
          </g>
          <g id="Group_59674" data-name="Group 59674">
            <path id="Path_103906" data-name="Path 103906" d="M632.921,3700.361l2.258,13.86s-9.705,10-13.493,8.682c-1.349-.471-1.84-5.41-1.84-5.41l.969-10.019,10.072-9.117a9.831,9.831,0,0,1,1.743,1.5A2.277,2.277,0,0,0,632.921,3700.361Z" fill="#ff9a87"/>
            <path id="Path_103907" data-name="Path 103907" d="M630.887,3698.357l-10.072,9.117-.712,5.96s9.144-2.518,9.461-10.075" opacity="0.3" fill="url(#linear-gradient-6)" style="mix-blend-mode: multiply;isolation: isolate"/>
          </g>
          <g id="Group_59676" data-name="Group 59676">
            <g id="Group_59675" data-name="Group 59675">
              <path id="Path_103908" data-name="Path 103908" d="M605.228,3778.048l-12.005-37.67a7.486,7.486,0,0,0-4.135-4.621l-24.58-10.616a.929.929,0,0,0-1.22,1.179l12.129,36.905a7.5,7.5,0,0,0,3.921,4.467l24.643,11.516A.929.929,0,0,0,605.228,3778.048Z" fill="#ccc"/>
              <path id="Path_103909" data-name="Path 103909" d="M603.164,3780.254l-12-37.67a7.488,7.488,0,0,0-4.136-4.621l-24.58-10.616a.93.93,0,0,0-1.22,1.179l12.129,36.905a7.5,7.5,0,0,0,3.921,4.467l24.643,11.516A.929.929,0,0,0,603.164,3780.254Z" fill="gray"/>
              <path id="Path_103910" data-name="Path 103910" d="M597.015,3752.681l-9.05,2.681,11.432,4.632Z" opacity="0.3" fill="url(#linear-gradient-5)" style="mix-blend-mode: multiply;isolation: isolate"/>
            </g>
            <path id="Path_103911" data-name="Path 103911" d="M587.867,3759.312c1.328,1.193,29.045,31.724,43.253,35.471,4.142,1.093,7.2-2.5,9.368-6.245l14.285-27.708-19.036-14.77c-.135.209-10.083,17.119-12.374,25.6-.754,2.79-2.059,2.576-4.323,1.19l-17.371-10.708a19.643,19.643,0,0,0-.357-4.185c-.735-2.184-4.218-5.114-4.218-5.114l1.509,4.631c.272.781,1.162,1.344-.242,1.513l-11.031-8.176s-1.006-.081-.053,1a11.638,11.638,0,0,1,1.852,2.3c-.132.081-3.149-2.032-3.281-1.219s2.461,2.762,2.355,2.843-2.937-2.248-3.1-1.489,1.984,2.221,2.09,2.519-2.328-1.571-2.434-1.165S587.107,3758.629,587.867,3759.312Z" fill="#ff9a87"/>
            <path id="Path_103912" data-name="Path 103912" d="M640.776,3731.091s5.424-15.229,15.884-8.817,1.086,36.509-3.1,44.083c-3.447,6.237-7.574,18.575-13.228,26.709-3.95,5.68-15.225,4.96-20.228.182l-21.771-20.791,5.152-9.836,18.111,7.806Z" fill="#0380bd"/>
          </g>
          <g id="Group_59678" data-name="Group 59678">
            <path id="Path_103913" data-name="Path 103913" d="M631.865,3694.979a.461.461,0,0,0,.758.177c.82-.8,2.453-1.909,3.038,1.3.8,4.353-3.747,3.6-4.109,4.19-.734,1.189-3.088,5.182-6.6,6.731a6.937,6.937,0,0,1-7.643-1.149c-2.336-2.243-3.382-.707-2.4-24.689a5.973,5.973,0,0,0,2.61,2.6c1.539.532,4.005-1.6,5.757-2.091,1.423-.4,4.183-1.441,5.869,3.51C629.919,3687.828,631.152,3693.092,631.865,3694.979Z" fill="#ff9a87"/>
            <g id="Group_59677" data-name="Group 59677">
              <path id="Path_103914" data-name="Path 103914" d="M614.988,3698.792s1.409.7,4.852.378c0,0-1.852,2.51-3.209,2.024S614.988,3698.792,614.988,3698.792Z" fill="#fff"/>
              <path id="Path_103915" data-name="Path 103915" d="M634.98,3696.129l-2.4,1.808S633.476,3693.563,634.98,3696.129Z" fill="#ff9a87" style="mix-blend-mode: multiply;isolation: isolate"/>
              <path id="Path_103916" data-name="Path 103916" d="M617.8,3693.707c0,.524.207.948.463.948s.464-.424.464-.948-.208-.949-.464-.949S617.8,3693.183,617.8,3693.707Z" fill="#12263f"/>
              <path id="Path_103917" data-name="Path 103917" d="M614.785,3693.243c0,.524.207.948.463.948s.463-.424.463-.948-.207-.949-.463-.949S614.785,3692.719,614.785,3693.243Z" fill="#12263f"/>
              <path id="Path_103918" data-name="Path 103918" d="M621.7,3689.619c.687.479-.388-1.69-1.321-1.931a1.63,1.63,0,0,0-2.059,1.056A5.023,5.023,0,0,1,621.7,3689.619Z" fill="#12263f"/>
              <path id="Path_103919" data-name="Path 103919" d="M614.642,3689.389a5.012,5.012,0,0,1,1.691.046,1.706,1.706,0,0,0-1.708-1.35" fill="#12263f"/>
              <path id="Path_103920" data-name="Path 103920" d="M616.2,3693.215l-1.413,4.019a.1.1,0,0,0,.083.141l1.667.126a.1.1,0,0,0,.1-.111l-.255-4.144A.094.094,0,0,0,616.2,3693.215Z" fill="#ff9a87" style="mix-blend-mode: multiply;isolation: isolate"/>
            </g>
          </g>
        </g>
      </g>
      <g id="Group_59681" data-name="Group 59681" opacity="0.59">
        <path id="Path_103921" data-name="Path 103921" d="M399.607,3646.941a4.01,4.01,0,1,0-4.011,4.01A4.011,4.011,0,0,0,399.607,3646.941Z" fill="#fff"/>
        <path id="Path_103922" data-name="Path 103922" d="M601.118,3578.768a6.015,6.015,0,1,0-6.015,6.015A6.016,6.016,0,0,0,601.118,3578.768Z" fill="#fff"/>
        <path id="Path_103923" data-name="Path 103923" d="M683.327,3777.272a7.018,7.018,0,1,1-7.018-7.018A7.018,7.018,0,0,1,683.327,3777.272Z" fill="#fff"/>
        <path id="Path_103924" data-name="Path 103924" d="M384.568,3896.575a6.015,6.015,0,1,0-6.015,6.015A6.015,6.015,0,0,0,384.568,3896.575Z" fill="#fff"/>
      </g>
      <g transform="matrix(1, 0, 0, 1, 0, 0)" filter="url(#Rectangle_7507)">
        <rect id="Rectangle_7507-2" data-name="Rectangle 7507" width="82.144" height="60.912" rx="2.772" transform="translate(485.61 3602.14)" fill="#039be5"/>
      </g>
      <g id="Group_59682" data-name="Group 59682">
        <rect id="Rectangle_7508" data-name="Rectangle 7508" width="82.144" height="0.547" transform="translate(485.613 3611.422)" fill="#fff"/>
      </g>
      <g id="Group_59683" data-name="Group 59683">
        <path id="Path_103925" data-name="Path 103925" d="M496.469,3607.4h-2.7a.484.484,0,0,1,0-.968h2.7a.484.484,0,0,1,0,.968Z" fill="#fff"/>
      </g>
      <g id="Group_59684" data-name="Group 59684">
        <path id="Path_103926" data-name="Path 103926" d="M505.829,3607.4h-2.7a.484.484,0,0,1,0-.968h2.7a.484.484,0,0,1,0,.968Z" fill="#fff"/>
      </g>
      <g id="Group_59685" data-name="Group 59685">
        <path id="Path_103927" data-name="Path 103927" d="M515.189,3607.4h-2.7a.484.484,0,0,1,0-.968h2.7a.484.484,0,0,1,0,.968Z" fill="#fff"/>
      </g>
      <g transform="matrix(1, 0, 0, 1, 0, 0)" filter="url(#Rectangle_7509)">
        <rect id="Rectangle_7509-2" data-name="Rectangle 7509" width="86.319" height="64.008" rx="2.772" transform="translate(487.39 3772.81)" fill="#039be5"/>
      </g>
      <g id="Group_59687" data-name="Group 59687">
        <rect id="Rectangle_7510" data-name="Rectangle 7510" width="86.319" height="0.575" transform="translate(487.39 3782.56)" fill="#fff"/>
      </g>
      <g id="Group_59688" data-name="Group 59688">
        <path id="Path_103928" data-name="Path 103928" d="M498.8,3778.337h-2.832a.509.509,0,0,1,0-1.017H498.8a.509.509,0,0,1,0,1.017Z" fill="#fff"/>
      </g>
      <g id="Group_59689" data-name="Group 59689">
        <path id="Path_103929" data-name="Path 103929" d="M508.634,3778.337H505.8a.509.509,0,0,1,0-1.017h2.832a.509.509,0,0,1,0,1.017Z" fill="#fff"/>
      </g>
      <g id="Group_59690" data-name="Group 59690">
        <path id="Path_103930" data-name="Path 103930" d="M518.469,3778.337h-2.831a.509.509,0,0,1,0-1.017h2.831a.509.509,0,0,1,0,1.017Z" fill="#fff"/>
      </g>
      <g id="Group_59693" data-name="Group 59693">
        <path id="Path_103931" data-name="Path 103931" d="M519.133,3649a.749.749,0,0,1-.7-.7.88.88,0,0,1,.065-.335l11.32-27.261a1.27,1.27,0,0,1,1.24-.838h3.182a.647.647,0,0,1,.5.218.7.7,0,0,1,.2.486.882.882,0,0,1-.069.334l-11.385,27.262a1.231,1.231,0,0,1-1.24.836Z" fill="#fff"/>
        <g id="Group_59692" data-name="Group 59692">
          <path id="Path_103932" data-name="Path 103932" d="M512.613,3644.945a1.141,1.141,0,0,1-.533-.2l-12.225-8.306a2.67,2.67,0,0,1-.735-.67,1.353,1.353,0,0,1-.239-.8v-1.072a1.281,1.281,0,0,1,.218-.769,3.084,3.084,0,0,1,.756-.671l12.225-8.3a1.128,1.128,0,0,1,.533-.2.71.71,0,0,1,.5.184.669.669,0,0,1,.2.519v3.784a1.137,1.137,0,0,1-.254.787,2.921,2.921,0,0,1-.687.551l-7.132,4.657,7.132,4.689a4.432,4.432,0,0,1,.7.586,1.006,1.006,0,0,1,.238.718v3.819a.687.687,0,0,1-.706.7Z" fill="#fff"/>
          <path id="Path_103933" data-name="Path 103933" d="M540.757,3644.945a.687.687,0,0,1-.7-.7v-3.819a1.024,1.024,0,0,1,.234-.718,4.834,4.834,0,0,1,.7-.586l7.136-4.689-7.136-4.657a3.1,3.1,0,0,1-.687-.551,1.155,1.155,0,0,1-.25-.787v-3.784a.669.669,0,0,1,.2-.519.707.707,0,0,1,.5-.184,1.125,1.125,0,0,1,.537.2l12.225,8.3a3.129,3.129,0,0,1,.752.671,1.281,1.281,0,0,1,.218.769v1.072a1.351,1.351,0,0,1-.235.8,2.731,2.731,0,0,1-.735.67l-12.225,8.306A1.138,1.138,0,0,1,540.757,3644.945Z" fill="#fff"/>
        </g>
      </g>
      <path id="Path_103934" data-name="Path 103934" d="M587.363,3838.888h3.312a16.853,16.853,0,0,0,0-6.466h-3.312a2.423,2.423,0,0,1-1.714-4.136L588,3825.94a17.367,17.367,0,0,0-4.572-4.572l-2.346,2.347a2.423,2.423,0,0,1-4.136-1.713v-3.313a16.854,16.854,0,0,0-6.466,0V3822a2.422,2.422,0,0,1-4.135,1.713l-2.347-2.347a17.382,17.382,0,0,0-4.572,4.572l2.347,2.346a2.423,2.423,0,0,1-1.713,4.136h-3.313a16.853,16.853,0,0,0,0,6.466h3.313a2.423,2.423,0,0,1,1.713,4.136l-2.347,2.346a17.363,17.363,0,0,0,4.572,4.572l2.347-2.347a2.422,2.422,0,0,1,4.135,1.713v3.313a16.854,16.854,0,0,0,6.466,0v-3.313a2.423,2.423,0,0,1,4.136-1.713l2.346,2.347A17.348,17.348,0,0,0,588,3845.37l-2.347-2.346A2.423,2.423,0,0,1,587.363,3838.888Zm-13.654,2.09a5.323,5.323,0,1,1,5.323-5.323A5.323,5.323,0,0,1,573.709,3840.978Z" transform="translate(0 9)" fill="#ffca28"/>
      <g id="Group_59694" data-name="Group 59694">
        <path id="Path_103935" data-name="Path 103935" d="M509.8,3800.32a.548.548,0,0,1,.552.552v8.814a5.843,5.843,0,0,1-.5,2.508,5.007,5.007,0,0,1-1.348,1.762,5.558,5.558,0,0,1-2.007,1.041,8.7,8.7,0,0,1-2.454.34,8.5,8.5,0,0,1-2.239-.3,6.242,6.242,0,0,1-1.965-.9,4.819,4.819,0,0,1-1.414-1.518,4.3,4.3,0,0,1-.561-2.165.564.564,0,0,1,.126-.34.433.433,0,0,1,.319-.128h3.038a.807.807,0,0,1,.466.128,1.352,1.352,0,0,1,.277.466,1.85,1.85,0,0,0,2.061,1.571,2.167,2.167,0,0,0,.977-.2,1.67,1.67,0,0,0,.648-.563,2.617,2.617,0,0,0,.361-.829,4.178,4.178,0,0,0,.116-1v-4.821a1.143,1.143,0,0,1,.34-.776,1.077,1.077,0,0,1,.829-.372h-7.965a.5.5,0,0,1-.382-.158.53.53,0,0,1-.149-.373v-.913a1.831,1.831,0,0,1,.128-.67,1.722,1.722,0,0,1,.37-.582,1.934,1.934,0,0,1,.585-.415,1.761,1.761,0,0,1,.763-.16Z" fill="#fff"/>
        <path id="Path_103936" data-name="Path 103936" d="M514.132,3815.06a.533.533,0,0,1-.128-.319.542.542,0,0,1,.021-.191l4.929-13.55a.848.848,0,0,1,.847-.615h3.292a.85.85,0,0,1,.85.615l4.929,13.55a.543.543,0,0,1,.021.191.471.471,0,0,1-.447.447h-2.74a.713.713,0,0,1-.722-.468l-1.1-2.994a12.4,12.4,0,0,1-1.55.489,13.873,13.873,0,0,1-1.518.286c-.489.063-.946.107-1.372.128s-.791.031-1.1.031h-.5a1.715,1.715,0,0,1-.31-.021.922.922,0,0,1,.626.426.868.868,0,0,1,.054.849l-.3.806a.716.716,0,0,1-.724.468h-2.738A.533.533,0,0,1,514.132,3815.06Zm5.395-5.437q.593-.042,1.231-.149a10.684,10.684,0,0,0,1.157-.244,5.217,5.217,0,0,0,1.158-.457l-1.635-4.672Z" fill="#fff"/>
        <path id="Path_103937" data-name="Path 103937" d="M545.119,3800.32a.43.43,0,0,1,.307.128.391.391,0,0,1,.14.3.516.516,0,0,1-.024.191l-4.288,13.55a1.031,1.031,0,0,1-.277.447.886.886,0,0,1-.594.17h-3.4a.879.879,0,0,1-.594-.17,1.033,1.033,0,0,1-.3-.447l-4.27-13.55-.042-.191a.4.4,0,0,1,.128-.3.5.5,0,0,1,.34-.128h2.761a.78.78,0,0,1,.531.17,1.025,1.025,0,0,1,.254.382l2.782,9.219c0,.056.035.084.107.084a.074.074,0,0,0,.084-.084l2.806-9.219a.709.709,0,0,1,.3-.413.869.869,0,0,1,.489-.139Z" fill="#fff"/>
        <path id="Path_103938" data-name="Path 103938" d="M548.476,3815.06a.533.533,0,0,1-.128-.319.542.542,0,0,1,.021-.191L553.3,3801a.848.848,0,0,1,.847-.615h3.293a.85.85,0,0,1,.849.615l4.929,13.55a.543.543,0,0,1,.021.191.471.471,0,0,1-.447.447h-2.74a.713.713,0,0,1-.722-.468l-1.1-2.994a12.462,12.462,0,0,1-1.551.489,13.873,13.873,0,0,1-1.518.286c-.489.063-.945.107-1.371.128s-.792.031-1.1.031h-.5a1.715,1.715,0,0,1-.31-.021.922.922,0,0,1,.626.426.868.868,0,0,1,.054.849l-.3.806a.716.716,0,0,1-.724.468h-2.738A.533.533,0,0,1,548.476,3815.06Zm5.395-5.437q.593-.042,1.231-.149a10.684,10.684,0,0,0,1.157-.244,5.217,5.217,0,0,0,1.158-.457l-1.635-4.672Z" fill="#fff"/>
      </g>
    </g>
    <g id="Rectangle_7551" data-name="Rectangle 7551" opacity="0">
      <rect id="Rectangle_7551-2" data-name="Rectangle 7551" width="400" height="405" transform="translate(180 389)" fill="#fff"/>
      <path id="Rectangle_7551_-_Outline" data-name="Rectangle 7551 - Outline" d="M1,1V404H399V1H1M0,0H400V405H0Z" transform="translate(180 389)" fill="#707070"/>
    </g>
  </g>
</svg>
