<svg xmlns="http://www.w3.org/2000/svg" width="59.271" height="50" viewBox="0 0 59.271 50">
  <path id="t1-ic1" d="M457.806,115.849q.646,0,1.293,0t1.283,0c.371,0,.7,0,1.007,0h.079a7,7,0,0,1,6.961,7.043c0,2.965,0,5.98,0,8.9v2.978a5.014,5.014,0,0,0,1.291,3.435l.008.009a5.128,5.128,0,0,0,3.333,1.642v1.991a5.085,5.085,0,0,0-3.137,1.438l-.01.01a5.014,5.014,0,0,0-1.482,3.493c-.005,2.2,0,4.43,0,6.592,0,1.831,0,3.725,0,5.588v.009a7,7,0,0,1-7.04,6.872c-.758,0-1.529,0-2.3,0l-1.252,0c-.98,0-1.732,0-2.438-.015l-.472-.007-.294-.369c-4.631-5.807-9.351-11.7-13.916-17.4-2.718-3.395-5.524-6.9-8.29-10.359-.008,8.2-.012,17.591.006,27.127l0,.975-.975.026c-.7.019-1.452.027-2.427.027q-.628,0-1.256,0l-1.249,0c-.392,0-.739,0-1.059,0h-.061a7,7,0,0,1-6.971-6.863v-.009c0-1.766,0-3.561,0-5.3,0-2.309,0-4.7-.009-7.044a5,5,0,0,0-4.585-4.777l-.052-1.992a5.233,5.233,0,0,0,3.151-1.448l.01-.01a4.96,4.96,0,0,0,1.483-3.494c0-2.5,0-5.046,0-7.508q0-2.258,0-4.516a7,7,0,0,1,7.039-7.036c.711,0,1.423,0,2.135,0l1.379,0c.989,0,1.751,0,2.472.016l.472.007.294.369c4.687,5.877,9.464,11.843,14.084,17.613,2.664,3.327,5.415,6.763,8.126,10.153v-.4c.007-8.76.015-17.819-.009-26.726l0-.97.969-.032C456.1,115.86,456.84,115.849,457.806,115.849Zm2.576,2.008q-.646,0-1.293,0t-1.283,0c-.515,0-.965,0-1.377.009.021,8.594.014,17.313.006,25.754l0,5.655-1.716-1.77a14.5,14.5,0,0,1-1-1.189c-.151-.193-.294-.376-.441-.554l-.011-.013c-2.836-3.547-5.722-7.151-8.513-10.637-4.523-5.649-9.2-11.487-13.791-17.246-.577-.006-1.2-.009-1.97-.009l-1.375,0c-.717,0-1.433,0-2.149,0h-.008a5,5,0,0,0-3.68,1.595l-.007.008a4.974,4.974,0,0,0-1.332,3.42v.01q0,2.259,0,4.519c0,2.463,0,5.01,0,7.515a6.974,6.974,0,0,1-2.076,4.91,6.623,6.623,0,0,1-1.308,1.018,7.266,7.266,0,0,1,1.429,1.157,6.787,6.787,0,0,1,1.949,4.609v.007c.013,2.354.011,4.746.009,7.059,0,1.732,0,3.523,0,5.285a5,5,0,0,0,1.522,3.477l.007.006a4.973,4.973,0,0,0,3.442,1.4h.043c.327,0,.679,0,1.077,0q.628,0,1.256,0t1.249,0c.523,0,.98,0,1.4-.008-.018-10.3-.011-20.393,0-28.951l0-2.542,1.73,1.862c.361.388.681.795.991,1.188.148.188.289.366.433.543l.008.01c2.893,3.619,5.837,7.3,8.684,10.852,4.468,5.581,9.085,11.348,13.623,17.036.564.006,1.181.009,1.936.009.833,0,1.667,0,2.5,0l1.062,0h.046a4.993,4.993,0,0,0,3.255-1.22l.008-.007a4.973,4.973,0,0,0,1.717-3.662c0-1.859,0-3.75,0-5.579,0-2.163,0-4.4,0-6.6a6.96,6.96,0,0,1,2.08-4.912,6.76,6.76,0,0,1,1.308-1.02,6.8,6.8,0,0,1-1.581-1.3,7.034,7.034,0,0,1-1.81-4.8v-2.953c0-2.917,0-5.934,0-8.9v-.007a5.032,5.032,0,0,0-1.1-3.156l-.006-.008a5.031,5.031,0,0,0-3.858-1.866h-.056C461.1,117.856,460.76,117.857,460.382,117.857Z" transform="translate(-413.789 -115.849)" fill="#ffa726"/>
</svg>
