<svg xmlns="http://www.w3.org/2000/svg" width="61" height="48.031" viewBox="0 0 61 48.031">
  <g id="t3-ic2" transform="translate(0 -54)">
    <path id="Path_103947" data-name="Path 103947" d="M31.941,96.028a1.2,1.2,0,0,0,1.2,1.2H55a1.2,1.2,0,0,0,1.2-1.2V86.421a1.2,1.2,0,0,0-1.2-1.2H33.142a1.2,1.2,0,0,0-1.2,1.2Zm2.4-8.406H53.8v7.2H34.342Zm-1.2-4.8H55a1.2,1.2,0,0,0,1.2-1.2V69.61a1.2,1.2,0,0,0-1.2-1.2H33.142a1.2,1.2,0,0,0-1.2,1.2V81.618A1.2,1.2,0,0,0,33.142,82.819Zm1.2-12.008H53.8v9.606H34.342ZM5.163,86.421a1.2,1.2,0,0,1,1.2-1.2h6.6a1.2,1.2,0,0,1,0,2.4h-6.6A1.2,1.2,0,0,1,5.163,86.421Zm19.213,4.8a1.2,1.2,0,0,1-1.2,1.2H9.726a1.2,1.2,0,1,1,0-2.4H23.175A1.2,1.2,0,0,1,24.376,91.224Zm-6.844,4.8a1.2,1.2,0,0,1-1.2,1.2H6.364a1.2,1.2,0,1,1,0-2.4h9.967A1.2,1.2,0,0,1,17.531,96.028ZM11.982,79.373l3.343-8.406a1.2,1.2,0,0,1,2.232.888l-3.343,8.406a1.2,1.2,0,0,1-2.232-.888Zm8.224-.561L22.1,75.55l-1.879-3.116a1.2,1.2,0,1,1,2.057-1.24l2.245,3.724a1.2,1.2,0,0,1,.011,1.222l-2.245,3.876a1.2,1.2,0,1,1-2.078-1.2ZM5.02,74.918l2.245-3.724a1.2,1.2,0,1,1,2.057,1.24L7.443,75.55l1.889,3.262a1.2,1.2,0,0,1-2.078,1.2L5.009,76.14A1.2,1.2,0,0,1,5.02,74.918ZM7.2,60A1.2,1.2,0,1,1,6,58.8,1.2,1.2,0,0,1,7.2,60Zm5.4,0a1.2,1.2,0,1,1-1.2-1.2A1.2,1.2,0,0,1,12.608,60Zm5.4,0a1.2,1.2,0,1,1-1.2-1.2A1.2,1.2,0,0,1,18.012,60Zm20.611,42.028a1.23,1.23,0,0,0,1.241-1.118,1.2,1.2,0,0,0-1.2-1.284H29.539V66.008H58.6V99.63H49.515a1.23,1.23,0,0,0-1.241,1.117,1.2,1.2,0,0,0,1.2,1.284H59.8a1.2,1.2,0,0,0,1.2-1.2V57.6A3.6,3.6,0,0,0,57.4,54H3.6A3.6,3.6,0,0,0,0,57.6v43.228a1.2,1.2,0,0,0,1.2,1.2ZM2.4,57.6a1.2,1.2,0,0,1,1.2-1.2H57.4a1.2,1.2,0,0,1,1.2,1.2v6H2.4ZM27.138,99.63H2.4V66.008H27.138Zm18.132,1.2a1.2,1.2,0,1,1-1.2-1.2A1.2,1.2,0,0,1,45.27,100.831Z" fill="#ffa726"/>
  </g>
</svg>
