<svg xmlns="http://www.w3.org/2000/svg" width="190" height="90" viewBox="0 0 190 90">
  <g id="t3-ic3" transform="translate(-180 -2762)">
    <rect id="Rectangle_5636" data-name="Rectangle 5636" width="190" height="47" rx="11" transform="translate(180 2805)" fill="#ffefd7"/>
    <g id="Group_59698" data-name="Group 59698" transform="translate(3647.569 12167)">
      <path id="Path_103948" data-name="Path 103948" d="M297.31,44.789H264.238a4.981,4.981,0,0,0-4.981,4.981V68.477a4.981,4.981,0,0,0,4.981,4.981H276l-1.9,7.675a1.089,1.089,0,0,0,1.72,1.125l11.455-8.8H297.31a4.981,4.981,0,0,0,4.981-4.981V49.77a4.982,4.982,0,0,0-4.982-4.981Zm0,0" transform="translate(-3631.253 -9441.916)" fill="#039be5"/>
      <path id="Path_103949" data-name="Path 103949" d="M345.012,209.621l-1.47,5.936a1.089,1.089,0,0,0,1.72,1.125l11.455-8.8h-9.442Zm0,0" transform="translate(-3700.694 -9576.341)" fill="#03abfc"/>
      <path id="Path_103950" data-name="Path 103950" d="M431.461,44.789h-9.442A4.981,4.981,0,0,1,427,49.77V68.477a4.981,4.981,0,0,1-4.981,4.981h9.442a4.98,4.98,0,0,0,4.981-4.981V49.77A4.981,4.981,0,0,0,431.461,44.789Zm0,0" transform="translate(-3765.405 -9441.916)" fill="#03abfc"/>
      <path id="Path_103951" data-name="Path 103951" d="M76.965,260.536c-.248-4.227-2.931-7.671-6.925-9.542-4.888-2.289-18.2-5.751-18.2-5.751a2.716,2.716,0,0,1-2.22-2.67v-7.609H35.148v7.609a2.716,2.716,0,0,1-2.219,2.67s-13.312,3.463-18.2,5.751c-3.994,1.87-6.677,5.315-6.925,9.542l-.3,18.142a3.622,3.622,0,0,0,3.621,3.665h62.52a3.623,3.623,0,0,0,3.622-3.665Zm0,0" transform="translate(-3423.752 -9598.662)" fill="#fcc18b"/>
      <path id="Path_103952" data-name="Path 103952" d="M230.178,260.536c-.248-4.227-2.931-7.671-6.925-9.542-4.888-2.289-18.2-5.751-18.2-5.751a2.716,2.716,0,0,1-2.22-2.67v-7.609h-9.442v12.174a2.714,2.714,0,0,0,2.219,2.669s13.313,3.463,18.2,5.752c3.994,1.87,6.677,5.315,6.925,9.541l.286,17.244h5.835a3.623,3.623,0,0,0,3.622-3.665Zm0,0" transform="translate(-3576.965 -9598.662)" fill="#eaab65"/>
      <path id="Path_103953" data-name="Path 103953" d="M97.877,125.367h-1.9a2.935,2.935,0,0,0-2.892,3.535l.746,4.108c.579,3.045,4.051,1.653,4.051,1.653Zm0,0" transform="translate(-3494.249 -9508.33)" fill="#eaab65"/>
      <path id="Path_103954" data-name="Path 103954" d="M291.27,125.367h1.9a2.935,2.935,0,0,1,2.892,3.535l-.746,4.108c-.579,3.045-4.051,1.653-4.051,1.653Zm0,0" transform="translate(-3657.635 -9508.33)" fill="#fcc18b"/>
      <path id="Path_103955" data-name="Path 103955" d="M144.314,16.228a14.962,14.962,0,0,0-21.062,0,15.93,15.93,0,0,0-4.858,11.706l0,15.57c0,7.361,9.567,14.983,15.385,14.983s15.385-7.622,15.385-14.983l0-15.57a15.934,15.934,0,0,0-4.859-11.706Zm0,0" transform="translate(-3515.152 -9414.804)" fill="#fcc18b"/>
      <path id="Path_103956" data-name="Path 103956" d="M194.334,16.228a15.541,15.541,0,0,0-10.53-4.333,15.115,15.115,0,0,0-4.721.8,16.358,16.358,0,0,1,5.81,3.531,15.93,15.93,0,0,1,4.858,11.706l0,15.57c0,5.569-5.477,11.288-10.664,13.742a11.445,11.445,0,0,0,4.721,1.241c5.818,0,15.385-7.622,15.385-14.983l0-15.57a15.93,15.93,0,0,0-4.858-11.706Zm0,0" transform="translate(-3565.172 -9414.804)" fill="#eaab65"/>
      <path id="Path_103957" data-name="Path 103957" d="M129.231,7.5h-19.04a8.87,8.87,0,0,0-8.87,8.87V28.61a6.123,6.123,0,0,1,4.012,1.5.519.519,0,0,0,.882-.373V20.143a3.921,3.921,0,0,1,3.921-3.921H113.7a4.046,4.046,0,0,1,2.563.915l.35.286a4.9,4.9,0,0,0,6.2,0l.35-.286a4.046,4.046,0,0,1,2.563-.915h3.562a3.921,3.921,0,0,1,3.921,3.921v9.593a.52.52,0,0,0,.882.373,6.121,6.121,0,0,1,4.012-1.5V16.371a8.871,8.871,0,0,0-8.87-8.871Zm0,0" transform="translate(-3501.08 -9411.182)" fill="#ffca28"/>
      <path id="Path_103958" data-name="Path 103958" d="M244.657,7.5h-3.293c1.657,1.951,2.7,4.881,2.723,8.722h.626a3.921,3.921,0,0,1,3.921,3.921v9.593a.52.52,0,0,0,.882.373,6.122,6.122,0,0,1,4.012-1.5V16.371a8.871,8.871,0,0,0-8.87-8.871Zm0,0" transform="translate(-3616.505 -9411.182)" fill="#ffa726"/>
      <path id="Path_103959" data-name="Path 103959" d="M70.04,306.118a107.624,107.624,0,0,0-12.808-4.274l-.923.35a39.318,39.318,0,0,1-27.851,0l-.923-.35a107.625,107.625,0,0,0-12.808,4.274c-3.994,1.87-6.677,5.315-6.925,9.542L7.5,333.8a3.622,3.622,0,0,0,3.621,3.665h62.52a3.623,3.623,0,0,0,3.622-3.665l-.3-18.142c-.248-4.227-2.931-7.671-6.925-9.542Zm0,0" transform="translate(-3423.752 -9653.785)" fill="#4dd0e1"/>
      <path id="Path_103960" data-name="Path 103960" d="M100.075,332.921H55.021a2.612,2.612,0,0,1-2.605-2.426l-1.842-25.853a2.612,2.612,0,0,1,2.605-2.8h48.739a2.612,2.612,0,0,1,2.605,2.8L102.68,330.5a2.611,2.611,0,0,1-2.605,2.426Zm0,0" transform="translate(-3459.247 -9653.785)" fill="#f2f2f2"/>
      <path id="Path_103961" data-name="Path 103961" d="M298.1,301.844h-9.511a2.612,2.612,0,0,1,2.605,2.8l-2.015,28.279h7.079a2.611,2.611,0,0,0,2.605-2.426l1.843-25.853a2.612,2.612,0,0,0-2.605-2.8Zm0,0" transform="translate(-3655.426 -9653.785)" fill="#cdd6df"/>
      <path id="Path_103962" data-name="Path 103962" d="M101.483,483.183H50.628a2.273,2.273,0,0,1,0-4.546h50.855a2.273,2.273,0,0,1,0,4.546Zm0,0" transform="translate(-3457.424 -9799.501)" fill="#cdd6df"/>
      <path id="Path_103963" data-name="Path 103963" d="M192.518,379.115a3.638,3.638,0,1,1-3.638-3.638A3.638,3.638,0,0,1,192.518,379.115Zm0,0" transform="translate(-3570.249 -9714.475)" fill="#fff"/>
      <path id="Path_103967" data-name="Path 103967" d="M83.626,6.555H55.24A10.207,10.207,0,0,0,45.721,0H26.681A10.2,10.2,0,0,0,16.493,10.188V21.758a4.3,4.3,0,0,0-1.384,4.05l.748,4.119a3.587,3.587,0,0,0,1.6,2.5,3.876,3.876,0,0,0,2.039.54V33.7c0,3.713,2.166,7.806,5.944,11.229a24.267,24.267,0,0,0,2.2,1.775v2.208A1.4,1.4,0,0,1,26.5,50.285c-.031.005-.061.012-.091.02s-2.286.6-5.245,1.435H11.5a3.93,3.93,0,0,0-3.92,4.21l.026.372A12.622,12.622,0,0,0,.3,66.8l0,.056L0,85a4.939,4.939,0,0,0,4.94,5h62.52a4.94,4.94,0,0,0,4.94-5.006l-.3-18.142c0-.019,0-.037,0-.056a12.686,12.686,0,0,0-7.682-10.658l-.26-.119,0-.069a3.93,3.93,0,0,0-3.92-4.21H51.234c-2.958-.839-5.222-1.429-5.245-1.434s-.06-.015-.091-.021a1.4,1.4,0,0,1-1.142-1.373V46.7a24.393,24.393,0,0,0,2.2-1.776,19.259,19.259,0,0,0,5.107-7.068h8.566l-1.5,6.039a2.38,2.38,0,0,0,1.018,2.593,2.378,2.378,0,0,0,2.784-.105l11.1-8.527h9.586a6.306,6.306,0,0,0,6.3-6.3V12.854a6.306,6.306,0,0,0-6.3-6.3ZM52.907,24.035a5.688,5.688,0,0,1,1.292-.271,1.7,1.7,0,0,1,.5,1.571l-.744,4.1c-.108.572-.328.708-.4.753a1.286,1.286,0,0,1-.65.146ZM19.13,10.188a7.561,7.561,0,0,1,7.552-7.552h19.04a7.561,7.561,0,0,1,7.552,7.552V21.235a7.673,7.673,0,0,0-2.258.759V13.961a5.245,5.245,0,0,0-5.239-5.239H42.213a5.385,5.385,0,0,0-3.4,1.212l-.349.286a3.579,3.579,0,0,1-4.53,0l-.35-.286a5.384,5.384,0,0,0-3.4-1.212H26.626a5.245,5.245,0,0,0-5.239,5.239v8.032a7.669,7.669,0,0,0-2.258-.759Zm-.282,20c-.072-.045-.292-.181-.4-.742L17.7,25.337a1.7,1.7,0,0,1,.5-1.571,5.69,5.69,0,0,1,1.294.269v6.3a1.29,1.29,0,0,1-.65-.146ZM7.183,86.408a3.591,3.591,0,0,0,.129.955H4.941a2.3,2.3,0,0,1-2.3-2.326l.3-18.113a9.677,9.677,0,0,1,4.877-7.7L9.424,81.8a3.9,3.9,0,0,0,.273,1.18,3.6,3.6,0,0,0-2.514,3.426ZM62.318,81.8l1.636-22.947a9.816,9.816,0,0,1,5.512,8.069l.3,18.108a2.3,2.3,0,0,1-2.3,2.331h-2.37A3.592,3.592,0,0,0,62.1,82.848a3.88,3.88,0,0,0,.22-1.045Zm.266,4.605a.956.956,0,0,1-.954.955H10.774a.955.955,0,0,1,0-1.91H61.629A.956.956,0,0,1,62.583,86.408Zm-1.4-31.619a1.28,1.28,0,0,1,.343.974L59.688,81.616a1.3,1.3,0,0,1-1.29,1.2H13.344a1.3,1.3,0,0,1-1.29-1.2L10.211,55.763a1.293,1.293,0,0,1,1.29-1.386H60.24a1.282,1.282,0,0,1,.947.412ZM43.277,51.74H29.125a4.028,4.028,0,0,0,1.158-2.828v-.59A13.363,13.363,0,0,0,36.2,50a13.368,13.368,0,0,0,5.918-1.68v.59a4.028,4.028,0,0,0,1.158,2.828Zm1.912-8.766c-2.944,2.667-6.472,4.39-8.989,4.39s-6.045-1.723-8.988-4.39c-3.227-2.923-5.078-6.3-5.078-9.275l0-8.306h.051a1.843,1.843,0,0,0,1.84-1.841V13.961a2.605,2.605,0,0,1,2.6-2.6h3.563a2.738,2.738,0,0,1,1.728.617l.35.286a6.215,6.215,0,0,0,7.867,0l.35-.286a2.739,2.739,0,0,1,1.729-.617h3.562a2.606,2.606,0,0,1,2.6,2.6v9.592a1.843,1.843,0,0,0,1.891,1.84l0,8.306c0,2.97-1.851,6.351-5.078,9.275Zm42.1-11.413a3.666,3.666,0,0,1-3.663,3.663H73.593a1.316,1.316,0,0,0-.8.273L61.855,43.9,63.6,36.859a1.318,1.318,0,0,0-1.279-1.636H52.787A10.187,10.187,0,0,0,52.9,33.7v-.732a3.875,3.875,0,0,0,2.038-.54,3.591,3.591,0,0,0,1.6-2.512l.746-4.108a4.3,4.3,0,0,0-1.384-4.05V10.189c0-.336-.016-.669-.049-1H83.626a3.666,3.666,0,0,1,3.663,3.663Zm0,0" transform="translate(-3417.57 -9405)" fill="#12263f"/>
      <path id="Path_103968" data-name="Path 103968" d="M182.7,377.889a4.956,4.956,0,1,0-4.956-4.956A4.962,4.962,0,0,0,182.7,377.889Zm0-7.276a2.319,2.319,0,1,1-2.319,2.32A2.322,2.322,0,0,1,182.7,370.613Zm0,0" transform="translate(-3564.068 -9708.293)" fill="#12263f"/>
      <path id="Path_102967" data-name="Path 102967" d="M416.042,117.426a1.8,1.8,0,0,1,1.329-.576c.6,0,1.2-.005,1.794,0q3.384,4.244,6.781,8.477c.139.168.265.348.417.505q0-4.489,0-8.978c.6-.02,1.195,0,1.792-.009a1.8,1.8,0,0,1,1.809,1.812q0,1.779,0,3.559a1.807,1.807,0,0,0,.466,1.238,1.838,1.838,0,0,0,1.2.592,1.835,1.835,0,0,0-1.126.519,1.8,1.8,0,0,0-.535,1.261c0,1.219,0,2.437,0,3.656a1.8,1.8,0,0,1-1.81,1.765c-.6,0-1.2,0-1.794,0q-3.385-4.244-6.782-8.479c-.138-.169-.266-.345-.415-.505q0,4.491,0,8.981c-.6.016-1.195,0-1.792.008a1.8,1.8,0,0,1-1.807-1.763c0-1.235,0-2.47,0-3.7a1.809,1.809,0,0,0-1.658-1.73,1.874,1.874,0,0,0,1.125-.521,1.8,1.8,0,0,0,.535-1.261c0-1.2,0-2.407,0-3.611A1.8,1.8,0,0,1,416.042,117.426Z" transform="translate(-3770.911 -9506.843)" fill="#fff"/>
    </g>
  </g>
</svg>
