<svg xmlns="http://www.w3.org/2000/svg" width="190" height="90" viewBox="0 0 190 90">
  <g id="t4-i1" transform="translate(-180 -404)">
    <rect id="Rectangle_7518" data-name="Rectangle 7518" width="190" height="47" rx="11" transform="translate(180 447)" fill="#ffefd7"/>
    <g id="ux" transform="translate(229.819 404)">
      <path id="Path_103975" data-name="Path 103975" d="M183.068,87.127H137.812a4.3,4.3,0,0,1-4.3-4.3V11.8a4.3,4.3,0,0,1,4.3-4.3h45.257a4.3,4.3,0,0,1,4.3,4.3V82.827A4.3,4.3,0,0,1,183.068,87.127Zm0,0" transform="translate(-109.632 -6.182)" fill="#039be5"/>
      <path id="Path_103976" data-name="Path 103976" d="M375.665,7.5h-8.481a4.3,4.3,0,0,1,4.3,4.3V82.827a4.3,4.3,0,0,1-4.3,4.3h8.481a4.3,4.3,0,0,0,4.3-4.3V11.8a4.3,4.3,0,0,0-4.3-4.3Zm0,0" transform="translate(-302.229 -6.181)" fill="#026da1"/>
      <path id="Path_103977" data-name="Path 103977" d="M133.512,59.281h53.856v61.56H133.512Zm0,0" transform="translate(-109.632 -48.861)" fill="#f2f2f2"/>
      <path id="Path_103978" data-name="Path 103978" d="M391.645,59.281h8.481v61.56h-8.481Zm0,0" transform="translate(-322.39 -48.861)" fill="#cdd6df"/>
      <path id="Path_103979" data-name="Path 103979" d="M52.715,151.49H12.275A4.275,4.275,0,0,1,8,147.214V119.083a4.275,4.275,0,0,1,4.275-4.275H52.715a4.275,4.275,0,0,1,4.275,4.275v28.131A4.275,4.275,0,0,1,52.715,151.49Zm0,0" transform="translate(-6.182 -94.627)" fill="#7ce5f2"/>
      <path id="Path_103980" data-name="Path 103980" d="M238.194,114.809h-5.159V151.49h5.159a4.275,4.275,0,0,0,4.275-4.275V119.084a4.275,4.275,0,0,0-4.275-4.275Zm0,0" transform="translate(-191.661 -94.628)" fill="#4dd0e1"/>
      <path id="Path_103981" data-name="Path 103981" d="M52.457,202.835l6.489-4.244a.641.641,0,0,1,.37-.1,1.3,1.3,0,0,1,1.184,1.234.865.865,0,0,1-.37.715l-5.181,3.405,5.181,3.405a.8.8,0,0,1,.37.715,1.276,1.276,0,0,1-1.184,1.208.646.646,0,0,1-.37-.1l-6.489-4.244a1.236,1.236,0,0,1-.543-.987,1.279,1.279,0,0,1,.543-1.011Zm0,0" transform="translate(-42.377 -163.601)" fill="#12263f"/>
      <path id="Path_103982" data-name="Path 103982" d="M127.548,160.691a.722.722,0,0,1-.1.395l-9.055,18.061a.894.894,0,0,1-.814.468.954.954,0,0,1-.963-.913.988.988,0,0,1,.074-.37l9.079-18.135a.751.751,0,0,1,.74-.444A1.007,1.007,0,0,1,127.548,160.691Zm0,0" transform="translate(-95.707 -131.672)" fill="#12263f"/>
      <path id="Path_103983" data-name="Path 103983" d="M202.675,204.836l-6.489,4.244a.565.565,0,0,1-.345.1,1.257,1.257,0,0,1-1.184-1.209.844.844,0,0,1,.345-.715l5.206-3.405-5.206-3.4a.914.914,0,0,1-.345-.715,1.281,1.281,0,0,1,1.184-1.234.565.565,0,0,1,.345.1l6.489,4.243a1.28,1.28,0,0,1,.542,1.012A1.173,1.173,0,0,1,202.675,204.836Zm0,0" transform="translate(-160.028 -163.604)" fill="#12263f"/>
      <path id="Path_103984" data-name="Path 103984" d="M322.349,343.928a2.361,2.361,0,0,1-2.359-2.359v-.751a.817.817,0,0,0-.582-.789,13.552,13.552,0,0,1-2.8-1.145.788.788,0,0,0-.378-.1.831.831,0,0,0-.584.243l-.524.524a2.358,2.358,0,0,1-3.336,0l-1.282-1.281a2.359,2.359,0,0,1,0-3.336l.524-.524a.815.815,0,0,0,.146-.962,13.637,13.637,0,0,1-1.145-2.8.816.816,0,0,0-.788-.582h-.752a2.361,2.361,0,0,1-2.359-2.359V325.9a2.361,2.361,0,0,1,2.359-2.359h.816a.826.826,0,0,0,.791-.573,13.544,13.544,0,0,1,1.156-2.709.817.817,0,0,0-.139-.974l-.608-.608a2.359,2.359,0,0,1,0-3.336l1.282-1.282a2.359,2.359,0,0,1,3.336,0l.677.678a.832.832,0,0,0,.583.242.786.786,0,0,0,.374-.093,13.577,13.577,0,0,1,2.646-1.065.817.817,0,0,0,.586-.787v-.99a2.361,2.361,0,0,1,2.359-2.359h1.813a2.361,2.361,0,0,1,2.359,2.359V313.1a.818.818,0,0,0,.571.782,13.624,13.624,0,0,1,2.567,1.076.8.8,0,0,0,.387.1.82.82,0,0,0,.582-.241l.759-.759a2.359,2.359,0,0,1,3.336,0L336,315.339a2.363,2.363,0,0,1,0,3.336l-.759.759a.82.82,0,0,0-.143.968,13.545,13.545,0,0,1,1.076,2.566.82.82,0,0,0,.783.572h1.059a2.361,2.361,0,0,1,2.359,2.359v1.812a2.361,2.361,0,0,1-2.359,2.359h-.99a.817.817,0,0,0-.787.585,13.6,13.6,0,0,1-1.065,2.647.819.819,0,0,0,.15.956l.677.678a2.359,2.359,0,0,1,0,3.336l-1.282,1.281a2.357,2.357,0,0,1-3.336,0l-.608-.608a.821.821,0,0,0-.583-.242.8.8,0,0,0-.392.1,13.6,13.6,0,0,1-2.709,1.156.826.826,0,0,0-.574.791v.815a2.361,2.361,0,0,1-2.359,2.359Zm.906-22.667a5.545,5.545,0,1,0,5.544,5.545A5.551,5.551,0,0,0,323.255,321.262Zm0,0" transform="translate(-251.909 -255.247)" fill="#ffca28"/>
      <path id="Path_103985" data-name="Path 103985" d="M52.127,141.033V112.9a5.6,5.6,0,0,0-5.593-5.593H6.093A5.6,5.6,0,0,0,.5,112.9v28.131a5.6,5.6,0,0,0,5.593,5.593H46.533A5.6,5.6,0,0,0,52.127,141.033Zm-48.991,0V112.9a2.96,2.96,0,0,1,2.957-2.957H46.533A2.96,2.96,0,0,1,49.49,112.9v28.131a2.96,2.96,0,0,1-2.957,2.957H6.093a2.96,2.96,0,0,1-2.957-2.957Zm0,0" transform="translate(0 -88.446)" fill="#12263f"/>
      <path id="Path_103986" data-name="Path 103986" d="M371.359,368.055a6.87,6.87,0,0,0-6.863,6.862q0,.147.006.292c0,.043-.006.085-.006.129a1.332,1.332,0,0,0,.041.325,6.863,6.863,0,1,0,6.822-7.609Zm0,2.637a4.234,4.234,0,0,1,4.13,3.329h-8.26A4.233,4.233,0,0,1,371.359,370.692Zm0,8.452a4.233,4.233,0,0,1-3.851-2.487h7.7a4.231,4.231,0,0,1-3.851,2.487Zm0,0" transform="translate(-300.013 -303.358)" fill="#12263f"/>
      <path id="Path_103987" data-name="Path 103987" d="M189.558,66.976h-.695a14.929,14.929,0,0,0-.887-2.116l.5-.5a3.68,3.68,0,0,0,0-5.2l-1.281-1.281a3.679,3.679,0,0,0-4.69-.427V5.618A5.625,5.625,0,0,0,176.886,0H131.629a5.625,5.625,0,0,0-5.618,5.618v9.29a1.318,1.318,0,1,0,2.637,0v-3.17h51.219V57.663q-.243-.091-.489-.172V56.8a3.681,3.681,0,0,0-3.677-3.678h-1.813a3.681,3.681,0,0,0-3.677,3.678v.619a14.864,14.864,0,0,0-2.195.884l-.42-.42a3.677,3.677,0,0,0-5.2,0l-1.281,1.281a3.678,3.678,0,0,0,0,5.2l.345.345a14.878,14.878,0,0,0-.968,2.27h-.46a3.681,3.681,0,0,0-3.677,3.677v.009H128.648V62.136a1.318,1.318,0,0,0-2.637,0V76.645a5.624,5.624,0,0,0,5.618,5.618h28.52a3.652,3.652,0,0,0,.965,1.694L162.4,85.24a3.677,3.677,0,0,0,5.2,0l.264-.264a14.922,14.922,0,0,0,2.351.963v.384A3.682,3.682,0,0,0,173.889,90H175.7a3.682,3.682,0,0,0,3.677-3.678v-.459a14.918,14.918,0,0,0,2.27-.968l.345.345a3.677,3.677,0,0,0,5.2,0l1.281-1.281a3.677,3.677,0,0,0,0-5.2l-.421-.421a14.824,14.824,0,0,0,.884-2.194h.62a3.682,3.682,0,0,0,3.678-3.677V70.653a3.682,3.682,0,0,0-3.678-3.677ZM128.648,9.1V5.618a2.984,2.984,0,0,1,2.981-2.981h45.257a2.985,2.985,0,0,1,2.981,2.981V9.1Zm0,67.544V73.3h27.8a3.683,3.683,0,0,0,3.582,2.844h.385a14.857,14.857,0,0,0,.963,2.351l-.264.264a3.7,3.7,0,0,0-.647.869H131.629a2.984,2.984,0,0,1-2.981-2.981Zm61.951-4.18a1.041,1.041,0,0,1-1.041,1.04h-.99a2.14,2.14,0,0,0-2.054,1.543,12.259,12.259,0,0,1-.962,2.39,2.149,2.149,0,0,0,.382,2.506l.677.677a1.042,1.042,0,0,1,0,1.472l-1.281,1.281a1.041,1.041,0,0,1-1.472,0l-.608-.608a2.133,2.133,0,0,0-2.552-.356,12.209,12.209,0,0,1-2.446,1.044,2.153,2.153,0,0,0-1.509,2.052v.816a1.042,1.042,0,0,1-1.041,1.041h-1.812a1.042,1.042,0,0,1-1.041-1.041v-.752a2.138,2.138,0,0,0-1.54-2.056,12.282,12.282,0,0,1-2.526-1.034,2.105,2.105,0,0,0-1.009-.257,2.16,2.16,0,0,0-1.516.629l-.524.523a1.041,1.041,0,0,1-1.471,0l-1.282-1.282a1.02,1.02,0,0,1-.3-.735,1.226,1.226,0,0,1,.008-.134,1.008,1.008,0,0,0,.018-.1,1.025,1.025,0,0,1,.279-.5l.524-.524a2.142,2.142,0,0,0,.371-2.526,12.306,12.306,0,0,1-1.033-2.525,2.14,2.14,0,0,0-2.057-1.541h-.751a1.042,1.042,0,0,1-1.041-1.041V70.654a1.042,1.042,0,0,1,1.041-1.041h.815A2.153,2.153,0,0,0,162.9,68.1a12.225,12.225,0,0,1,1.044-2.445,2.142,2.142,0,0,0-.356-2.554l-.608-.608a1.042,1.042,0,0,1,0-1.471l1.282-1.281a1.04,1.04,0,0,1,1.471,0l.678.677a2.158,2.158,0,0,0,1.515.628,2.094,2.094,0,0,0,.992-.246,12.278,12.278,0,0,1,2.389-.962,2.14,2.14,0,0,0,1.544-2.054V56.8a1.041,1.041,0,0,1,1.04-1.041H175.7a1.041,1.041,0,0,1,1.04,1.041v1.059a2.147,2.147,0,0,0,1.507,2.044,12.222,12.222,0,0,1,2.278.95l.067.036a2.133,2.133,0,0,0,2.5-.382l.759-.759a1.041,1.041,0,0,1,1.472,0l1.281,1.281a1.044,1.044,0,0,1,0,1.471l-.759.76a2.146,2.146,0,0,0-.367,2.532,12.265,12.265,0,0,1,.971,2.316,2.147,2.147,0,0,0,2.044,1.508h1.059a1.042,1.042,0,0,1,1.041,1.04Zm0,0" transform="translate(-103.449)" fill="#12263f"/>
    </g>
  </g>
</svg>
