<svg xmlns="http://www.w3.org/2000/svg" width="30.543" height="50" viewBox="0 0 30.543 50">
  <g id="t4-ic2" transform="translate(-108)">
    <path id="Path_103974" data-name="Path 103974" d="M124.255,49.016a.984.984,0,1,1-.984-.984A.985.985,0,0,1,124.255,49.016Zm-9.842-5.906V40.945a2.956,2.956,0,0,1,2.953-2.953h11.811a2.956,2.956,0,0,1,2.953,2.953V43.11a2.956,2.956,0,0,1-2.953,2.953H117.366A2.956,2.956,0,0,1,114.413,43.11Zm1.969,0a.985.985,0,0,0,.984.984h11.811a.985.985,0,0,0,.984-.984V40.945a.985.985,0,0,0-.984-.984H117.366a.985.985,0,0,0-.984.984ZM130.161,31.1a.984.984,0,0,0-.984-.984H117.366a.984.984,0,1,0,0,1.969h11.811A.984.984,0,0,0,130.161,31.1Zm-12.8,2.953a.984.984,0,1,0,0,1.969h7.382a.984.984,0,1,0,0-1.969Zm11.319-5.906H117.858a4.927,4.927,0,0,1-4.921-4.921V12.8a4.927,4.927,0,0,1,4.921-4.921h10.827a4.927,4.927,0,0,1,4.921,4.921V23.228A4.927,4.927,0,0,1,128.685,28.15ZM125.732,12.8a2.953,2.953,0,1,0,2.953-2.953A2.956,2.956,0,0,0,125.732,12.8Zm-10.827,0v4.8l.78-.729a4.934,4.934,0,0,1,6.724,0l8.654,8.1a2.937,2.937,0,0,0,.574-1.747v-6.5a4.919,4.919,0,0,1-6.887-6.887h-6.892A2.956,2.956,0,0,0,114.906,12.8Zm13.78,13.386a2.946,2.946,0,0,0,.7-.084l-8.317-7.788a2.96,2.96,0,0,0-4.035,0l-2.124,1.986v2.935a2.956,2.956,0,0,0,2.953,2.953ZM111.937,50A3.937,3.937,0,0,1,108,46.063V3.937A3.937,3.937,0,0,1,111.937,0h22.669a3.937,3.937,0,0,1,3.937,3.937V46.063A3.937,3.937,0,0,1,134.606,50H127.7a.986.986,0,0,1-.982-1.053,1.008,1.008,0,0,1,1.017-.916h6.871a1.976,1.976,0,0,0,1.969-1.969V3.937a1.968,1.968,0,0,0-1.969-1.969h-3.029a1.633,1.633,0,0,0-1.544,1.223,3.6,3.6,0,0,1-3.5,2.714h-6.533a3.6,3.6,0,0,1-3.5-2.714,1.633,1.633,0,0,0-1.544-1.223h-3.029a1.968,1.968,0,0,0-1.969,1.969V46.063a1.976,1.976,0,0,0,1.969,1.969h6.87a1.008,1.008,0,0,1,1.017.916A.985.985,0,0,1,118.842,50ZM128.4,1.969H118.14a3.543,3.543,0,0,1,.279.743,1.629,1.629,0,0,0,1.586,1.226h6.533a1.629,1.629,0,0,0,1.586-1.226A3.552,3.552,0,0,1,128.4,1.969Z" fill="#ffa726"/>
  </g>
</svg>
