<svg xmlns="http://www.w3.org/2000/svg" width="117.555" height="127.298" viewBox="0 0 117.555 127.298">
  <g id="t1-i1" transform="translate(-413.9 -116.849)">
    <path id="Path_102967" data-name="Path 102967" d="M428.105,120.676a11.928,11.928,0,0,1,8.813-3.818c3.966.013,7.934-.035,11.9.025q22.447,28.149,44.975,56.226c.923,1.115,1.758,2.309,2.769,3.351q.024-29.775-.013-59.546c3.959-.132,7.925-.019,11.887-.06a11.938,11.938,0,0,1,12,12.016q-.009,11.8,0,23.607a11.985,11.985,0,0,0,3.09,8.211,12.189,12.189,0,0,0,7.934,3.925,12.168,12.168,0,0,0-7.468,3.44,11.911,11.911,0,0,0-3.55,8.366c-.019,8.082,0,16.165-.009,24.247a11.939,11.939,0,0,1-12,11.708c-3.966-.019-7.934.031-11.9-.028q-22.451-28.149-44.982-56.239c-.917-1.118-1.767-2.29-2.753-3.351q-.033,29.784.006,59.568c-3.962.107-7.925.016-11.887.05a11.937,11.937,0,0,1-11.988-11.692c-.022-8.193.022-16.382-.022-24.571a12,12,0,0,0-11-11.478,12.426,12.426,0,0,0,7.465-3.458,11.927,11.927,0,0,0,3.547-8.366c.016-7.982,0-15.966,0-23.948A11.918,11.918,0,0,1,428.105,120.676Z" transform="translate(0)" fill="#3c5afd"/>
    <path id="Path_102968" data-name="Path 102968" d="M608.118,464.166a6.72,6.72,0,0,1,6.328-.772,4.341,4.341,0,0,1,2.759,3.537c-.665.044-1.326.066-1.987.082a2.785,2.785,0,0,0-2.914-2.047c-1.238-.06-2.964.107-3.411,1.49-.365.835.356,1.616,1.083,1.918,2,.866,4.369.759,6.2,2.054a3.579,3.579,0,0,1,.74,5.052,5.662,5.662,0,0,1-4.312,1.965,6.356,6.356,0,0,1-5.175-1.764,5.038,5.038,0,0,1-1.011-2.485c.655-.009,1.313-.009,1.972-.006.4,2.262,3.178,2.51,5.008,2.158.986-.211,2.164-.844,2.227-1.972a1.654,1.654,0,0,0-1.112-1.663c-2.117-.923-4.677-.731-6.542-2.233A3.511,3.511,0,0,1,608.118,464.166Z" transform="translate(-131.881 -237.087)" fill="#3c5afd"/>
    <path id="Path_102969" data-name="Path 102969" d="M448.655,463.989l2.006-.009q3.761,5.24,7.525,10.473c.057-3.49.009-6.977.025-10.467.665,0,1.329,0,2,0q0,6.926,0,13.856-1,0-2,.009-3.766-5.23-7.528-10.467c-.06,3.487-.009,6.974-.025,10.46-.668,0-1.336,0-2,0Q448.65,470.914,448.655,463.989Z" transform="translate(-23.806 -237.793)" fill="#3c5afd"/>
    <path id="Path_102970" data-name="Path 102970" d="M519.2,464.339q.992-.194,1.987-.368c0,1.25.006,2.5-.013,3.758.671.022,1.342.044,2.013.082-.035.655-.057,1.31-.088,1.969q-.959-.019-1.912-.028c.054,1.591-.113,3.2.088,4.785.2.885,1.121,1.184,1.871,1.465,0,.614.006,1.232.013,1.849a3.9,3.9,0,0,1-3.921-3.424c-.12-1.559,0-3.121-.066-4.681l-1.729.019c0-.668,0-1.336,0-2,.58,0,1.165,0,1.748,0C519.192,466.619,519.192,465.479,519.2,464.339Z" transform="translate(-70.931 -237.786)" fill="#3c5afd"/>
    <path id="Path_102971" data-name="Path 102971" d="M539,464c.665,0,1.332,0,2,0q0,1-.006,2H539C538.994,465.326,539,464.662,539,464Z" transform="translate(-85.693 -237.804)" fill="#3c5afd"/>
    <path id="Path_102972" data-name="Path 102972" d="M693.995,464c.665,0,1.329,0,2,0v1.994q-1,0-2,.006Q693.99,465,693.995,464Z" transform="translate(-191.87 -237.804)" fill="#3c5afd"/>
    <path id="Path_102973" data-name="Path 102973" d="M737.2,464.342c.658-.129,1.32-.255,1.984-.372.006,1.25.009,2.5-.009,3.758.665.025,1.332.041,2,.072-.028.655-.044,1.313-.066,1.972-.646-.009-1.285-.016-1.924-.019a47.707,47.707,0,0,0,.094,4.794c.2.879,1.121,1.175,1.868,1.452,0,.617,0,1.238,0,1.858a3.929,3.929,0,0,1-3.918-3.449c-.117-1.553,0-3.112-.063-4.668-.58.009-1.156.016-1.726.025q-.009-1.006,0-2.006.869,0,1.748,0C737.19,466.619,737.19,465.479,737.2,464.342Z" transform="translate(-220.265 -237.786)" fill="#3c5afd"/>
    <path id="Path_102974" data-name="Path 102974" d="M489.7,476.686c1.679-.6,3.588-1.055,5.3-.324a3.5,3.5,0,0,1,2.268,3.068c.057,2.211,0,4.425.019,6.64-.674,0-1.345,0-2.013,0l.063-.945c-1.682,1.8-5.1,1.729-6.312-.554-.986-1.707.3-3.868,2.085-4.325a32.234,32.234,0,0,1,4.277-.2c-.12-.617-.23-1.332-.844-1.657-1.364-.816-3.021-.255-4.422.173q-.236-.935-.425-1.874m.954,6.255c.287,1.632,2.51,1.673,3.745,1.194,1.087-.334.895-1.553.932-2.441C493.785,481.732,491.435,481.174,490.651,482.941Z" transform="translate(-51.228 -246.017)" fill="#3c5afd"/>
    <path id="Path_102975" data-name="Path 102975" d="M578.078,476.828a4.266,4.266,0,0,1,5.685.564,6.315,6.315,0,0,1,1.509,4.586c-2.416.013-4.835-.013-7.251.013a3.312,3.312,0,0,0,1.8,2.265,2.97,2.97,0,0,0,3.118-.954c.532.356,1.068.715,1.606,1.071a4.654,4.654,0,0,1-6.662,1.049,5.657,5.657,0,0,1,.192-8.593m-.06,3.569q2.57.024,5.137,0c-.328-1.244-1.336-2.583-2.769-2.4C579.108,478.091,578.368,479.291,578.018,480.4Z" transform="translate(-111.045 -246.023)" fill="#3c5afd"/>
    <path id="Path_102976" data-name="Path 102976" d="M644.328,479.167a4.866,4.866,0,0,1,4.69-3.2,5.132,5.132,0,0,1,3.893,1.928c-.532.4-1.071.784-1.616,1.162a3.085,3.085,0,0,0-3.748-.756,3.393,3.393,0,0,0,0,5.742,3.1,3.1,0,0,0,3.742-.75c.554.372,1.112.753,1.666,1.134a5.168,5.168,0,0,1-6.073,1.518A5.362,5.362,0,0,1,644.328,479.167Z" transform="translate(-157.593 -246.003)" fill="#3c5afd"/>
    <path id="Path_102977" data-name="Path 102977" d="M676.969,477.37a4.829,4.829,0,0,1,3.493-1.54c0,.665,0,1.332,0,2-1.392-.035-3.071.5-3.339,2.066a59.843,59.843,0,0,0-.126,6.063c-.668,0-1.332,0-2,0V476.2c.668,0,1.336,0,2.006,0C676.994,476.589,676.978,476.98,676.969,477.37Z" transform="translate(-178.86 -245.911)" fill="#3c5afd"/>
    <path id="Path_102978" data-name="Path 102978" d="M707.953,477.514A4.469,4.469,0,0,1,710.671,476a3.9,3.9,0,0,1,3.433,1.31,5.946,5.946,0,0,1,.8,6.586,4.243,4.243,0,0,1-3.877,2.476,4.194,4.194,0,0,1-3.074-1.547c.088,1.773.028,3.547.044,5.323-.668,0-1.332,0-2,0V476.292h2.013c-.022.406-.041.816-.06,1.222m1.981.573c-2.573.964-2.58,5.219,0,6.174,1.713.63,3.4-.895,3.578-2.561C713.928,479.719,712.063,477.318,709.934,478.087Z" transform="translate(-200.096 -246.004)" fill="#3c5afd"/>
    <path id="Path_102979" data-name="Path 102979" d="M539,477c.665,0,1.329,0,2,0q0,4.88,0,9.764c-.668,0-1.332,0-2,0Z" transform="translate(-85.697 -246.709)" fill="#3c5afd"/>
    <path id="Path_102980" data-name="Path 102980" d="M546.95,476.986c.718,0,1.436,0,2.158.016q1.29,3.458,2.627,6.9c.86-2.3,1.767-4.58,2.6-6.889.721-.025,1.443-.035,2.17-.038-1.187,3.254-2.485,6.463-3.654,9.723-.724.035-1.446.054-2.167.069C549.413,483.522,548.191,480.249,546.95,476.986Z" transform="translate(-91.143 -246.698)" fill="#3c5afd"/>
    <path id="Path_102981" data-name="Path 102981" d="M694,477c.665,0,1.329,0,2,0q0,4.88,0,9.764c-.668,0-1.332,0-2,0Z" transform="translate(-191.875 -246.709)" fill="#3c5afd"/>
  </g>
</svg>
