<svg xmlns="http://www.w3.org/2000/svg" width="50" height="39.37" viewBox="0 0 50 39.37">
  <g id="t1-ic2" transform="translate(6242 10588)">
    <g id="Group_55188" data-name="Group 55188" transform="translate(-6242 -10588)">
      <circle id="Ellipse_4052" data-name="Ellipse 4052" cx="0.984" cy="0.984" r="0.984" transform="translate(24.016 37.402)" fill="#ffa726"/>
      <circle id="Ellipse_4053" data-name="Ellipse 4053" cx="0.984" cy="0.984" r="0.984" transform="translate(24.016 0)" fill="#ffa726"/>
      <path id="Path_102989" data-name="Path 102989" d="M309.9,54.425H292.284a.984.984,0,0,0-.984.984h0a.984.984,0,0,0,.984.984H309.9a.984.984,0,0,1,.984.984V90.842a.984.984,0,0,1-.984.984H292.284a.984.984,0,0,0-.984.984h0a.984.984,0,0,0,.984.984H309.9a2.953,2.953,0,0,0,2.953-2.953V57.378A2.953,2.953,0,0,0,309.9,54.425Z" transform="translate(-262.853 -54.425)" fill="#ffa726"/>
      <path id="Path_102990" data-name="Path 102990" d="M2.953,93.8H20.568a.984.984,0,0,0,.984-.984h0a.984.984,0,0,0-.984-.984H2.953a.984.984,0,0,1-.984-.984V57.378a.984.984,0,0,1,.984-.984H20.568a.984.984,0,0,0,.984-.984h0a.984.984,0,0,0-.984-.984H2.953A2.953,2.953,0,0,0,0,57.378V90.842A2.953,2.953,0,0,0,2.953,93.8Z" transform="translate(0 -54.425)" fill="#ffa726"/>
      <g id="Group_55187" data-name="Group 55187" transform="translate(7.673 4.924)">
        <path id="Path_102991" data-name="Path 102991" d="M109.04,255.124a.976.976,0,0,0-1.146.771,12.166,12.166,0,0,1-23.991-.674l2.7,1.393a.977.977,0,1,0,.9-1.735l-4.236-2.188-.039-.018-.034-.016c-.026-.011-.052-.02-.078-.029l-.034-.009-.053-.014-.034-.007-.058-.009-.031,0c-.026,0-.052,0-.078,0h-.012c-.03,0-.06,0-.09,0l-.029,0-.058.009-.036.008-.05.013-.036.01-.061.022-.033.014c-.021.009-.043.02-.063.031l-.027.015-.049.03-.026.018-.046.034-.024.02-.044.04-.021.02-.007.007-3.265,3.385a.977.977,0,1,0,1.406,1.356l1.763-1.828a14.119,14.119,0,0,0,27.8.475A.976.976,0,0,0,109.04,255.124Z" transform="translate(-78.571 -238.156)" fill="#ffa726"/>
        <path id="Path_102992" data-name="Path 102992" d="M144.3,114.88a.977.977,0,0,0-1.381.025l-1.763,1.828a14.119,14.119,0,0,0-27.8-.476.977.977,0,1,0,1.917.374,12.166,12.166,0,0,1,23.991.674l-2.7-1.393a.977.977,0,1,0-.9,1.735l4.218,2.179h0l.016.008.014.006q.04.02.082.036l.028.01c.025.009.051.017.077.024l.03.008c.026.006.053.01.08.014l.028,0a.957.957,0,0,0,.106.006h.019c.027,0,.054,0,.08,0s.062-.008.093-.014h0a.969.969,0,0,0,.356-.149l.021-.015c.019-.014.038-.028.056-.043l.027-.024c.015-.014.03-.027.045-.042l.006-.006,3.265-3.385A.977.977,0,0,0,144.3,114.88Z" transform="translate(-109.949 -104.85)" fill="#ffa726"/>
      </g>
    </g>
  </g>
</svg>
