<svg xmlns="http://www.w3.org/2000/svg" width="50" height="49.213" viewBox="0 0 50 49.213">
  <g id="t1-ic3" transform="translate(0 -4)">
    <path id="Path_102987" data-name="Path 102987" d="M18.5,8.921a.984.984,0,1,1-.984-.984A.984.984,0,0,1,18.5,8.921Zm4.429,0a.984.984,0,1,1-.984-.984A.984.984,0,0,1,22.933,8.921Zm4.429,0a.984.984,0,1,1-.984-.984A.984.984,0,0,1,27.362,8.921ZM50,36.48a.984.984,0,0,1-.984.984H46.85a.984.984,0,0,1,0-1.969h1.181V13.843H14.567V31.559H33.858a2.953,2.953,0,0,1,2.953,2.953V35.5h1.181a.986.986,0,0,1,.982,1.053,1.008,1.008,0,0,1-1.017.916H36.811v12.8a2.953,2.953,0,0,1-2.953,2.953H2.953A2.953,2.953,0,0,1,0,50.26V34.512a2.953,2.953,0,0,1,2.953-2.953H12.6V6.953A2.953,2.953,0,0,1,15.551,4h31.5A2.953,2.953,0,0,1,50,6.953ZM33.858,33.528H2.953a.985.985,0,0,0-.984.984V50.26a.985.985,0,0,0,.984.984H33.858a.985.985,0,0,0,.984-.984V34.512A.985.985,0,0,0,33.858,33.528ZM14.567,11.874H48.032V6.953a.985.985,0,0,0-.984-.984h-31.5a.985.985,0,0,0-.984.984Zm17.188,8-2.74,6.89a.984.984,0,1,0,1.829.727l2.74-6.89a.984.984,0,1,0-1.829-.727Zm5.7.186a.984.984,0,1,0-1.686,1.016l1.54,2.554-1.549,2.673a.984.984,0,1,0,1.7.987l1.84-3.177a.984.984,0,0,0-.009-1ZM26.5,19.728a.984.984,0,0,0-1.351.335l-1.84,3.052a.984.984,0,0,0-.009,1l1.84,3.177a.984.984,0,0,0,1.7-.987l-1.549-2.673,1.54-2.554a.984.984,0,0,0-.335-1.351ZM4.921,37.465h.984a.984.984,0,0,0,0-1.969H4.921a.984.984,0,0,0,0,1.969Zm5.217,0h.984a.984.984,0,0,0,0-1.969h-.984a.984.984,0,0,0,0,1.969Zm5.217,0h.984a.984.984,0,0,0,0-1.969h-.984a.984.984,0,0,0,0,1.969Zm5.118,0h.984a.984.984,0,0,0,0-1.969h-.984a.984.984,0,0,0,0,1.969Zm5.217,0h.984a.984.984,0,0,0,0-1.969h-.984a.984.984,0,0,0,0,1.969Zm5.217,0h.984a.984.984,0,0,0,0-1.969h-.984a.984.984,0,1,0,0,1.969Zm.984,1.969H27.461a.984.984,0,1,0,0,1.969H31.89a.984.984,0,1,0,0-1.969ZM4.921,41.4h3.15a.984.984,0,1,0,0-1.969H4.921a.984.984,0,1,0,0,1.969Zm7.185-1.969a.984.984,0,1,0,0,1.969h.984a.984.984,0,1,0,0-1.969Zm4.134.984a.984.984,0,0,0,.984.984h.984a.984.984,0,1,0,0-1.969h-.984A.984.984,0,0,0,16.24,40.417Zm5.118,0a.984.984,0,0,0,.984.984h.984a.984.984,0,1,0,0-1.969h-.984A.984.984,0,0,0,21.358,40.417ZM4.921,45.339H9.35a.984.984,0,1,0,0-1.969H4.921a.984.984,0,1,0,0,1.969ZM31.89,43.37H28.74a.984.984,0,1,0,0,1.969h3.15a.984.984,0,1,0,0-1.969Zm-9.154.984a.984.984,0,0,0,.984.984H24.7a.984.984,0,1,0,0-1.969H23.72A.984.984,0,0,0,22.736,44.354Zm-3.15.984a.984.984,0,1,0,0-1.969H18.6a.984.984,0,1,0,0,1.969Zm-5.118,0a.984.984,0,1,0,0-1.969h-.984a.984.984,0,1,0,0,1.969Zm7.283,1.969H9.941a.984.984,0,1,0,0,1.969H21.752a.984.984,0,1,0,0-1.969Zm10.138,0h-.984a.984.984,0,1,0,0,1.969h.984a.984.984,0,1,0,0-1.969Zm-5.118,0h-.984a.984.984,0,1,0,0,1.969h.984a.984.984,0,1,0,0-1.969Zm-20.866,0H4.921a.984.984,0,1,0,0,1.969h.984a.984.984,0,1,0,0-1.969ZM42.421,35.5a.984.984,0,1,0,.984.984A.985.985,0,0,0,42.421,35.5Z" fill="#ffa726"/>
  </g>
</svg>
