<svg xmlns="http://www.w3.org/2000/svg" width="423" height="285" viewBox="0 0 423 285">
  <g id="t1-i2" transform="translate(-941 -1984)">
    <rect id="Rectangle_5602" data-name="Rectangle 5602" width="423" height="285" transform="translate(941 1984)" fill="#3c5afd"/>
    <g id="_ffffffff" data-name="#ffffffff" transform="translate(653.1 1917.15)">
      <path id="Path_102967" data-name="Path 102967" d="M434.564,122.416a17.351,17.351,0,0,1,12.82-5.553c5.768.018,11.541-.05,17.305.037q32.652,40.947,65.422,81.788c1.342,1.622,2.557,3.358,4.027,4.875q.034-43.311-.018-86.618c5.759-.192,11.528-.027,17.291-.087a17.366,17.366,0,0,1,17.456,17.479q-.014,17.168,0,34.34a17.434,17.434,0,0,0,4.495,11.945,17.73,17.73,0,0,0,11.541,5.709,17.7,17.7,0,0,0-10.863,5,17.326,17.326,0,0,0-5.164,12.169c-.027,11.757,0,23.513-.014,35.27A17.367,17.367,0,0,1,551.4,255.8c-5.768-.027-11.541.046-17.31-.041q-32.659-40.947-65.432-81.807c-1.333-1.627-2.57-3.331-4-4.875q-.048,43.325.009,86.65c-5.764.156-11.528.023-17.291.073A17.364,17.364,0,0,1,429.931,238.8c-.032-11.917.032-23.83-.032-35.742a17.455,17.455,0,0,0-16-16.7,18.075,18.075,0,0,0,10.859-5.031,17.349,17.349,0,0,0,5.159-12.169c.023-11.61,0-23.225,0-34.835A17.336,17.336,0,0,1,434.564,122.416Z" transform="translate(0 0)" fill="#fff"/>
      <path id="Path_102968" data-name="Path 102968" d="M608.89,464.718c2.543-2.034,6.222-2.176,9.2-1.123a6.315,6.315,0,0,1,4.014,5.145c-.967.064-1.929.1-2.891.119a4.052,4.052,0,0,0-4.238-2.978c-1.8-.087-4.311.156-4.962,2.167-.531,1.214.518,2.35,1.576,2.79,2.914,1.26,6.355,1.1,9.021,2.987,2.415,1.521,2.763,5.168,1.077,7.349a8.235,8.235,0,0,1-6.272,2.859c-2.689.16-5.668-.477-7.528-2.566a7.328,7.328,0,0,1-1.471-3.615c.953-.014,1.911-.014,2.868-.009.582,3.29,4.623,3.652,7.285,3.139,1.434-.307,3.148-1.228,3.239-2.868A2.406,2.406,0,0,0,618.2,475.7c-3.079-1.342-6.8-1.063-9.516-3.248C606.292,470.551,606.557,466.551,608.89,464.718Z" transform="translate(-104.313 -187.527)" fill="#fff"/>
      <path id="Path_102969" data-name="Path 102969" d="M448.656,463.994l2.919-.014q5.471,7.622,10.946,15.234c.082-5.077.014-10.149.037-15.225.967,0,1.933,0,2.9,0q.007,10.075,0,20.155-1.457,0-2.914.014-5.477-7.608-10.95-15.225c-.087,5.072-.014,10.144-.037,15.216-.971,0-1.943,0-2.9,0Q448.649,474.067,448.656,463.994Z" transform="translate(-18.83 -188.085)" fill="#fff"/>
      <path id="Path_102970" data-name="Path 102970" d="M520,464.506q1.443-.282,2.891-.536c0,1.819.009,3.643-.018,5.466.976.032,1.952.064,2.928.119-.05.953-.083,1.906-.128,2.864q-1.4-.027-2.781-.041c.078,2.314-.165,4.655.128,6.96.293,1.287,1.631,1.723,2.722,2.13,0,.893.009,1.791.018,2.689a5.679,5.679,0,0,1-5.7-4.98c-.174-2.268,0-4.54-.1-6.808l-2.515.027c0-.971,0-1.943,0-2.914.843,0,1.7,0,2.543,0C519.986,467.823,519.986,466.165,520,464.506Z" transform="translate(-56.104 -188.08)" fill="#fff"/>
      <path id="Path_102971" data-name="Path 102971" d="M539,464c.967,0,1.938,0,2.909,0q-.007,1.45-.009,2.9H539C538.993,465.931,539,464.964,539,464Z" transform="translate(-67.78 -188.093)" fill="#fff"/>
      <path id="Path_102972" data-name="Path 102972" d="M694,464c.967,0,1.933,0,2.9,0v2.9q-1.457,0-2.9.009Q693.989,465.45,694,464Z" transform="translate(-151.762 -188.093)" fill="#fff"/>
      <path id="Path_102973" data-name="Path 102973" d="M738,464.511c.957-.188,1.92-.371,2.886-.541.009,1.819.014,3.643-.014,5.466.967.037,1.938.06,2.914.105-.041.953-.064,1.911-.1,2.868-.939-.014-1.869-.023-2.8-.028a69.406,69.406,0,0,0,.137,6.973c.3,1.278,1.631,1.709,2.717,2.112,0,.9,0,1.8,0,2.7a5.715,5.715,0,0,1-5.7-5.017c-.17-2.259,0-4.527-.092-6.79-.843.014-1.681.023-2.511.037q-.014-1.464,0-2.919,1.265-.007,2.543,0C737.985,467.823,737.985,466.165,738,464.511Z" transform="translate(-174.221 -188.08)" fill="#fff"/>
      <path id="Path_102974" data-name="Path 102974" d="M490.157,477c2.442-.87,5.219-1.535,7.716-.472a5.086,5.086,0,0,1,3.3,4.463c.082,3.216,0,6.437.028,9.658-.981,0-1.956,0-2.928,0l.092-1.374c-2.447,2.612-7.422,2.515-9.182-.806-1.434-2.483.431-5.626,3.033-6.291,2.039-.444,4.151-.119,6.222-.289-.174-.9-.334-1.938-1.228-2.41-1.984-1.187-4.394-.371-6.433.252q-.344-1.361-.619-2.726m1.388,9.1c.417,2.373,3.652,2.433,5.448,1.736,1.581-.486,1.3-2.259,1.356-3.551C496.1,484.344,492.686,483.533,491.545,486.1Z" transform="translate(-40.52 -194.59)" fill="#fff"/>
      <path id="Path_102975" data-name="Path 102975" d="M579.021,477.207a6.2,6.2,0,0,1,8.27.82c1.755,1.741,2.19,4.3,2.195,6.671-3.514.018-7.033-.018-10.547.018.486,1.333,1.164,2.813,2.621,3.294,1.649.651,3.377-.211,4.536-1.388.774.518,1.553,1.04,2.337,1.558a6.769,6.769,0,0,1-9.69,1.526c-3.743-3.07-3.647-9.626.28-12.5m-.087,5.191q3.739.034,7.473,0c-.477-1.81-1.943-3.757-4.027-3.487C580.52,479.044,579.443,480.789,578.934,482.4Z" transform="translate(-87.832 -194.595)" fill="#fff"/>
      <path id="Path_102976" data-name="Path 102976" d="M644.5,480.622a7.078,7.078,0,0,1,6.822-4.65,7.465,7.465,0,0,1,5.663,2.8c-.774.582-1.558,1.141-2.35,1.691a4.487,4.487,0,0,0-5.452-1.1c-3.079,1.6-3.074,6.744,0,8.352a4.5,4.5,0,0,0,5.443-1.09c.807.541,1.617,1.1,2.424,1.649a7.517,7.517,0,0,1-8.834,2.208C644.566,488.888,643.05,484.21,644.5,480.622Z" transform="translate(-124.65 -194.579)" fill="#fff"/>
      <path id="Path_102977" data-name="Path 102977" d="M677.864,478.071a7.025,7.025,0,0,1,5.081-2.241c0,.967,0,1.938,0,2.914-2.025-.05-4.467.729-4.857,3.006-.4,2.914-.078,5.883-.183,8.82-.971,0-1.938,0-2.9,0v-14.2c.971,0,1.943,0,2.919,0C677.9,476.934,677.877,477.5,677.864,478.071Z" transform="translate(-141.471 -194.506)" fill="#fff"/>
      <path id="Path_102978" data-name="Path 102978" d="M708.841,478.217a6.5,6.5,0,0,1,3.954-2.2,5.667,5.667,0,0,1,4.994,1.906,8.649,8.649,0,0,1,1.164,9.58,6.172,6.172,0,0,1-5.64,3.6,6.1,6.1,0,0,1-4.472-2.25c.128,2.58.041,5.159.064,7.743-.971,0-1.938,0-2.9,0V476.44h2.928c-.032.591-.06,1.187-.087,1.778m2.882.834c-3.743,1.4-3.752,7.592,0,8.98,2.492.916,4.953-1.3,5.2-3.725C717.532,481.425,714.82,477.933,711.723,479.051Z" transform="translate(-158.268 -194.579)" fill="#fff"/>
      <path id="Path_102979" data-name="Path 102979" d="M539,477c.967,0,1.933,0,2.9,0q.007,7.1,0,14.2c-.971,0-1.938,0-2.9,0Z" transform="translate(-67.783 -195.137)" fill="#fff"/>
      <path id="Path_102980" data-name="Path 102980" d="M546.95,476.989c1.045,0,2.089,0,3.138.023q1.876,5.031,3.821,10.043c1.251-3.345,2.57-6.662,3.775-10.02,1.049-.037,2.1-.05,3.157-.055-1.727,4.733-3.615,9.4-5.315,14.144-1.054.05-2.1.078-3.152.1C550.533,486.5,548.755,481.736,546.95,476.989Z" transform="translate(-72.09 -195.129)" fill="#fff"/>
      <path id="Path_102981" data-name="Path 102981" d="M694,477c.967,0,1.933,0,2.9,0q.007,7.1,0,14.2c-.971,0-1.938,0-2.9,0Z" transform="translate(-151.766 -195.137)" fill="#fff"/>
    </g>
  </g>
</svg>
