<svg xmlns="http://www.w3.org/2000/svg" width="423" height="285" viewBox="0 0 423 285">
  <g id="t1-i3" transform="translate(618.425 -4867.004)">
    <rect id="Rectángulo_5602" data-name="Rectángulo 5602" width="423" height="285" transform="translate(-618.425 4867.004)" fill="#039be5"/>
    <g id="Group_59751" data-name="Group 59751" style="mix-blend-mode: multiply;isolation: isolate">
      <path id="Path_104072" data-name="Path 104072" d="M-256.073,4929.951h3.173v2.294h-3.173v3.586h-2.417v-3.586h-3.181v-2.294h3.181v-3.436h2.417Z" fill="#039be5"/>
    </g>
    <g id="Group_59752" data-name="Group 59752" style="mix-blend-mode: multiply;isolation: isolate">
      <path id="Path_104073" data-name="Path 104073" d="M-298.035,5140.663h3.173v2.294h-3.173v3.586h-2.417v-3.586h-3.181v-2.294h3.181v-3.437h2.417Z" fill="#039be5"/>
    </g>
    <g id="Group_59753" data-name="Group 59753" style="mix-blend-mode: multiply;isolation: isolate">
      <path id="Path_104074" data-name="Path 104074" d="M-494.942,5065.359h3.173v2.294h-3.173v3.586h-2.417v-3.586h-3.181v-2.294h3.181v-3.436h2.417Z" fill="#039be5"/>
    </g>
    <g id="Group_59754" data-name="Group 59754" style="mix-blend-mode: multiply;isolation: isolate">
      <path id="Path_104075" data-name="Path 104075" d="M-549.767,4964.238h3.172v2.294h-3.172v3.586h-2.417v-3.586h-3.182v-2.294h3.182V4960.8h2.417Z" fill="#039be5"/>
    </g>
    <g id="Group_59755" data-name="Group 59755" style="mix-blend-mode: multiply;isolation: isolate">
      <path id="Path_104076" data-name="Path 104076" d="M-491.011,4881.1h3.173v2.294h-3.173v3.586h-2.417v-3.586h-3.181V4881.1h3.181v-3.437h2.417Z" fill="#039be5"/>
    </g>
    <g id="Group_59756" data-name="Group 59756" style="mix-blend-mode: multiply;isolation: isolate">
      <path id="Path_104077" data-name="Path 104077" d="M-318.9,5041.53h3.173v2.294H-318.9v3.586h-2.417v-3.586H-324.5v-2.294h3.182v-3.437h2.417Z" fill="#039be5"/>
    </g>
    <g id="Group_59758" data-name="Group 59758">
      <g id="Group_59757" data-name="Group 59757">
        <rect id="Rectangle_7549" data-name="Rectangle 7549" width="141.064" height="272.507" rx="21.349" transform="translate(-477.457 4873.25)" fill="#12263f"/>
        <path id="Rectangle_7549_-_Outline" data-name="Rectangle 7549 - Outline" d="M21.349-.155h98.366a21.487,21.487,0,0,1,21.5,21.5V251.158a21.487,21.487,0,0,1-21.5,21.5H21.349a21.486,21.486,0,0,1-21.5-21.5V21.349a21.486,21.486,0,0,1,21.5-21.5Zm98.366,272.507a21.218,21.218,0,0,0,21.194-21.194V21.349A21.218,21.218,0,0,0,119.715.155H21.349A21.218,21.218,0,0,0,.155,21.349V251.158a21.218,21.218,0,0,0,21.194,21.194Z" transform="translate(-477.457 4873.25)" fill="#fff"/>
        <rect id="Rectangle_7550" data-name="Rectangle 7550" width="135.782" height="266.249" rx="18.7" transform="translate(-474.815 4875.636)" fill="#fff"/>
        <path id="Path_104078" data-name="Path 104078" d="M-344.978,4889.991v236.334a10.036,10.036,0,0,1-10.036,10.037H-458.835a10.037,10.037,0,0,1-10.037-10.037V4889.991a10.037,10.037,0,0,1,10.037-10.036h17.313a2.538,2.538,0,0,1,2.269,1.4l1.838,3.67a4.959,4.959,0,0,0,4.448,2.755h52.085a4.959,4.959,0,0,0,4.447-2.755l1.839-3.67a2.537,2.537,0,0,1,2.269-1.4h17.313A10.036,10.036,0,0,1-344.978,4889.991Z" fill="#ebebeb"/>
        <path id="Path_104079" data-name="Path 104079" d="M-385.066,4883.487h-41.95a1.766,1.766,0,0,1-1.767-1.766h0a1.767,1.767,0,0,1,1.767-1.766h41.95a1.766,1.766,0,0,1,1.766,1.766h0A1.766,1.766,0,0,1-385.066,4883.487Z" fill="#ebebeb"/>
      </g>
    </g>
    <g id="_ffffffff" data-name=" ffffffff">
      <path id="Trazado_102967" data-name="Trazado 102967" d="M-436.88,4969.307a8.014,8.014,0,0,1,5.922-2.566c2.665.009,5.331-.024,8,.017q15.084,18.916,30.222,37.782c.62.749,1.182,1.552,1.861,2.252q.016-20.008-.009-40.013c2.661-.089,5.326-.013,7.988-.041a8.023,8.023,0,0,1,8.064,7.98v.1q-.006,7.929,0,15.863a8.045,8.045,0,0,0,2.076,5.517,8.189,8.189,0,0,0,5.331,2.638,8.175,8.175,0,0,0-5.018,2.312,8,8,0,0,0-2.385,5.621c-.013,5.431,0,10.863-.006,16.293a8.023,8.023,0,0,1-8.064,7.868c-2.665-.013-5.331.021-8-.019q-15.087-18.915-30.227-37.791c-.616-.751-1.187-1.539-1.85-2.252q-.022,20.015,0,40.028c-2.662.072-5.325.011-7.988.034a8.021,8.021,0,0,1-8.055-7.857c-.015-5.5.015-11.008-.015-16.511a8.064,8.064,0,0,0-7.392-7.713,8.353,8.353,0,0,0,5.017-2.323,8.013,8.013,0,0,0,2.383-5.622c.011-5.364,0-10.729,0-16.092A8.005,8.005,0,0,1-436.88,4969.307Z" fill="#039be5"/>
      <path id="Trazado_102968" data-name="Trazado 102968" d="M-404.537,5040.806a4.515,4.515,0,0,1,4.252-.519,2.915,2.915,0,0,1,1.854,2.377c-.447.03-.891.045-1.335.055a1.871,1.871,0,0,0-1.958-1.375c-.832-.041-1.992.072-2.292,1-.245.561.239,1.086.728,1.289,1.344.582,2.935.51,4.166,1.38a2.4,2.4,0,0,1,.522,3.361l-.025.034a3.8,3.8,0,0,1-2.9,1.32,4.272,4.272,0,0,1-3.478-1.185,3.383,3.383,0,0,1-.679-1.67c.44-.006.882-.006,1.325,0,.269,1.52,2.135,1.687,3.365,1.45.663-.142,1.454-.567,1.5-1.325a1.111,1.111,0,0,0-.748-1.117c-1.422-.621-3.142-.492-4.4-1.5a2.36,2.36,0,0,1-.152-3.333A2.427,2.427,0,0,1-404.537,5040.806Z" fill="#039be5"/>
      <path id="Trazado_102969" data-name="Trazado 102969" d="M-439.068,5040.213l1.348-.006q2.527,3.521,5.057,7.037c.038-2.345.006-4.688.016-7.033h1.344v9.311q-.672,0-1.344.006-2.531-3.514-5.058-7.034c-.041,2.343-.006,4.687-.017,7.029h-1.344Q-439.072,5044.867-439.068,5040.213Z" fill="#039be5"/>
      <path id="Trazado_102970" data-name="Trazado 102970" d="M-423.33,5040.453q.666-.13,1.335-.248c0,.84,0,1.68-.009,2.526.451.015.9.029,1.353.055-.024.44-.039.88-.059,1.323q-.645-.013-1.285-.019c.036,1.069-.076,2.15.059,3.216.134.594.753.795,1.257.984,0,.413,0,.828.009,1.242a2.62,2.62,0,0,1-2.635-2.3c-.081-1.048,0-2.1-.044-3.146l-1.162.013v-1.344h1.174C-423.336,5041.985-423.336,5041.219-423.33,5040.453Z" fill="#039be5"/>
      <path id="Trazado_102971" data-name="Trazado 102971" d="M-419.945,5040.213h1.344q0,.672,0,1.344h-1.34C-419.949,5041.1-419.945,5040.658-419.945,5040.213Z" fill="#039be5"/>
      <path id="Trazado_102972" data-name="Trazado 102972" d="M-387.141,5040.213h1.344v1.34q-.672,0-1.344,0Q-387.144,5040.885-387.141,5040.213Z" fill="#039be5"/>
      <path id="Trazado_102973" data-name="Trazado 102973" d="M-377.189,5040.455c.442-.087.887-.172,1.333-.25,0,.84.006,1.68-.006,2.525.447.017.895.028,1.344.048-.019.441-.029.883-.044,1.326-.434-.006-.864-.011-1.293-.013a32.049,32.049,0,0,0,.063,3.221c.134.591.753.79,1.255.976v1.248a2.64,2.64,0,0,1-2.633-2.317c-.078-1.044,0-2.091-.042-3.137l-1.16.017q-.006-.677,0-1.348h1.175C-377.2,5041.985-377.2,5041.219-377.189,5040.455Z" fill="#039be5"/>
      <path id="Trazado_102974" data-name="Trazado 102974" d="M-429.914,5043.219a4.91,4.91,0,0,1,3.562-.218,2.352,2.352,0,0,1,1.524,2.061c.038,1.486,0,2.974.012,4.462h-1.352l.042-.635a2.706,2.706,0,0,1-4.241-.372,2.081,2.081,0,0,1,1.4-2.906,21.57,21.57,0,0,1,2.874-.135c-.081-.414-.155-.9-.567-1.113-.917-.548-2.03-.171-2.972.116q-.159-.628-.285-1.259m.641,4.2c.192,1.1,1.686,1.124,2.516.8.731-.224.6-1.043.626-1.64-1.036.024-2.615-.351-3.142.837Z" fill="#039be5"/>
      <path id="Trazado_102975" data-name="Trazado 102975" d="M-410.722,5043.31a2.866,2.866,0,0,1,3.82.379,4.241,4.241,0,0,1,1.014,3.082c-1.623.008-3.249-.009-4.872.008a2.225,2.225,0,0,0,1.21,1.522,1.994,1.994,0,0,0,2.1-.641c.357.24.717.481,1.079.72a3.127,3.127,0,0,1-4.35.8c-.043-.03-.085-.06-.127-.092a3.8,3.8,0,0,1-.3-5.368,3.79,3.79,0,0,1,.425-.406m-.04,2.4q1.727.017,3.452,0c-.22-.836-.9-1.736-1.861-1.613-.857.063-1.354.869-1.589,1.614Z" fill="#039be5"/>
      <path id="Trazado_102976" data-name="Trazado 102976" d="M-397.482,5044.9a3.268,3.268,0,0,1,3.151-2.15,3.449,3.449,0,0,1,2.616,1.295c-.357.269-.72.527-1.086.781a2.072,2.072,0,0,0-2.518-.508,2.281,2.281,0,0,0-.715,3.145,2.283,2.283,0,0,0,.715.714,2.082,2.082,0,0,0,2.514-.5c.372.25.747.506,1.12.762a3.474,3.474,0,0,1-4.081,1.02A3.6,3.6,0,0,1-397.482,5044.9Z" fill="#039be5"/>
      <path id="Trazado_102977" data-name="Trazado 102977" d="M-389.84,5043.749a3.251,3.251,0,0,1,2.348-1.034v1.344c-.936-.024-2.064.336-2.244,1.388a40.426,40.426,0,0,0-.085,4.074h-1.344v-6.558h1.348C-389.823,5043.225-389.833,5043.487-389.84,5043.749Z" fill="#039be5"/>
      <path id="Trazado_102978" data-name="Trazado 102978" d="M-383.289,5043.784a3,3,0,0,1,1.826-1.018,2.619,2.619,0,0,1,2.307.881,3.994,3.994,0,0,1,.538,4.425,2.853,2.853,0,0,1-2.606,1.664,2.814,2.814,0,0,1-2.065-1.039c.059,1.191.019,2.383.029,3.576H-384.6v-9.31h1.353c-.015.272-.027.548-.04.821m1.331.385a2.306,2.306,0,0,0,0,4.149,1.918,1.918,0,0,0,2.4-1.721c.282-1.332-.971-2.945-2.4-2.428Z" fill="#039be5"/>
      <path id="Trazado_102979" data-name="Trazado 102979" d="M-419.948,5042.965h1.344v6.561h-1.344Z" fill="#039be5"/>
      <path id="Trazado_102980" data-name="Trazado 102980" d="M-418.265,5042.963c.482,0,.965,0,1.45.01q.867,2.323,1.765,4.637c.578-1.546,1.188-3.078,1.747-4.629.485-.017.97-.024,1.458-.026-.8,2.187-1.669,4.343-2.455,6.534-.486.023-.972.036-1.456.046C-416.61,5047.355-417.431,5045.155-418.265,5042.963Z" fill="#039be5"/>
      <path id="Trazado_102981" data-name="Trazado 102981" d="M-387.141,5042.965h1.344v6.561h-1.344Z" fill="#039be5"/>
    </g>
    <g id="Group_59761" data-name="Group 59761">
      <g id="Group_59759" data-name="Group 59759">
        <path id="Path_104080" data-name="Path 104080" d="M-548.1,5143.372q-37.638-13.26-38.44-59.736v-31.743q0-35.088-25.58-35.091v-14.2q24.91,0,25.58-32.68v-34.154q.8-46.875,38.44-60.136l3.214,10.849q-25.986,9.912-26.653,49.556v30.805q0,33.082-21.161,42.858,21.161,10.315,21.161,42.994v29.867q.4,39.376,26.922,49.958Z" fill="#bcf4fa"/>
      </g>
      <g id="Group_59760" data-name="Group 59760">
        <path id="Path_104081" data-name="Path 104081" d="M-265.748,4875.636q37.639,13.26,38.44,59.736v31.742q0,35.088,25.581,35.091v14.2q-24.91,0-25.581,32.68v34.153q-.8,46.875-38.44,60.137l-3.213-10.849q25.984-9.913,26.653-49.556v-30.8q0-33.083,21.161-42.859-21.16-10.316-21.161-42.993v-29.867q-.4-39.376-26.922-49.958Z" fill="#bcf4fa"/>
      </g>
    </g>
    <g id="Group_59764" data-name="Group 59764" style="mix-blend-mode: multiply;isolation: isolate">
      <g id="Group_59762" data-name="Group 59762">
        <path id="Path_104082" data-name="Path 104082" d="M-282.523,5099.9H-308.88l25.316-7.334a.772.772,0,0,0,.461-.369.773.773,0,0,0,.066-.588l-1.325-4.573a4.324,4.324,0,0,0-4.136-3.1,4.283,4.283,0,0,0-1.19.17l-23.768,6.885a4.269,4.269,0,0,0-2.566,2.058,4.267,4.267,0,0,0-.367,3.268l1.294,4.468v18.405a4.3,4.3,0,0,0,4.3,4.3h9.283a.772.772,0,0,0,.772-.773.772.772,0,0,0-.772-.772H-310.8a2.757,2.757,0,0,1-2.754-2.755v-10.513H-283.3v10.513a2.757,2.757,0,0,1-2.754,2.755h-9.283a.772.772,0,0,0-.773.772.773.773,0,0,0,.773.773h9.283a4.3,4.3,0,0,0,4.3-4.3V5100.67A.772.772,0,0,0-282.523,5099.9Zm-13.622,7.229,3.282-5.684h4.269l-3.282,5.684Zm-6.054,0,3.282-5.684h4.269l-3.282,5.684Zm-6.053,0,3.282-5.684h4.269l-3.282,5.684Zm2.872-10-5.5-5.28,4.118-1.192a.813.813,0,0,0,.1.119l5.5,5.279-4.118,1.193A.729.729,0,0,0-305.38,5097.127Zm10.352-9.722,5.5,5.279-4.118,1.193a.813.813,0,0,0-.1-.119l-5.5-5.279,4.119-1.193A.732.732,0,0,0-295.028,5087.4Zm-5.814,1.685,5.5,5.278-4.118,1.194a.728.728,0,0,0-.1-.12l-5.5-5.279,4.118-1.193A.813.813,0,0,0-300.842,5089.09Zm11.584-3.5a2.734,2.734,0,0,1,.76-.108,2.771,2.771,0,0,1,2.652,1.987l1.11,3.831-3.1.9a.861.861,0,0,0-.1-.12l-5.5-5.278Zm-25.411,8.2a2.734,2.734,0,0,1,1.643-1.319l.454-.131a.813.813,0,0,0,.1.119l5.5,5.279-6.82,1.976-1.11-3.831A2.733,2.733,0,0,1-314.669,5093.789Zm1.119,7.654h6.8l-3.282,5.684h-3.514Zm23.458,5.684,3.282-5.684h3.514v5.684Z" fill="#039be5" fill-rule="evenodd"/>
        <path id="Path_104083" data-name="Path 104083" d="M-293.081,5115.227a.773.773,0,0,0-.387-.669l-6.787-3.918a.771.771,0,0,0-.772,0,.772.772,0,0,0-.386.669v7.837a.773.773,0,0,0,.386.669.772.772,0,0,0,.386.1.772.772,0,0,0,.386-.1l6.787-3.919A.774.774,0,0,0-293.081,5115.227Zm-6.787,2.581v-5.161l4.469,2.58Z" fill="#039be5" fill-rule="evenodd"/>
        <path id="Path_104084" data-name="Path 104084" d="M-298.423,5121.94a.774.774,0,0,0-.773.772.774.774,0,0,0,.773.773.773.773,0,0,0,.772-.773A.773.773,0,0,0-298.423,5121.94Z" fill="#039be5" fill-rule="evenodd"/>
      </g>
      <g id="Group_59763" data-name="Group 59763">
        <path id="Path_104085" data-name="Path 104085" d="M-525.142,5114.519a3.234,3.234,0,0,0-1.558.4,18.261,18.261,0,0,1-3.853-11.209,18.251,18.251,0,0,1,18.231-18.231,18.382,18.382,0,0,1,3.631.361.772.772,0,0,0,.91-.6.773.773,0,0,0-.6-.911,19.916,19.916,0,0,0-3.937-.392,19.648,19.648,0,0,0-13.984,5.793,19.647,19.647,0,0,0-5.792,13.984,19.81,19.81,0,0,0,4.256,12.256,3.223,3.223,0,0,0-.544,1.8,3.222,3.222,0,0,0,.95,2.294,3.225,3.225,0,0,0,2.294.951,3.225,3.225,0,0,0,2.3-.951,3.224,3.224,0,0,0,.95-2.294,3.219,3.219,0,0,0-.95-2.294A3.224,3.224,0,0,0-525.142,5114.519Zm1.2,4.447a1.688,1.688,0,0,1-1.2.5,1.686,1.686,0,0,1-1.2-.5,1.689,1.689,0,0,1-.5-1.2,1.689,1.689,0,0,1,.5-1.2,1.686,1.686,0,0,1,1.2-.5,1.69,1.69,0,0,1,1.2.5,1.689,1.689,0,0,1,.5,1.2A1.689,1.689,0,0,1-523.94,5118.966Z" fill="#039be5"/>
        <path id="Path_104086" data-name="Path 104086" d="M-496.8,5091.451a3.251,3.251,0,0,0-.4-4.093,3.225,3.225,0,0,0-2.3-.951,3.225,3.225,0,0,0-2.294.951,3.222,3.222,0,0,0-.95,2.294,3.219,3.219,0,0,0,.95,2.294,3.223,3.223,0,0,0,2.294.951,3.238,3.238,0,0,0,1.559-.4,18.269,18.269,0,0,1,3.853,11.209,18.253,18.253,0,0,1-18.232,18.232,18.4,18.4,0,0,1-3.6-.355.773.773,0,0,0-.909.606.773.773,0,0,0,.606.909,19.936,19.936,0,0,0,3.9.385,19.648,19.648,0,0,0,13.984-5.793,19.644,19.644,0,0,0,5.793-13.984A19.81,19.81,0,0,0-496.8,5091.451Zm-3.9-.6a1.685,1.685,0,0,1-.5-1.2,1.686,1.686,0,0,1,.5-1.2,1.683,1.683,0,0,1,1.2-.5,1.687,1.687,0,0,1,1.2.5,1.7,1.7,0,0,1,0,2.4,1.69,1.69,0,0,1-1.2.5A1.686,1.686,0,0,1-500.7,5090.854Z" fill="#039be5"/>
        <path id="Path_104087" data-name="Path 104087" d="M-515.51,5117a.774.774,0,0,0,.773.773h4.83a.773.773,0,0,0,.773-.773v-1.5a12.1,12.1,0,0,0,2.9-1.2l1.058,1.058a.774.774,0,0,0,.546.226.772.772,0,0,0,.546-.227l3.414-3.416a.772.772,0,0,0,0-1.093l-1.056-1.056a12.135,12.135,0,0,0,1.2-2.9h1.492a.772.772,0,0,0,.772-.773v-4.83a.772.772,0,0,0-.772-.773h-1.492a12.13,12.13,0,0,0-1.2-2.9l1.051-1.05a.773.773,0,0,0,.226-.547.772.772,0,0,0-.227-.546l-3.416-3.414a.772.772,0,0,0-1.093,0l-1.049,1.049a12.116,12.116,0,0,0-2.9-1.2v-1.483a.773.773,0,0,0-.773-.773h-4.83a.774.774,0,0,0-.773.773v1.484a12.107,12.107,0,0,0-2.9,1.2l-1.049-1.049a.771.771,0,0,0-1.092,0l-3.417,3.414a.772.772,0,0,0-.227.546.774.774,0,0,0,.227.547l1.05,1.05a12.126,12.126,0,0,0-1.2,2.9h-1.49a.772.772,0,0,0-.772.772l0,4.831a.772.772,0,0,0,.226.546.773.773,0,0,0,.547.227h1.492a12.131,12.131,0,0,0,1.2,2.9l-1.056,1.056a.773.773,0,0,0,0,1.093l3.414,3.416a.774.774,0,0,0,.546.227h0a.775.775,0,0,0,.546-.226l1.057-1.058a12.13,12.13,0,0,0,2.9,1.2Zm-2.6-4.324a.775.775,0,0,0-.966.1l-.94.941-2.322-2.324.939-.94a.773.773,0,0,0,.1-.966,10.577,10.577,0,0,1-1.463-3.531.773.773,0,0,0-.756-.61h-1.327l0-3.286h1.325a.773.773,0,0,0,.756-.61,10.575,10.575,0,0,1,1.463-3.531.772.772,0,0,0-.1-.966l-.933-.933,2.324-2.323.932.934a.774.774,0,0,0,.966.1,10.573,10.573,0,0,1,3.531-1.463.773.773,0,0,0,.61-.755v-1.32h3.286v1.319a.774.774,0,0,0,.61.756,10.544,10.544,0,0,1,3.531,1.463.773.773,0,0,0,.966-.1l.933-.933,2.324,2.323-.934.933a.773.773,0,0,0-.1.966,10.577,10.577,0,0,1,1.464,3.531.772.772,0,0,0,.755.61h1.327v3.286h-1.327a.772.772,0,0,0-.755.61,10.579,10.579,0,0,1-1.464,3.531.774.774,0,0,0,.1.966l.94.939-2.323,2.324-.94-.94a.774.774,0,0,0-.966-.1,10.574,10.574,0,0,1-3.531,1.464.772.772,0,0,0-.61.755v1.333h-3.286v-1.333a.772.772,0,0,0-.61-.755A10.575,10.575,0,0,1-518.106,5112.671Z" fill="#039be5"/>
        <path id="Path_104088" data-name="Path 104088" d="M-505.938,5103.708a6.39,6.39,0,0,0-6.384-6.383,6.39,6.39,0,0,0-6.383,6.383,6.39,6.39,0,0,0,6.383,6.383A6.39,6.39,0,0,0-505.938,5103.708Zm-11.222,0a4.843,4.843,0,0,1,4.838-4.838,4.843,4.843,0,0,1,4.838,4.838,4.843,4.843,0,0,1-4.838,4.838A4.843,4.843,0,0,1-517.16,5103.708Z" fill="#039be5"/>
        <path id="Path_104089" data-name="Path 104089" d="M-505.209,5086.853a.778.778,0,0,0,.547-.226.785.785,0,0,0,.226-.547.779.779,0,0,0-.226-.546.779.779,0,0,0-.547-.227.772.772,0,0,0-.545.227.778.778,0,0,0-.227.546.78.78,0,0,0,.227.547A.771.771,0,0,0-505.209,5086.853Z" fill="#039be5"/>
        <path id="Path_104090" data-name="Path 104090" d="M-519.4,5120.577a.775.775,0,0,0-.546.226.777.777,0,0,0-.227.546.774.774,0,0,0,.227.546.776.776,0,0,0,.546.227.778.778,0,0,0,.546-.227.776.776,0,0,0,.226-.546.776.776,0,0,0-.226-.546A.777.777,0,0,0-519.4,5120.577Z" fill="#039be5"/>
      </g>
    </g>
    <g id="Group_59767" data-name="Group 59767" style="mix-blend-mode: multiply;isolation: isolate">
      <g id="Group_59765" data-name="Group 59765">
        <path id="Path_104091" data-name="Path 104091" d="M-300.341,4912.632a.773.773,0,0,0-.773.773.772.772,0,0,0,.773.772.772.772,0,0,0,.772-.772A.773.773,0,0,0-300.341,4912.632Z" fill="#039be5"/>
        <path id="Path_104092" data-name="Path 104092" d="M-313.165,4926.538a.773.773,0,0,0,.772-.773.772.772,0,0,0-.772-.772.772.772,0,0,0-.773.772A.774.774,0,0,0-313.165,4926.538Z" fill="#039be5"/>
        <path id="Path_104093" data-name="Path 104093" d="M-294.161,4904.907c-6.955,0-12.663,4.795-13.1,10.835-6.623.332-12.852,5.108-12.852,11.568a10.8,10.8,0,0,0,3.013,7.388,4.7,4.7,0,0,1-1.242,4.426.771.771,0,0,0-.167.842.771.771,0,0,0,.714.477,8.524,8.524,0,0,0,5.9-2.386,17.631,17.631,0,0,0,5.374.841c6.954,0,12.662-4.794,13.105-10.833a17.325,17.325,0,0,0,4.63-.824,8.521,8.521,0,0,0,5.9,2.387.772.772,0,0,0,.713-.477.771.771,0,0,0-.167-.842,4.7,4.7,0,0,1-1.242-4.426,10.8,10.8,0,0,0,3.013-7.388C-280.565,4909.783-287.273,4904.907-294.161,4904.907Zm-12.361,32.446a15.6,15.6,0,0,1-5.292-.912.774.774,0,0,0-.856.2,6.97,6.97,0,0,1-3.467,2.058,6.248,6.248,0,0,0,.471-4.6.774.774,0,0,0-.189-.327,9.281,9.281,0,0,1-2.718-6.46c0-5.444,5.519-10.043,12.051-10.043,6.169,0,11.588,4.29,11.588,10.043C-294.934,4932.848-300.132,4937.353-306.522,4937.353Zm21.694-14.4a.774.774,0,0,0-.189.327,6.248,6.248,0,0,0,.471,4.6,6.971,6.971,0,0,1-3.467-2.058.774.774,0,0,0-.856-.2,15.2,15.2,0,0,1-4.551.892,11.062,11.062,0,0,0-4.174-7.706h10.076a.772.772,0,0,0,.773-.772.773.773,0,0,0-.773-.773h-12.45a14.405,14.405,0,0,0-5.749-1.522c.444-5.189,5.457-9.293,11.556-9.293,6.532,0,12.051,4.6,12.051,10.043A9.281,9.281,0,0,1-284.828,4922.955Z" fill="#039be5"/>
        <path id="Path_104094" data-name="Path 104094" d="M-300.341,4924.993h-9.734a.772.772,0,0,0-.773.772.773.773,0,0,0,.773.773h9.734a.773.773,0,0,0,.772-.773A.772.772,0,0,0-300.341,4924.993Z" fill="#039be5"/>
        <path id="Path_104095" data-name="Path 104095" d="M-300.341,4929.628h-12.824a.772.772,0,0,0-.773.772.773.773,0,0,0,.773.773h12.824a.772.772,0,0,0,.772-.773A.772.772,0,0,0-300.341,4929.628Z" fill="#039be5"/>
        <path id="Path_104096" data-name="Path 104096" d="M-287.518,4912.632h-9.733a.773.773,0,0,0-.773.773.772.772,0,0,0,.773.772h9.733a.772.772,0,0,0,.773-.772A.773.773,0,0,0-287.518,4912.632Z" fill="#039be5"/>
      </g>
      <g id="Group_59766" data-name="Group 59766">
        <path id="Path_104097" data-name="Path 104097" d="M-509.336,4917.963a6.806,6.806,0,0,0-6.8,6.8,6.807,6.807,0,0,0,6.8,6.8,6.806,6.806,0,0,0,6.8-6.8A6.806,6.806,0,0,0-509.336,4917.963Zm0,12.052a5.259,5.259,0,0,1-5.253-5.254,5.259,5.259,0,0,1,5.253-5.253,5.259,5.259,0,0,1,5.253,5.253A5.259,5.259,0,0,1-509.336,4930.015Z" fill="#039be5"/>
        <path id="Path_104098" data-name="Path 104098" d="M-509.336,4921.285a.772.772,0,0,0-.772.773.771.771,0,0,0,.772.772,1.933,1.933,0,0,1,1.931,1.931.773.773,0,0,0,.773.773.773.773,0,0,0,.772-.773A3.48,3.48,0,0,0-509.336,4921.285Z" fill="#039be5"/>
        <path id="Path_104099" data-name="Path 104099" d="M-528.522,4910.81a.773.773,0,0,0-1.041-.331.772.772,0,0,0-.331,1.041l2.079,4.017a.783.783,0,0,0,.7.418.773.773,0,0,0,.685-.439l1.259-2.621,1.367,2.642a.773.773,0,0,0,.686.418h.012a.775.775,0,0,0,.685-.439l1.929-4.017a.772.772,0,0,0-.362-1.03.772.772,0,0,0-1.031.362l-1.259,2.621-1.367-2.642a.78.78,0,0,0-.7-.418.774.774,0,0,0-.685.439l-1.259,2.621Z" fill="#039be5"/>
        <path id="Path_104100" data-name="Path 104100" d="M-523.551,4906.53a.783.783,0,0,0,.546-.226.78.78,0,0,0,.226-.547.778.778,0,0,0-.226-.546.781.781,0,0,0-.546-.226.778.778,0,0,0-.546.226.778.778,0,0,0-.227.546.781.781,0,0,0,.227.547A.779.779,0,0,0-523.551,4906.53Z" fill="#039be5"/>
        <path id="Path_104101" data-name="Path 104101" d="M-493.731,4918.272v-10.2a3.094,3.094,0,0,0-3.09-3.09h-23.486a.773.773,0,0,0-.772.772.772.772,0,0,0,.772.773h23.486a1.547,1.547,0,0,1,1.545,1.545v10.2a1.547,1.547,0,0,1-1.545,1.545h-3.708c-.023,0-.044,0-.066,0a10.1,10.1,0,0,0-5.43-4.541l1.145-2.384,1.367,2.641a.773.773,0,0,0,.686.418h.012a.773.773,0,0,0,.685-.439l1.929-4.017a.771.771,0,0,0-.362-1.03.772.772,0,0,0-1.031.362l-1.258,2.621-1.368-2.642a.777.777,0,0,0-.7-.417.769.769,0,0,0-.684.438l-1.259,2.621-1.368-2.642a.773.773,0,0,0-1.041-.331.772.772,0,0,0-.331,1.041l1.71,3.3a10.072,10.072,0,0,0-1.445-.1,9.994,9.994,0,0,0-2.74.38l1.729-3.6a.773.773,0,0,0-.362-1.03.771.771,0,0,0-1.031.362l-1.259,2.621-1.368-2.642a.773.773,0,0,0-.7-.417.772.772,0,0,0-.685.438l-1.259,2.621-1.367-2.642a.773.773,0,0,0-1.041-.331.771.771,0,0,0-.331,1.041l2.079,4.017a.782.782,0,0,0,.7.418.772.772,0,0,0,.684-.439l1.259-2.62,1.368,2.641a.758.758,0,0,0,.081.123,10.11,10.11,0,0,0-4.5,4.157h-12.12a1.547,1.547,0,0,1-1.545-1.545v-10.2a1.547,1.547,0,0,1,1.545-1.545h3.166a.773.773,0,0,0,.773-.773.773.773,0,0,0-.773-.772h-3.166a3.093,3.093,0,0,0-3.09,3.09v10.2a3.093,3.093,0,0,0,3.09,3.09h11.408a10.008,10.008,0,0,0-.593,3.4,10.054,10.054,0,0,0,10.043,10.043,9.981,9.981,0,0,0,5-1.336l6.131,6.131a2.609,2.609,0,0,0,1.852.766,2.609,2.609,0,0,0,1.852-.766,2.622,2.622,0,0,0,0-3.705l-2.409-2.409a.774.774,0,0,0-1.092,0,.773.773,0,0,0,0,1.093l2.409,2.409a1.076,1.076,0,0,1,0,1.52,1.075,1.075,0,0,1-1.519,0l-5.929-5.929a10.026,10.026,0,0,0,3.746-7.817,9.984,9.984,0,0,0-.593-3.4h3.065A3.093,3.093,0,0,0-493.731,4918.272Zm-15.605,14.987a8.508,8.508,0,0,1-8.5-8.5,8.508,8.508,0,0,1,8.5-8.5,8.507,8.507,0,0,1,8.5,8.5A8.507,8.507,0,0,1-509.336,4933.259Z" fill="#039be5"/>
        <path id="Path_104102" data-name="Path 104102" d="M-499.833,4931.653a.782.782,0,0,0-.226.546.784.784,0,0,0,.226.547.784.784,0,0,0,.547.226.781.781,0,0,0,.546-.226.78.78,0,0,0,.226-.547.778.778,0,0,0-.226-.546.775.775,0,0,0-.546-.226A.778.778,0,0,0-499.833,4931.653Z" fill="#039be5"/>
      </g>
    </g>
    <g id="Group_59772" data-name="Group 59772" style="mix-blend-mode: multiply;isolation: isolate">
      <g id="Group_59769" data-name="Group 59769">
        <g id="Group_59768" data-name="Group 59768">
          <path id="Path_104103" data-name="Path 104103" d="M-257.293,5011.331a15.634,15.634,0,0,0-4.494-9.483,15.5,15.5,0,0,0-7.631-4.19v-1.963a2.63,2.63,0,0,0,1.993-2.549,2.629,2.629,0,0,0-2.627-2.626h-5.562a2.63,2.63,0,0,0-2.627,2.626,2.63,2.63,0,0,0,1.993,2.549v1.969a15.515,15.515,0,0,0-7.608,4.184,15.763,15.763,0,0,0-1.311,1.489l-.059,0h-5.5a.773.773,0,0,0-.773.773.772.772,0,0,0,.773.772h4.512a15.474,15.474,0,0,0-1.37,2.969H-296a.773.773,0,0,0-.773.773.772.772,0,0,0,.773.772h7.971a15.688,15.688,0,0,0-.383,2.97h-3.417a.773.773,0,0,0-.772.772.773.773,0,0,0,.772.773h3.441a15.609,15.609,0,0,0,.483,2.969h-5.005a.773.773,0,0,0-.773.773.772.772,0,0,0,.773.772h5.5a15.526,15.526,0,0,0,3.553,5.5,15.632,15.632,0,0,0,9.492,4.494q.767.076,1.531.076a15.65,15.65,0,0,0,8.517-2.517.773.773,0,0,0,.225-1.069.772.772,0,0,0-1.069-.226,14.117,14.117,0,0,1-17.6-1.851,14.076,14.076,0,0,1,0-19.884,14.076,14.076,0,0,1,19.884,0,14.12,14.12,0,0,1,1.86,17.588.774.774,0,0,0,.228,1.069.771.771,0,0,0,1.068-.227A15.655,15.655,0,0,0-257.293,5011.331Zm-19.4-18.184a1.083,1.083,0,0,1,1.082-1.082h5.562a1.083,1.083,0,0,1,1.082,1.082,1.082,1.082,0,0,1-1.082,1.081h-5.562A1.083,1.083,0,0,1-276.7,4993.147Zm1.993,4.251v-1.625h3.74v1.622A15.761,15.761,0,0,0-274.7,4997.4Z" fill="#039be5"/>
          <path id="Path_104104" data-name="Path 104104" d="M-262.333,5022.6a.776.776,0,0,0-.546.227.774.774,0,0,0-.226.546.777.777,0,0,0,.226.546.773.773,0,0,0,.546.226.775.775,0,0,0,.547-.226.781.781,0,0,0,.226-.546.778.778,0,0,0-.226-.546A.78.78,0,0,0-262.333,5022.6Z" fill="#039be5"/>
          <path id="Path_104105" data-name="Path 104105" d="M-272.821,5000.9a12,12,0,0,0-11.984,11.984,12,12,0,0,0,11.984,11.984,12,12,0,0,0,11.984-11.984A12,12,0,0,0-272.821,5000.9Zm0,22.423a10.451,10.451,0,0,1-10.439-10.439,10.451,10.451,0,0,1,10.439-10.439,10.451,10.451,0,0,1,10.439,10.439A10.451,10.451,0,0,1-272.821,5023.322Z" fill="#039be5"/>
          <path id="Path_104106" data-name="Path 104106" d="M-267.934,5006.9l-3.827,3.826a2.386,2.386,0,0,0-1.06-.248,2.387,2.387,0,0,0-1.061.248l-1.712-1.713a.774.774,0,0,0-1.093,0,.774.774,0,0,0,0,1.093l1.713,1.712a2.392,2.392,0,0,0-.248,1.061,2.4,2.4,0,0,0,2.4,2.4,2.4,2.4,0,0,0,2.4-2.4,2.391,2.391,0,0,0-.247-1.061l3.714-3.714h0l.112-.112a.772.772,0,0,0,0-1.092A.772.772,0,0,0-267.934,5006.9Zm-4.887,6.834a.856.856,0,0,1-.856-.855.857.857,0,0,1,.856-.856.856.856,0,0,1,.855.856A.855.855,0,0,1-272.821,5013.738Z" fill="#039be5"/>
          <path id="Path_104107" data-name="Path 104107" d="M-264.561,5012.12h-.716a.772.772,0,0,0-.773.772.773.773,0,0,0,.773.773h.716a.773.773,0,0,0,.772-.773A.772.772,0,0,0-264.561,5012.12Z" fill="#039be5"/>
          <path id="Path_104108" data-name="Path 104108" d="M-280.365,5012.1h-.716a.772.772,0,0,0-.773.772.773.773,0,0,0,.773.773h.716a.773.773,0,0,0,.772-.773A.772.772,0,0,0-280.365,5012.1Z" fill="#039be5"/>
          <path id="Path_104109" data-name="Path 104109" d="M-272.812,5006.111a.772.772,0,0,0,.773-.772v-.716a.773.773,0,0,0-.773-.773.772.772,0,0,0-.772.773v.716A.772.772,0,0,0-272.812,5006.111Z" fill="#039be5"/>
          <path id="Path_104110" data-name="Path 104110" d="M-272.831,5019.655a.772.772,0,0,0-.772.772v.716a.773.773,0,0,0,.772.772.773.773,0,0,0,.773-.772v-.716A.772.772,0,0,0-272.831,5019.655Z" fill="#039be5"/>
          <path id="Path_104111" data-name="Path 104111" d="M-296,5016.877a.779.779,0,0,0-.546.226.778.778,0,0,0-.227.547.776.776,0,0,0,.227.546.779.779,0,0,0,.546.226.781.781,0,0,0,.546-.226.777.777,0,0,0,.226-.546.777.777,0,0,0-.226-.547A.781.781,0,0,0-296,5016.877Z" fill="#039be5"/>
        </g>
      </g>
      <g id="Group_59771" data-name="Group 59771">
        <g id="Group_59770" data-name="Group 59770">
          <path id="Path_104112" data-name="Path 104112" d="M-532.982,5006.22a9.322,9.322,0,0,0-3.61.72.743.743,0,0,0-.4.973.744.744,0,0,0,.973.4,7.834,7.834,0,0,1,3.036-.606,7.892,7.892,0,0,1,7.883,7.883,7.893,7.893,0,0,1-7.883,7.884,7.893,7.893,0,0,1-7.883-7.884,7.831,7.831,0,0,1,.6-3.032.743.743,0,0,0-.4-.972.744.744,0,0,0-.972.4,9.31,9.31,0,0,0-.719,3.6,9.382,9.382,0,0,0,9.371,9.371,9.382,9.382,0,0,0,9.371-9.371,9.381,9.381,0,0,0-9.371-9.37Z" fill="#039be5"/>
          <path id="Path_104113" data-name="Path 104113" d="M-532.982,5021.689a6.105,6.105,0,0,0,6.1-6.1,6.1,6.1,0,0,0-6.1-6.1,6.1,6.1,0,0,0-6.1,6.1A6.105,6.105,0,0,0-532.982,5021.689Zm0-10.71a4.616,4.616,0,0,1,4.611,4.611,4.616,4.616,0,0,1-4.611,4.611,4.616,4.616,0,0,1-4.611-4.611A4.616,4.616,0,0,1-532.982,5010.979Z" fill="#039be5"/>
          <path id="Path_104114" data-name="Path 104114" d="M-522.326,5002.65h-2.263l-2.6-4.4a.745.745,0,0,0-.641-.365h-10.312a.745.745,0,0,0-.641.365l-2.6,4.4h-4.251v-.893a2.68,2.68,0,0,0-2.677-2.677,2.68,2.68,0,0,0-2.677,2.677v.893h-1.881a3.776,3.776,0,0,0-3.772,3.772v18.337a3.776,3.776,0,0,0,3.772,3.772h30.535a3.776,3.776,0,0,0,3.772-3.772v-18.337a3.776,3.776,0,0,0-3.772-3.772Zm-15.388-3.273h9.464l1.934,3.273h-13.332Zm-11.779,2.38a1.192,1.192,0,0,1,1.19-1.19,1.192,1.192,0,0,1,1.19,1.19v.893h-2.38Zm29.451,23a2.287,2.287,0,0,1-2.284,2.285h-30.535a2.287,2.287,0,0,1-2.284-2.285v-18.337a2.287,2.287,0,0,1,2.284-2.285h30.535a2.287,2.287,0,0,1,2.284,2.285v18.337Z" fill="#039be5"/>
          <path id="Path_104115" data-name="Path 104115" d="M-532.982,5014.14a1.452,1.452,0,0,1,1.45,1.45.744.744,0,0,0,.744.744.744.744,0,0,0,.744-.744,2.941,2.941,0,0,0-2.938-2.937.744.744,0,0,0-.744.743A.744.744,0,0,0-532.982,5014.14Z" fill="#039be5"/>
          <path id="Path_104116" data-name="Path 104116" d="M-532.982,4995.933a.744.744,0,0,0,.744-.743v-3.97a.745.745,0,0,0-.744-.744.744.744,0,0,0-.744.744v3.97A.744.744,0,0,0-532.982,4995.933Z" fill="#039be5"/>
          <path id="Path_104117" data-name="Path 104117" d="M-529.443,4995.933a.742.742,0,0,0,.526-.217l2.729-2.729a.745.745,0,0,0,0-1.052.745.745,0,0,0-1.052,0l-2.729,2.729a.745.745,0,0,0,0,1.052.742.742,0,0,0,.526.217Z" fill="#039be5"/>
          <path id="Path_104118" data-name="Path 104118" d="M-537.047,4995.716a.742.742,0,0,0,.526.217.742.742,0,0,0,.526-.217.745.745,0,0,0,0-1.052l-2.729-2.729a.745.745,0,0,0-1.052,0,.745.745,0,0,0,0,1.052Z" fill="#039be5"/>
          <path id="Path_104119" data-name="Path 104119" d="M-546.369,5008.748h-3.868a.744.744,0,0,0-.743.744.744.744,0,0,0,.743.744h3.868a.744.744,0,0,0,.743-.744A.744.744,0,0,0-546.369,5008.748Z" fill="#039be5"/>
          <path id="Path_104120" data-name="Path 104120" d="M-539.084,5010.236a.751.751,0,0,0,.526-.218.752.752,0,0,0,.218-.526.751.751,0,0,0-.218-.526.751.751,0,0,0-.526-.218.755.755,0,0,0-.526.218.746.746,0,0,0-.218.526.749.749,0,0,0,.218.526A.753.753,0,0,0-539.084,5010.236Z" fill="#039be5"/>
        </g>
      </g>
    </g>
    <path id="Path_104121" data-name="Path 104121" d="M-260.837,5055.848a5.052,5.052,0,0,0-5.047,5.047,5.052,5.052,0,0,0,5.047,5.047,5.052,5.052,0,0,0,5.047-5.047A5.052,5.052,0,0,0-260.837,5055.848Zm0,8.6a3.555,3.555,0,0,1-3.551-3.551,3.555,3.555,0,0,1,3.551-3.551,3.555,3.555,0,0,1,3.551,3.551A3.555,3.555,0,0,1-260.837,5064.446Z" fill="#039be5" style="mix-blend-mode: multiply;isolation: isolate"/>
    <path id="Path_104122" data-name="Path 104122" d="M-545.626,5066.581a5.052,5.052,0,0,0-5.046,5.047,5.052,5.052,0,0,0,5.046,5.047,5.052,5.052,0,0,0,5.047-5.047A5.053,5.053,0,0,0-545.626,5066.581Zm0,8.6a3.555,3.555,0,0,1-3.551-3.551,3.555,3.555,0,0,1,3.551-3.551,3.555,3.555,0,0,1,3.552,3.551A3.556,3.556,0,0,1-545.626,5075.179Z" fill="#039be5" style="mix-blend-mode: multiply;isolation: isolate"/>
    <path id="Path_104123" data-name="Path 104123" d="M-501.2,4958.917a5.053,5.053,0,0,0-5.047,5.047,5.053,5.053,0,0,0,5.047,5.047,5.053,5.053,0,0,0,5.046-5.047A5.052,5.052,0,0,0-501.2,4958.917Zm0,8.6a3.555,3.555,0,0,1-3.552-3.551,3.555,3.555,0,0,1,3.552-3.551,3.555,3.555,0,0,1,3.551,3.551A3.555,3.555,0,0,1-501.2,4967.515Z" fill="#039be5" style="mix-blend-mode: multiply;isolation: isolate"/>
    <path id="Path_104124" data-name="Path 104124" d="M-292.37,4955.366a5.052,5.052,0,0,0-5.047,5.047,5.053,5.053,0,0,0,5.047,5.047,5.053,5.053,0,0,0,5.047-5.047A5.052,5.052,0,0,0-292.37,4955.366Zm0,8.6a3.555,3.555,0,0,1-3.551-3.551,3.555,3.555,0,0,1,3.551-3.551,3.555,3.555,0,0,1,3.551,3.551A3.555,3.555,0,0,1-292.37,4963.964Z" fill="#039be5" style="mix-blend-mode: multiply;isolation: isolate"/>
    <circle id="Ellipse_4057" data-name="Ellipse 4057" cx="2.364" cy="2.364" r="2.364" transform="translate(-509.821 5035.25)" fill="#039be5" style="mix-blend-mode: multiply;isolation: isolate"/>
    <circle id="Ellipse_4058" data-name="Ellipse 4058" cx="2.364" cy="2.364" r="2.364" transform="translate(-494.909 5133.998)" fill="#039be5" style="mix-blend-mode: multiply;isolation: isolate"/>
    <circle id="Ellipse_4059" data-name="Ellipse 4059" cx="2.364" cy="2.364" r="2.364" transform="translate(-553.344 4902.621)" fill="#039be5" style="mix-blend-mode: multiply;isolation: isolate"/>
    <circle id="Ellipse_4060" data-name="Ellipse 4060" cx="2.364" cy="2.364" r="2.364" transform="translate(-313.429 4988.113)" fill="#039be5" style="mix-blend-mode: multiply;isolation: isolate"/>
    <circle id="Ellipse_4061" data-name="Ellipse 4061" cx="2.364" cy="2.364" r="2.364" transform="translate(-287.169 4877.591)" fill="#039be5" style="mix-blend-mode: multiply;isolation: isolate"/>
    <circle id="Ellipse_4062" data-name="Ellipse 4062" cx="2.364" cy="2.364" r="2.364" transform="translate(-316.301 5076.184)" fill="#039be5" style="mix-blend-mode: multiply;isolation: isolate"/>
  </g>
</svg>
