<svg xmlns="http://www.w3.org/2000/svg" width="50" height="50.13" viewBox="0 0 50 50.13">
  <g id="t1-ic4" transform="translate(-0.663)">
    <path id="Path_102986" data-name="Path 102986" d="M47.71,0h-31.5a2.953,2.953,0,0,0-2.953,2.953V23.327H4.6A3.937,3.937,0,0,0,.663,27.264v7.874A3.937,3.937,0,0,0,4.6,39.075h8.661v8.443a.984.984,0,0,0,1.68.7L16.9,46.257l1.353,3.267a.981.981,0,0,0,1.286.533l3.637-1.506a.987.987,0,0,0,.533-1.286L22.354,44h2.767a.985.985,0,0,0,.7-1.68l-3.242-3.242h3.678a3.937,3.937,0,0,0,3.937-3.937V33.465H49.679a.984.984,0,0,0,.984-.984V2.953A2.953,2.953,0,0,0,47.71,0ZM15.23,2.953a.985.985,0,0,1,.984-.984h31.5a.985.985,0,0,1,.984.984V7.874H15.23Zm5.651,39.076a.984.984,0,0,0-.909,1.361l1.54,3.719-1.819.753-1.54-3.719a.99.99,0,0,0-1.605-.319L15.23,45.141V34.513l7.516,7.515H20.881Zm7.341-6.891a1.971,1.971,0,0,1-1.969,1.969H20.607l-5.665-5.665a.985.985,0,0,0-1.68.7v4.969H4.6a1.971,1.971,0,0,1-1.969-1.969V27.264A1.971,1.971,0,0,1,4.6,25.3H26.254a1.971,1.971,0,0,1,1.969,1.969ZM30.191,31.5V27.264a3.941,3.941,0,0,0-3.937-3.937H15.23V9.843H48.695V31.5ZM19.167,4.921a.984.984,0,1,1-.984-.984A.984.984,0,0,1,19.167,4.921Zm4.429,0a.984.984,0,1,1-.984-.984A.984.984,0,0,1,23.6,4.921Zm4.429,0a.984.984,0,1,1-.984-.984A.984.984,0,0,1,28.025,4.921ZM21.431,12.8a.984.984,0,0,1-.984.984h-1.28v1.476a.984.984,0,0,1-1.969,0V12.8a.984.984,0,0,1,.984-.984h2.264A.984.984,0,0,1,21.431,12.8Zm25.3,0v2.461a.984.984,0,0,1-1.969,0V13.78h-1.28a.984.984,0,0,1,0-1.969h2.264A.984.984,0,0,1,46.726,12.8Zm-16.043,0a.984.984,0,0,1-.984.984H24.876a.984.984,0,0,1,0-1.969H29.7A.984.984,0,0,1,30.683,12.8Zm9.35,0a.984.984,0,0,1-.984.984H34.226a.984.984,0,0,1,0-1.969h4.823A.984.984,0,0,1,40.033,12.8Zm0,13.78a.984.984,0,0,1-.984.984H34.226a.984.984,0,0,1,0-1.969h4.823A.984.984,0,0,1,40.033,26.575Zm6.693-2.461v2.461a.984.984,0,0,1-.984.984H43.478a.984.984,0,0,1,0-1.969h1.28V24.114a.984.984,0,0,1,1.969,0Zm0-4.429a.984.984,0,1,1-.984-.984A.986.986,0,0,1,46.726,19.685Zm-27.559,0a.984.984,0,1,1-.984-.984A.986.986,0,0,1,19.167,19.685Z" fill="#ffa726"/>
  </g>
</svg>
