<svg xmlns="http://www.w3.org/2000/svg" width="54" height="60" viewBox="0 0 54 60">
  <g id="t3-ic1" transform="translate(-5 -2)">
    <path id="Path_103939" data-name="Path 103939" d="M41,7a5.006,5.006,0,0,0-5-5H10A5.006,5.006,0,0,0,5,7V57a5.006,5.006,0,0,0,5,5H36a5.006,5.006,0,0,0,5-5V47.962q.724-.546,1.4-1.153L43.586,48l-2,2L52.465,60.879a3.828,3.828,0,0,0,5.414-5.414L47,44.586l-2,2L43.809,45.4A19.9,19.9,0,0,0,41,16.038ZM56.465,56.879a1.829,1.829,0,1,1-2.586,2.586L47.414,53,50,50.414ZM48.586,49,46,51.586,44.414,50,47,47.414ZM7,57V56H20.78a2.954,2.954,0,0,0,0,4H10A3,3,0,0,1,7,57Zm16,2a1,1,0,1,1,1-1A1,1,0,0,1,23,59Zm16-2a3,3,0,0,1-3,3H25.22a2.954,2.954,0,0,0,0-4H39Zm8-25A18,18,0,1,1,29,14,18,18,0,0,1,47,32ZM29,12A20,20,0,1,0,39,49.294V54H7V10H39v4.706A19.853,19.853,0,0,0,29,12ZM7,8V7a3,3,0,0,1,3-3H36a3,3,0,0,1,3,3V8Z" fill="#ffa726"/>
    <path id="Path_103940" data-name="Path 103940" d="M23.71,5.29a1.047,1.047,0,0,0-1.42,0,1.032,1.032,0,0,0-.21.33A1,1,0,0,0,22,6a.838.838,0,0,0,.08.38,1.169,1.169,0,0,0,.21.33,1.032,1.032,0,0,0,.33.21.99.99,0,0,0,1.09-.21,1.169,1.169,0,0,0,.21-.33.942.942,0,0,0,0-.76,1.155,1.155,0,0,0-.21-.33Z" fill="#ffa726"/>
    <path id="Path_103941" data-name="Path 103941" d="M18,31H28V21H18Zm2-8h6v6H20Z" fill="#ffa726"/>
    <path id="Path_103942" data-name="Path 103942" d="M18,43H28V33H18Zm2-8h6v6H20Z" fill="#ffa726"/>
    <path id="Path_103943" data-name="Path 103943" d="M40,21H30V31H40Zm-2,8H32V23h6Z" fill="#ffa726"/>
    <rect id="Rectangle_7511" data-name="Rectangle 7511" width="2" height="2" transform="translate(22 25)" fill="#ffa726"/>
    <rect id="Rectangle_7512" data-name="Rectangle 7512" width="2" height="2" transform="translate(34 25)" fill="#ffa726"/>
    <rect id="Rectangle_7513" data-name="Rectangle 7513" width="2" height="2" transform="translate(22 37)" fill="#ffa726"/>
    <path id="Path_103944" data-name="Path 103944" d="M36,35H34V33H30v2h2v2h4Z" fill="#ffa726"/>
    <path id="Path_103945" data-name="Path 103945" d="M32,43h2V39H32V37H30v4h2Z" fill="#ffa726"/>
    <rect id="Rectangle_7514" data-name="Rectangle 7514" width="2" height="2" transform="translate(36 41)" fill="#ffa726"/>
    <rect id="Rectangle_7515" data-name="Rectangle 7515" width="2" height="2" transform="translate(38 33)" fill="#ffa726"/>
    <path id="Path_103946" data-name="Path 103946" d="M38,39v2h2V37H36v2Z" fill="#ffa726"/>
  </g>
</svg>
