<svg xmlns="http://www.w3.org/2000/svg" width="30.543" height="50" viewBox="0 0 30.543 50">
  <g id="t4-ic1" transform="translate(-527 -572.465)">
    <g id="descargar" transform="translate(521.75 572.465)">
      <path id="Path_103971" data-name="Path 103971" d="M12.542,25.229A1.042,1.042,0,0,1,11.5,24.188V8.042a1.042,1.042,0,1,1,2.083,0V24.188A1.041,1.041,0,0,1,12.542,25.229Z" transform="translate(8.125 7.583)" fill="#ffa726"/>
      <path id="Path_103972" data-name="Path 103972" d="M15.25,19.791a1.046,1.046,0,0,1-.738-.3L9.3,14.278a1.042,1.042,0,0,1,1.473-1.473l4.473,4.471,4.471-4.471a1.042,1.042,0,0,1,1.473,1.473l-5.208,5.208A1.038,1.038,0,0,1,15.25,19.791Z" transform="translate(5.416 13.542)" fill="#ffa726"/>
      <path id="Path_103973" data-name="Path 103973" d="M24.708,23.333H10.125A3.129,3.129,0,0,1,7,20.208V16.042a1.042,1.042,0,1,1,2.083,0v4.167a1.042,1.042,0,0,0,1.042,1.042H24.708a1.042,1.042,0,0,0,1.042-1.042V16.042a1.042,1.042,0,1,1,2.083,0v4.167A3.129,3.129,0,0,1,24.708,23.333Z" transform="translate(3.25 16.25)" fill="#ffa726"/>
    </g>
    <g id="web-movil" transform="translate(419 572.465)">
      <path id="Path_103974" data-name="Path 103974" d="M124.255,49.016a.984.984,0,1,1-.984-.984A.985.985,0,0,1,124.255,49.016ZM111.937,50A3.937,3.937,0,0,1,108,46.063V3.937A3.937,3.937,0,0,1,111.937,0h22.669a3.937,3.937,0,0,1,3.937,3.937V46.063A3.937,3.937,0,0,1,134.606,50H127.7a.986.986,0,0,1-.982-1.053,1.008,1.008,0,0,1,1.017-.916h6.871a1.976,1.976,0,0,0,1.969-1.969V3.937a1.968,1.968,0,0,0-1.969-1.969h-3.029a1.633,1.633,0,0,0-1.544,1.223,3.6,3.6,0,0,1-3.5,2.714h-6.533a3.6,3.6,0,0,1-3.5-2.714,1.633,1.633,0,0,0-1.544-1.223h-3.029a1.968,1.968,0,0,0-1.969,1.969V46.063a1.976,1.976,0,0,0,1.969,1.969h6.87a1.008,1.008,0,0,1,1.017.916A.985.985,0,0,1,118.842,50ZM128.4,1.969H118.14a3.543,3.543,0,0,1,.279.743,1.629,1.629,0,0,0,1.586,1.226h6.533a1.629,1.629,0,0,0,1.586-1.226A3.552,3.552,0,0,1,128.4,1.969Z" fill="#ffa726"/>
    </g>
  </g>
</svg>
