<svg xmlns="http://www.w3.org/2000/svg" xmlns:xlink="http://www.w3.org/1999/xlink" width="400.513" height="545" viewBox="0 0 400.513 545">
  <defs>
    <linearGradient id="linear-gradient" x1="-0.866" y1="0.84" x2="-0.866" y2="-0.313" gradientUnits="objectBoundingBox">
      <stop offset="0" stop-color="#12263f" stop-opacity="0.302"/>
      <stop offset="0.81" stop-color="#fff" stop-opacity="0"/>
    </linearGradient>
    <linearGradient id="linear-gradient-2" x1="24.22" y1="1.389" x2="24.176" y2="0.127" gradientUnits="objectBoundingBox">
      <stop offset="0" stop-color="#fff" stop-opacity="0"/>
      <stop offset="0.749" stop-color="#ffa726"/>
    </linearGradient>
    <linearGradient id="linear-gradient-3" x1="17.114" y1="1.46" x2="17.114" y2="0.389" gradientUnits="objectBoundingBox">
      <stop offset="0.336" stop-color="#fff" stop-opacity="0"/>
      <stop offset="0.749" stop-color="#ffa726"/>
    </linearGradient>
  </defs>
  <g id="t5-i3" transform="translate(582.674 -3773.555)">
    <rect id="Rectángulo_7517" data-name="Rectángulo 7517" width="400" height="545" transform="translate(-582.161 3773.555)" fill="none"/>
    <g id="Group_59706" data-name="Group 59706">
      <g id="Group_59701" data-name="Group 59701">
        <path id="Path_103988" data-name="Path 103988" d="M-309.5,4083.163a1.383,1.383,0,0,0,.444-.083,1.176,1.176,0,0,0,.377-.262,1.1,1.1,0,0,0,.345-.822,1.142,1.142,0,0,0-.345-.839,1.014,1.014,0,0,0-.377-.246,1.222,1.222,0,0,0-.9,0,1.4,1.4,0,0,0-.378.246,1.217,1.217,0,0,0-.345.839,1.028,1.028,0,0,0,.1.444.833.833,0,0,0,.245.378,1.417,1.417,0,0,0,.378.262A1.407,1.407,0,0,0-309.5,4083.163Z" fill="#bcf4fa"/>
      </g>
      <g id="Group_59702" data-name="Group 59702">
        <path id="Path_103989" data-name="Path 103989" d="M-309.5,4210.422h0a1.174,1.174,0,0,1-1.181-1.167h0a1.179,1.179,0,0,1,1.181-1.184h0a1.175,1.175,0,0,1,1.166,1.184A1.169,1.169,0,0,1-309.5,4210.422Zm0-6.706h0a1.164,1.164,0,0,1-1.181-1.167h0a1.188,1.188,0,0,1,1.181-1.184h0a1.184,1.184,0,0,1,1.166,1.184A1.16,1.16,0,0,1-309.5,4203.716Zm0-6.69h0a1.175,1.175,0,0,1-1.181-1.167h0a1.178,1.178,0,0,1,1.181-1.184h0a1.174,1.174,0,0,1,1.166,1.184A1.171,1.171,0,0,1-309.5,4197.026Zm0-6.691h0a1.177,1.177,0,0,1-1.181-1.183h0a1.175,1.175,0,0,1,1.181-1.167h0a1.17,1.17,0,0,1,1.166,1.167A1.173,1.173,0,0,1-309.5,4190.335Zm0-6.706h0a1.174,1.174,0,0,1-1.181-1.167h0a1.178,1.178,0,0,1,1.181-1.183h0a1.173,1.173,0,0,1,1.166,1.183A1.17,1.17,0,0,1-309.5,4183.629Zm0-6.69h0a1.178,1.178,0,0,1-1.181-1.183h0a1.175,1.175,0,0,1,1.181-1.167h0a1.17,1.17,0,0,1,1.166,1.167A1.173,1.173,0,0,1-309.5,4176.939Zm0-6.707h0a1.174,1.174,0,0,1-1.181-1.167h0a1.178,1.178,0,0,1,1.181-1.183h0a1.174,1.174,0,0,1,1.166,1.183A1.169,1.169,0,0,1-309.5,4170.232Zm0-6.69h0a1.177,1.177,0,0,1-1.181-1.183h0a1.174,1.174,0,0,1,1.181-1.167h0a1.17,1.17,0,0,1,1.166,1.167A1.173,1.173,0,0,1-309.5,4163.542Zm0-6.706h0a1.174,1.174,0,0,1-1.181-1.167h0a1.178,1.178,0,0,1,1.181-1.183h0a1.173,1.173,0,0,1,1.166,1.183A1.17,1.17,0,0,1-309.5,4156.836Zm0-6.69h0a1.178,1.178,0,0,1-1.181-1.184h0a1.175,1.175,0,0,1,1.181-1.167h0a1.171,1.171,0,0,1,1.166,1.167A1.174,1.174,0,0,1-309.5,4150.146Zm0-6.707h0a1.174,1.174,0,0,1-1.181-1.167h0a1.178,1.178,0,0,1,1.181-1.183h0a1.174,1.174,0,0,1,1.166,1.183A1.169,1.169,0,0,1-309.5,4143.439Zm0-6.689h0a1.179,1.179,0,0,1-1.181-1.184h0a1.174,1.174,0,0,1,1.181-1.167h0a1.169,1.169,0,0,1,1.166,1.167A1.174,1.174,0,0,1-309.5,4136.75Zm0-6.707h0a1.175,1.175,0,0,1-1.181-1.167h0a1.174,1.174,0,0,1,1.181-1.167h0a1.17,1.17,0,0,1,1.166,1.167A1.171,1.171,0,0,1-309.5,4130.043Zm0-6.691h0a1.177,1.177,0,0,1-1.181-1.183h0A1.174,1.174,0,0,1-309.5,4121h0a1.17,1.17,0,0,1,1.166,1.167A1.173,1.173,0,0,1-309.5,4123.352Zm0-6.705h0a1.175,1.175,0,0,1-1.181-1.167h0a1.175,1.175,0,0,1,1.181-1.168h0a1.17,1.17,0,0,1,1.166,1.168A1.171,1.171,0,0,1-309.5,4116.647Zm0-6.691h0a1.174,1.174,0,0,1-1.181-1.167h0a1.178,1.178,0,0,1,1.181-1.183h0a1.173,1.173,0,0,1,1.166,1.183A1.17,1.17,0,0,1-309.5,4109.956Zm0-6.69h0a1.178,1.178,0,0,1-1.181-1.184h0a1.175,1.175,0,0,1,1.181-1.167h0a1.171,1.171,0,0,1,1.166,1.167A1.174,1.174,0,0,1-309.5,4103.266Zm0-6.707h0a1.174,1.174,0,0,1-1.181-1.167h0a1.178,1.178,0,0,1,1.181-1.183h0a1.174,1.174,0,0,1,1.166,1.183A1.169,1.169,0,0,1-309.5,4096.559Zm0-6.689h0a1.179,1.179,0,0,1-1.181-1.184h0a1.174,1.174,0,0,1,1.181-1.167h0a1.17,1.17,0,0,1,1.166,1.167A1.174,1.174,0,0,1-309.5,4089.87Z" fill="#bcf4fa"/>
      </g>
      <g id="Group_59703" data-name="Group 59703">
        <path id="Path_103990" data-name="Path 103990" d="M-309.5,4217.112a1.044,1.044,0,0,0,.444-.082,1.131,1.131,0,0,0,.377-.246,1.167,1.167,0,0,0,.345-.839,1.313,1.313,0,0,0-.082-.444,1.293,1.293,0,0,0-.263-.394,1.23,1.23,0,0,0-1.657,0,1.223,1.223,0,0,0-.245.394,1.028,1.028,0,0,0-.1.444.979.979,0,0,0,.1.444.991.991,0,0,0,.245.4,1.351,1.351,0,0,0,.378.246A1.074,1.074,0,0,0-309.5,4217.112Z" fill="#bcf4fa"/>
      </g>
      <g id="Group_59704" data-name="Group 59704">
        <path id="Path_103991" data-name="Path 103991" d="M-408.106,4217.129h0a1.186,1.186,0,0,1-1.165-1.184h0a1.161,1.161,0,0,1,1.165-1.167h0a1.163,1.163,0,0,1,1.181,1.167A1.188,1.188,0,0,1-408.106,4217.129Zm6.58,0h0a1.186,1.186,0,0,1-1.165-1.184h0a1.161,1.161,0,0,1,1.165-1.167h0a1.165,1.165,0,0,1,1.183,1.167A1.189,1.189,0,0,1-401.526,4217.129Zm6.582,0h0a1.189,1.189,0,0,1-1.183-1.184h0a1.165,1.165,0,0,1,1.183-1.167h0a1.16,1.16,0,0,1,1.165,1.167A1.185,1.185,0,0,1-394.944,4217.129Zm6.564,0h0a1.185,1.185,0,0,1-1.165-1.184h0a1.16,1.16,0,0,1,1.165-1.167h0a1.164,1.164,0,0,1,1.181,1.167A1.188,1.188,0,0,1-388.38,4217.129Zm6.58,0h0a1.188,1.188,0,0,1-1.181-1.184h0a1.163,1.163,0,0,1,1.181-1.167h0a1.161,1.161,0,0,1,1.166,1.167A1.186,1.186,0,0,1-381.8,4217.129Zm6.565,0h0a1.186,1.186,0,0,1-1.166-1.184h0a1.161,1.161,0,0,1,1.166-1.167h0a1.163,1.163,0,0,1,1.181,1.167A1.188,1.188,0,0,1-375.235,4217.129Zm6.58,0h0a1.188,1.188,0,0,1-1.181-1.184h0a1.164,1.164,0,0,1,1.181-1.167h0a1.16,1.16,0,0,1,1.165,1.167A1.185,1.185,0,0,1-368.655,4217.129Zm6.564,0h0a1.185,1.185,0,0,1-1.165-1.184h0a1.16,1.16,0,0,1,1.165-1.167h0a1.163,1.163,0,0,1,1.181,1.167A1.188,1.188,0,0,1-362.091,4217.129Zm6.58,0h0a1.175,1.175,0,0,1-1.165-1.184h0a1.151,1.151,0,0,1,1.165-1.167h0a1.16,1.16,0,0,1,1.165,1.167A1.185,1.185,0,0,1-355.511,4217.129Zm6.564,0h0a1.186,1.186,0,0,1-1.165-1.184h0a1.161,1.161,0,0,1,1.165-1.167h0a1.165,1.165,0,0,1,1.183,1.167A1.189,1.189,0,0,1-348.947,4217.129Zm6.582,0h0a1.185,1.185,0,0,1-1.165-1.184h0a1.16,1.16,0,0,1,1.165-1.167h0a1.151,1.151,0,0,1,1.165,1.167A1.175,1.175,0,0,1-342.365,4217.129Zm6.58,0h0a1.188,1.188,0,0,1-1.181-1.184h0a1.163,1.163,0,0,1,1.181-1.167h0a1.161,1.161,0,0,1,1.165,1.167A1.186,1.186,0,0,1-335.785,4217.129Zm6.564,0h0a1.186,1.186,0,0,1-1.165-1.184h0a1.161,1.161,0,0,1,1.165-1.167h0a1.164,1.164,0,0,1,1.181,1.167A1.188,1.188,0,0,1-329.221,4217.129Zm6.58,0h0a1.189,1.189,0,0,1-1.181-1.184h0a1.165,1.165,0,0,1,1.181-1.167h0a1.16,1.16,0,0,1,1.165,1.167A1.185,1.185,0,0,1-322.641,4217.129Zm6.564,0h0a1.186,1.186,0,0,1-1.165-1.184h0a1.161,1.161,0,0,1,1.165-1.167h0a1.163,1.163,0,0,1,1.181,1.167A1.188,1.188,0,0,1-316.077,4217.129Z" fill="#bcf4fa"/>
      </g>
      <g id="Group_59705" data-name="Group 59705">
        <path id="Path_103992" data-name="Path 103992" d="M-414.67,4217.112a.963.963,0,0,0,.444-.082,1.572,1.572,0,0,0,.393-.246,1.623,1.623,0,0,0,.247-.4,1.027,1.027,0,0,0,.081-.444,1.22,1.22,0,0,0-.328-.838,1.251,1.251,0,0,0-1.673,0,1.647,1.647,0,0,0-.247.394,1.027,1.027,0,0,0-.1.444,1.026,1.026,0,0,0,.1.444,1.268,1.268,0,0,0,.247.4A1.221,1.221,0,0,0-414.67,4217.112Z" fill="#bcf4fa"/>
      </g>
    </g>
    <rect id="Rectangle_7519" data-name="Rectangle 7519" width="138.2" height="46.588" rx="2.987" transform="translate(-218.681 4234.72) rotate(180)" fill="url(#linear-gradient)"/>
    <rect id="Rectangle_7520" data-name="Rectangle 7520" width="138.2" height="46.588" rx="2.987" transform="translate(-214.443 4238.729) rotate(180)" fill="#ffefbf"/>
    <g id="Group_59710" data-name="Group 59710">
      <g id="Group_59708" data-name="Group 59708">
        <g id="Group_59707" data-name="Group 59707">
          <path id="Path_103993" data-name="Path 103993" d="M-510.866,4063.311h-15.608a3.369,3.369,0,0,1-3.365-3.366v-4.025a1.942,1.942,0,0,0-1.478-1.894A55.779,55.779,0,0,1-548.373,4047a1.973,1.973,0,0,0-2.451.252l-2.828,2.828a3.371,3.371,0,0,1-4.76,0l-11.035-11.036a3.372,3.372,0,0,1,0-4.759l2.827-2.826a1.971,1.971,0,0,0,.25-2.451,55.8,55.8,0,0,1-7.032-17.056,1.943,1.943,0,0,0-1.893-1.479h-4.015a3.369,3.369,0,0,1-3.364-3.365V3991.5a3.369,3.369,0,0,1,3.364-3.365h4.013a1.943,1.943,0,0,0,1.893-1.479,55.778,55.778,0,0,1,7.031-17.06,1.973,1.973,0,0,0-.251-2.451l-2.821-2.821a3.37,3.37,0,0,1,0-4.76l11.033-11.035a3.37,3.37,0,0,1,4.76,0l2.82,2.818a1.97,1.97,0,0,0,2.45.251,55.737,55.737,0,0,1,17.065-7.035,1.943,1.943,0,0,0,1.478-1.893v-4.005a3.369,3.369,0,0,1,3.365-3.366h15.608a3.369,3.369,0,0,1,3.365,3.366v4.005a1.943,1.943,0,0,0,1.478,1.893,55.739,55.739,0,0,1,17.06,7.036,1.975,1.975,0,0,0,2.452-.25l2.821-2.821a3.369,3.369,0,0,1,4.76,0l11.035,11.035a3.37,3.37,0,0,1,0,4.76l-2.825,2.824a1.972,1.972,0,0,0-.25,2.451,55.736,55.736,0,0,1,7.028,17.057,1.943,1.943,0,0,0,1.894,1.479h4.017a3.369,3.369,0,0,1,3.365,3.365v15.608a3.369,3.369,0,0,1-3.365,3.365h-4.02a1.944,1.944,0,0,0-1.893,1.479,55.734,55.734,0,0,1-7.029,17.055,1.97,1.97,0,0,0,.25,2.45l2.828,2.827a3.37,3.37,0,0,1,0,4.76l-11.035,11.036a3.371,3.371,0,0,1-4.76,0l-2.829-2.83a1.974,1.974,0,0,0-2.451-.251,55.765,55.765,0,0,1-17.053,7.024,1.943,1.943,0,0,0-1.478,1.893v4.027A3.369,3.369,0,0,1-510.866,4063.311Zm-38.589-17.826a3.245,3.245,0,0,1,1.719.5,54.606,54.606,0,0,0,16.687,6.872,3.154,3.154,0,0,1,2.412,3.066v4.025a2.166,2.166,0,0,0,2.163,2.163h15.608a2.166,2.166,0,0,0,2.163-2.163v-4.027a3.115,3.115,0,0,1,2.412-3.065,54.573,54.573,0,0,0,16.685-6.872,3.169,3.169,0,0,1,3.937.42l2.83,2.83a2.165,2.165,0,0,0,3.059,0l11.035-11.036a2.165,2.165,0,0,0,0-3.058l-2.829-2.827a3.171,3.171,0,0,1-.419-3.938,54.544,54.544,0,0,0,6.877-16.688,3.116,3.116,0,0,1,3.065-2.412h4.02a2.165,2.165,0,0,0,2.163-2.162V3991.5a2.165,2.165,0,0,0-2.163-2.162h-4.017a3.156,3.156,0,0,1-3.066-2.413,54.518,54.518,0,0,0-6.876-16.69,3.17,3.17,0,0,1,.419-3.937l2.826-2.825a2.166,2.166,0,0,0,0-3.059l-11.035-11.035a2.165,2.165,0,0,0-3.059,0l-2.821,2.822a3.172,3.172,0,0,1-3.939.419,54.546,54.546,0,0,0-16.693-6.884,3.115,3.115,0,0,1-2.411-3.065v-4.005a2.166,2.166,0,0,0-2.163-2.163h-15.608a2.166,2.166,0,0,0-2.163,2.163v4.005a3.154,3.154,0,0,1-2.412,3.065,54.553,54.553,0,0,0-16.7,6.883,3.172,3.172,0,0,1-3.938-.42l-2.819-2.819a2.165,2.165,0,0,0-3.059,0l-11.034,11.035a2.166,2.166,0,0,0,0,3.059l2.821,2.822a3.168,3.168,0,0,1,.421,3.936,54.621,54.621,0,0,0-6.879,16.694,3.117,3.117,0,0,1-3.065,2.413h-4.013a2.163,2.163,0,0,0-2.162,2.162v15.608a2.164,2.164,0,0,0,2.162,2.162h4.015a3.116,3.116,0,0,1,3.065,2.412,54.631,54.631,0,0,0,6.88,16.69,3.17,3.17,0,0,1-.419,3.937l-2.827,2.826a2.168,2.168,0,0,0,0,3.059l11.035,11.035a2.165,2.165,0,0,0,3.059,0l2.828-2.828A3.128,3.128,0,0,1-549.455,4045.485Zm30.782-1.573a44.649,44.649,0,0,1-44.579-44.619,44.631,44.631,0,0,1,44.579-44.582,44.632,44.632,0,0,1,44.58,44.582A44.65,44.65,0,0,1-518.673,4043.912Zm0-88a43.427,43.427,0,0,0-43.377,43.379,43.446,43.446,0,0,0,43.377,43.416,43.447,43.447,0,0,0,43.379-43.416A43.428,43.428,0,0,0-518.673,3955.914Z" fill="#bcf4fa"/>
        </g>
      </g>
      <g id="Group_59709" data-name="Group 59709">
        <path id="Path_103994" data-name="Path 103994" d="M-383.485,4059.942v-10.636a1.884,1.884,0,0,0-1.883-1.884h-2.738a1.726,1.726,0,0,1-1.69-1.326,37.648,37.648,0,0,0-4.738-11.5,1.754,1.754,0,0,1,.229-2.176l1.925-1.925a1.884,1.884,0,0,0,0-2.665l-7.52-7.52a1.883,1.883,0,0,0-2.664,0l-1.923,1.922a1.756,1.756,0,0,1-2.178.229,37.638,37.638,0,0,0-11.5-4.744,1.726,1.726,0,0,1-1.325-1.689v-2.73a1.884,1.884,0,0,0-1.884-1.883h-10.636a1.883,1.883,0,0,0-1.884,1.883v2.729a1.727,1.727,0,0,1-1.326,1.69,37.661,37.661,0,0,0-11.5,4.742,1.753,1.753,0,0,1-2.177-.228l-1.921-1.921a1.883,1.883,0,0,0-2.664,0l-7.52,7.52a1.885,1.885,0,0,0,0,2.665l1.923,1.922a1.755,1.755,0,0,1,.229,2.177,37.671,37.671,0,0,0-4.739,11.5,1.727,1.727,0,0,1-1.69,1.326h-2.734a1.884,1.884,0,0,0-1.884,1.884v10.636a1.883,1.883,0,0,0,1.884,1.884h2.735a1.726,1.726,0,0,1,1.69,1.325,37.656,37.656,0,0,0,4.74,11.5,1.754,1.754,0,0,1-.228,2.177l-1.926,1.926a1.883,1.883,0,0,0,0,2.664l7.52,7.521a1.886,1.886,0,0,0,2.665,0l1.927-1.928a1.755,1.755,0,0,1,2.176-.229,37.662,37.662,0,0,0,11.5,4.735,1.727,1.727,0,0,1,1.326,1.69v2.743a1.883,1.883,0,0,0,1.884,1.884h10.636a1.884,1.884,0,0,0,1.884-1.884v-2.744a1.726,1.726,0,0,1,1.326-1.69,37.64,37.64,0,0,0,11.5-4.735,1.755,1.755,0,0,1,2.176.229l1.929,1.929a1.884,1.884,0,0,0,2.664,0l7.52-7.521a1.884,1.884,0,0,0,0-2.664l-1.927-1.927a1.754,1.754,0,0,1-.229-2.177,37.664,37.664,0,0,0,4.739-11.5,1.727,1.727,0,0,1,1.689-1.326h2.74A1.883,1.883,0,0,0-383.485,4059.942Zm-43.211,22.979a28.288,28.288,0,0,1-28.279-28.3,28.283,28.283,0,0,1,28.279-28.281,28.284,28.284,0,0,1,28.281,28.281A28.289,28.289,0,0,1-426.7,4082.921Z" fill="#bcf4fa"/>
      </g>
    </g>
    <g id="Group_59714" data-name="Group 59714">
      <g id="Group_59712" data-name="Group 59712">
        <g id="Group_59711" data-name="Group 59711">
          <path id="Path_103995" data-name="Path 103995" d="M-310.184,3928.941h4.027a1.944,1.944,0,0,0,1.893-1.478,55.794,55.794,0,0,1,7.023-17.053,1.972,1.972,0,0,0-.25-2.451l-2.83-2.829a3.371,3.371,0,0,1,0-4.76l11.036-11.035a3.37,3.37,0,0,1,4.76,0l2.827,2.828a1.97,1.97,0,0,0,2.45.25,55.735,55.735,0,0,1,17.055-7.029,1.945,1.945,0,0,0,1.479-1.893v-4.02a3.369,3.369,0,0,1,3.365-3.365h15.608a3.369,3.369,0,0,1,3.365,3.365v4.017a1.943,1.943,0,0,0,1.479,1.894,55.731,55.731,0,0,1,17.057,7.028,1.971,1.971,0,0,0,2.451-.25l2.824-2.825a3.37,3.37,0,0,1,4.76,0l11.035,11.035a3.369,3.369,0,0,1,0,4.76l-2.821,2.82a1.977,1.977,0,0,0-.25,2.453,55.741,55.741,0,0,1,7.036,17.06,1.944,1.944,0,0,0,1.893,1.478h4a3.37,3.37,0,0,1,3.366,3.365v15.608a3.37,3.37,0,0,1-3.366,3.365h-4a1.943,1.943,0,0,0-1.893,1.478,55.741,55.741,0,0,1-7.035,17.065,1.97,1.97,0,0,0,.251,2.45l2.818,2.82a3.371,3.371,0,0,1,0,4.76l-11.035,11.033a3.37,3.37,0,0,1-4.76,0l-2.821-2.821a1.973,1.973,0,0,0-2.451-.251,55.805,55.805,0,0,1-17.06,7.031,1.943,1.943,0,0,0-1.479,1.893v4.013a3.369,3.369,0,0,1-3.365,3.364h-15.608a3.369,3.369,0,0,1-3.365-3.364v-4.015a1.943,1.943,0,0,0-1.479-1.893,55.83,55.83,0,0,1-17.056-7.032,1.97,1.97,0,0,0-2.451.25l-2.826,2.827a3.373,3.373,0,0,1-4.759,0l-11.036-11.035a3.371,3.371,0,0,1,0-4.76l2.828-2.829a1.971,1.971,0,0,0,.252-2.45,55.787,55.787,0,0,1-7.024-17.056,1.942,1.942,0,0,0-1.894-1.478h-4.025a3.37,3.37,0,0,1-3.366-3.365v-15.608A3.369,3.369,0,0,1-310.184,3928.941Zm13.542,44.173-2.828,2.828a2.165,2.165,0,0,0,0,3.059l11.035,11.035a2.168,2.168,0,0,0,3.059,0l2.826-2.827a3.168,3.168,0,0,1,3.937-.419,54.633,54.633,0,0,0,16.69,6.88,3.116,3.116,0,0,1,2.411,3.065v4.015a2.165,2.165,0,0,0,2.163,2.162h15.608a2.163,2.163,0,0,0,2.162-2.162v-4.013a3.115,3.115,0,0,1,2.413-3.065,54.618,54.618,0,0,0,16.694-6.879,3.168,3.168,0,0,1,3.936.421l2.822,2.821a2.166,2.166,0,0,0,3.059,0L-199.62,3979a2.167,2.167,0,0,0,0-3.059l-2.819-2.819a3.172,3.172,0,0,1-.42-3.938,54.558,54.558,0,0,0,6.883-16.7,3.153,3.153,0,0,1,3.065-2.412h4a2.166,2.166,0,0,0,2.163-2.163v-15.608a2.167,2.167,0,0,0-2.163-2.164h-4a3.114,3.114,0,0,1-3.065-2.41,54.552,54.552,0,0,0-6.884-16.693,3.171,3.171,0,0,1,.419-3.939l2.822-2.821a2.165,2.165,0,0,0,0-3.059l-11.035-11.035a2.166,2.166,0,0,0-3.059,0l-2.825,2.826a3.169,3.169,0,0,1-3.937.419,54.52,54.52,0,0,0-16.69-6.876,3.156,3.156,0,0,1-2.413-3.066v-4.017a2.165,2.165,0,0,0-2.162-2.163h-15.608a2.166,2.166,0,0,0-2.163,2.163v4.02a3.113,3.113,0,0,1-2.411,3.064,54.566,54.566,0,0,0-16.688,6.878,3.17,3.17,0,0,1-3.938-.42l-2.827-2.828a2.165,2.165,0,0,0-3.058,0l-11.036,11.035a2.165,2.165,0,0,0,0,3.059l2.829,2.83a3.168,3.168,0,0,1,.421,3.937,54.561,54.561,0,0,0-6.872,16.685,3.115,3.115,0,0,1-3.065,2.411h-4.027a2.166,2.166,0,0,0-2.163,2.164v15.608a2.166,2.166,0,0,0,2.163,2.163h4.025a3.153,3.153,0,0,1,3.066,2.412,54.582,54.582,0,0,0,6.872,16.687,3.241,3.241,0,0,1,.5,1.719A3.127,3.127,0,0,1-296.642,3973.114Zm47.11-77.582a44.632,44.632,0,0,1,44.582,44.581,44.631,44.631,0,0,1-44.582,44.579,44.649,44.649,0,0,1-44.619-44.579A44.651,44.651,0,0,1-249.532,3895.532Zm0,1.2a43.447,43.447,0,0,0-43.416,43.379,43.446,43.446,0,0,0,43.416,43.377,43.427,43.427,0,0,0,43.379-43.377A43.428,43.428,0,0,0-249.532,3896.734Z" fill="#bcf4fa"/>
        </g>
      </g>
      <g id="Group_59713" data-name="Group 59713">
        <path id="Path_103996" data-name="Path 103996" d="M-448.622,3779.724v2.739a1.729,1.729,0,0,1-1.326,1.69,37.627,37.627,0,0,0-11.5,4.738,1.755,1.755,0,0,1-2.178-.228l-1.926-1.927a1.883,1.883,0,0,0-2.664,0l-7.521,7.52a1.883,1.883,0,0,0,0,2.664l1.929,1.928a1.756,1.756,0,0,1,.228,2.177,37.653,37.653,0,0,0-4.734,11.5,1.729,1.729,0,0,1-1.69,1.326h-2.745a1.883,1.883,0,0,0-1.883,1.884v10.636a1.884,1.884,0,0,0,1.883,1.884H-480a1.727,1.727,0,0,1,1.69,1.326,37.688,37.688,0,0,0,4.734,11.5,1.754,1.754,0,0,1-.229,2.177l-1.927,1.927a1.883,1.883,0,0,0,0,2.664l7.521,7.52a1.883,1.883,0,0,0,2.664,0l1.925-1.925a1.755,1.755,0,0,1,2.177-.229,37.653,37.653,0,0,0,11.5,4.74,1.728,1.728,0,0,1,1.326,1.69v2.736a1.884,1.884,0,0,0,1.884,1.884H-436.1a1.884,1.884,0,0,0,1.883-1.884v-2.735a1.727,1.727,0,0,1,1.326-1.689,37.691,37.691,0,0,0,11.5-4.74,1.753,1.753,0,0,1,2.176.229l1.923,1.923a1.883,1.883,0,0,0,2.664,0l7.521-7.52a1.885,1.885,0,0,0,0-2.664l-1.921-1.921a1.755,1.755,0,0,1-.229-2.177,37.655,37.655,0,0,0,4.743-11.5,1.726,1.726,0,0,1,1.689-1.325h2.729a1.884,1.884,0,0,0,1.884-1.884v-10.636a1.883,1.883,0,0,0-1.884-1.884h-2.729a1.729,1.729,0,0,1-1.69-1.326,37.643,37.643,0,0,0-4.743-11.5,1.754,1.754,0,0,1,.228-2.177l1.923-1.923a1.883,1.883,0,0,0,0-2.664l-7.521-7.521a1.885,1.885,0,0,0-2.664,0l-1.925,1.926a1.753,1.753,0,0,1-2.177.228,37.675,37.675,0,0,0-11.5-4.738,1.727,1.727,0,0,1-1.326-1.69v-2.737a1.883,1.883,0,0,0-1.883-1.884h-10.636A1.883,1.883,0,0,0-448.622,3779.724Zm7.21,13.046a28.284,28.284,0,0,1,28.281,28.281,28.284,28.284,0,0,1-28.281,28.28,28.29,28.29,0,0,1-28.306-28.28A28.29,28.29,0,0,1-441.412,3792.77Z" fill="#bcf4fa"/>
      </g>
    </g>
    <g id="Group_59715" data-name="Group 59715">
      <path id="Path_103997" data-name="Path 103997" d="M-525.953,4013.991a1.227,1.227,0,0,1-1.386-1.389v-6.064a1.239,1.239,0,0,1,.409-.949,1.606,1.606,0,0,1,.853-.442h.316q3.969-.315,5.7-2.654t1.736-7.643a15.522,15.522,0,0,1,1.165-6.221,8.311,8.311,0,0,1,2.934-3.822c.168-.084.242-.19.219-.316a.3.3,0,0,0-.219-.252,8.152,8.152,0,0,1-3-3.791,15.639,15.639,0,0,1-1.165-6.316q0-5.369-1.736-7.675t-5.769-2.622h-.188a1.58,1.58,0,0,1-.853-.442,1.242,1.242,0,0,1-.409-.947v-6.064a1.34,1.34,0,0,1,.409-.979,1.34,1.34,0,0,1,.977-.412h.38a21.16,21.16,0,0,1,6.967,1.233,15.171,15.171,0,0,1,5.52,3.474,15.443,15.443,0,0,1,3.593,5.684,22.4,22.4,0,0,1,1.263,7.865q0,5.371,3.4,7.075l.82.379a3.517,3.517,0,0,1,1.387,1.074,2.707,2.707,0,0,1,.379,1.515v2.4a2.709,2.709,0,0,1-.379,1.515,3.489,3.489,0,0,1-1.387,1.074l-.82.317q-3.4,1.767-3.4,7.137a22.585,22.585,0,0,1-1.263,7.927,15.133,15.133,0,0,1-3.593,5.654,15.358,15.358,0,0,1-5.52,3.442,21.294,21.294,0,0,1-7.031,1.233Z" fill="#ffefbf"/>
      <path id="Path_103998" data-name="Path 103998" d="M-538.061,3954.991a1.315,1.315,0,0,1,1.011.412,1.392,1.392,0,0,1,.376.979v6.064a1.287,1.287,0,0,1-.376.947,1.471,1.471,0,0,1-.883.442l-.316.064q-3.907.315-5.708,2.652t-1.8,7.643a15.783,15.783,0,0,1-1.135,6.128,7.956,7.956,0,0,1-2.965,3.853.3.3,0,0,0-.158.316.311.311,0,0,0,.158.252,7.638,7.638,0,0,1,3,3.791,16.41,16.41,0,0,1,1.1,6.316q0,5.307,1.766,7.643t5.738,2.654H-538a1.394,1.394,0,0,1,.914.442,1.349,1.349,0,0,1,.345.949v6.064a1.369,1.369,0,0,1-.376,1.01,1.359,1.359,0,0,1-1.01.379h-.44a20.647,20.647,0,0,1-6.874-1.233,15.141,15.141,0,0,1-5.456-3.442,16.053,16.053,0,0,1-3.626-5.654,21.66,21.66,0,0,1-1.323-7.927q0-5.369-3.469-7.075l-.819-.379a4.668,4.668,0,0,1-1.263-1.074,2.313,2.313,0,0,1-.44-1.453v-2.464a2.308,2.308,0,0,1,.44-1.451,4.7,4.7,0,0,1,1.263-1.075l.819-.378q3.471-1.768,3.469-7.139a21.919,21.919,0,0,1,1.323-7.959,15.993,15.993,0,0,1,3.626-5.684,14.756,14.756,0,0,1,5.487-3.412,21.7,21.7,0,0,1,6.967-1.2Z" fill="#ffefbf"/>
    </g>
    <g id="Group_59716" data-name="Group 59716">
      <path id="Path_103999" data-name="Path 103999" d="M-573.776,4318.555h370.043a.557.557,0,0,0,.558-.557.558.558,0,0,0-.558-.557H-573.776a.558.558,0,0,0-.557.557A.557.557,0,0,0-573.776,4318.555Z" fill="#fff"/>
    </g>
    <g id="Group_59717" data-name="Group 59717">
      <path id="Trazado_102968" data-name="Trazado 102968" d="M-279.762,4206.522a7.565,7.565,0,0,1,7.125-.869,4.886,4.886,0,0,1,3.107,3.982c-.749.05-1.493.074-2.237.092a3.136,3.136,0,0,0-3.281-2.3c-1.394-.068-3.338.12-3.841,1.677-.411.94.4,1.82,1.219,2.16,2.252.975,4.92.855,6.981,2.313a4.029,4.029,0,0,1,.876,5.631l-.043.057a6.375,6.375,0,0,1-4.855,2.212,7.154,7.154,0,0,1-5.827-1.986,5.674,5.674,0,0,1-1.138-2.8c.738-.01,1.479-.01,2.221-.006.45,2.546,3.578,2.826,5.638,2.429,1.111-.237,2.437-.95,2.508-2.22a1.864,1.864,0,0,0-1.252-1.873c-2.384-1.039-5.266-.823-7.366-2.514a3.954,3.954,0,0,1-.256-5.585A3.959,3.959,0,0,1-279.762,4206.522Z" fill="#12263f"/>
      <path id="Trazado_102969" data-name="Trazado 102969" d="M-337.622,4205.528l2.258-.01q4.235,5.9,8.473,11.792c.064-3.93.01-7.856.028-11.786h2.252v15.6q-1.125,0-2.252.01-4.24-5.889-8.476-11.786c-.068,3.927-.01,7.853-.028,11.778h-2.252Q-337.628,4213.325-337.622,4205.528Z" fill="#12263f"/>
      <path id="Trazado_102970" data-name="Trazado 102970" d="M-311.252,4205.93q1.116-.219,2.237-.415c0,1.408.007,2.815-.015,4.232.756.024,1.511.049,2.267.092-.04.737-.064,1.475-.1,2.217q-1.08-.021-2.153-.032c.061,1.792-.127,3.6.1,5.388.225,1,1.262,1.333,2.107,1.65,0,.691.006,1.387.014,2.082a4.393,4.393,0,0,1-4.415-3.856c-.135-1.755,0-3.514-.074-5.27l-1.947.021v-2.252h1.968C-311.261,4208.5-311.261,4207.213-311.252,4205.93Z" fill="#12263f"/>
      <path id="Trazado_102971" data-name="Trazado 102971" d="M-305.58,4205.528h2.252q0,1.125-.007,2.252h-2.245C-305.587,4207.021-305.58,4206.273-305.58,4205.528Z" fill="#12263f"/>
      <path id="Trazado_102972" data-name="Trazado 102972" d="M-250.613,4205.528h2.252v2.245q-1.127,0-2.252.007Q-250.619,4206.653-250.613,4205.528Z" fill="#12263f"/>
      <path id="Trazado_102973" data-name="Trazado 102973" d="M-233.937,4205.933c.74-.145,1.486-.287,2.233-.419.007,1.408.011,2.815-.01,4.232.749.028,1.5.046,2.252.081-.031.737-.049,1.478-.074,2.22-.727-.01-1.447-.018-2.166-.021a53.686,53.686,0,0,0,.1,5.4c.226.99,1.263,1.323,2.1,1.635v2.092a4.424,4.424,0,0,1-4.412-3.883c-.132-1.749,0-3.5-.071-5.256-.653.01-1.3.018-1.943.028q-.01-1.132,0-2.259h1.968C-233.949,4208.5-233.949,4207.213-233.937,4205.933Z" fill="#12263f"/>
      <path id="Trazado_102974" data-name="Trazado 102974" d="M-322.283,4210.564c1.89-.675,4.039-1.188,5.967-.365a3.943,3.943,0,0,1,2.554,3.455c.064,2.489,0,4.982.021,7.476h-2.266l.071-1.064c-1.894,2.027-5.743,1.947-7.108-.624-1.11-1.922.338-4.355,2.348-4.869a36.313,36.313,0,0,1,4.816-.226c-.135-.694-.259-1.5-.95-1.865-1.536-.919-3.4-.288-4.979.194q-.267-1.051-.479-2.11m1.074,7.043c.323,1.838,2.826,1.884,4.217,1.345,1.224-.376,1.008-1.749,1.049-2.749-1.736.041-4.382-.588-5.265,1.4Z" fill="#12263f"/>
      <path id="Trazado_102975" data-name="Trazado 102975" d="M-290.125,4210.717a4.8,4.8,0,0,1,6.4.635,7.112,7.112,0,0,1,1.7,5.164c-2.72.015-5.444-.015-8.164.015a3.732,3.732,0,0,0,2.027,2.55,3.342,3.342,0,0,0,3.51-1.074c.6.4,1.2.805,1.809,1.206a5.241,5.241,0,0,1-7.29,1.335c-.072-.05-.142-.1-.212-.154a6.371,6.371,0,0,1-.5-8.994,6.372,6.372,0,0,1,.713-.682m-.068,4.019q2.894.027,5.784,0c-.369-1.4-1.5-2.908-3.118-2.7-1.435.1-2.268,1.455-2.663,2.7Z" fill="#12263f"/>
      <path id="Trazado_102976" data-name="Trazado 102976" d="M-267.941,4213.373a5.477,5.477,0,0,1,5.28-3.6,5.779,5.779,0,0,1,4.384,2.171c-.6.451-1.206.883-1.82,1.308a3.474,3.474,0,0,0-4.22-.851,3.822,3.822,0,0,0-1.2,5.269,3.839,3.839,0,0,0,1.2,1.2,3.491,3.491,0,0,0,4.213-.845c.624.419,1.252.848,1.876,1.277a5.818,5.818,0,0,1-6.838,1.709A6.037,6.037,0,0,1-267.941,4213.373Z" fill="#12263f"/>
      <path id="Trazado_102977" data-name="Trazado 102977" d="M-255.135,4211.454a5.433,5.433,0,0,1,3.933-1.734v2.252c-1.567-.04-3.458.563-3.759,2.326a67.3,67.3,0,0,0-.142,6.826h-2.252v-10.988h2.259C-255.107,4210.574-255.125,4211.015-255.135,4211.454Z" fill="#12263f"/>
      <path id="Trazado_102978" data-name="Trazado 102978" d="M-244.159,4211.511a5.038,5.038,0,0,1,3.06-1.705,4.392,4.392,0,0,1,3.866,1.475,6.7,6.7,0,0,1,.9,7.416,4.779,4.779,0,0,1-4.366,2.788,4.726,4.726,0,0,1-3.461-1.742c.1,2,.032,3.994.05,5.993h-2.252v-15.6h2.266c-.024.457-.046.919-.067,1.376m2.23.645c-2.9,1.086-2.9,5.877,0,6.952,1.929.709,3.829-1.008,4.029-2.884.472-2.23-1.628-4.934-4.025-4.068Z" fill="#12263f"/>
      <path id="Trazado_102979" data-name="Trazado 102979" d="M-305.584,4210.139h2.252v10.993h-2.252Z" fill="#12263f"/>
      <path id="Trazado_102980" data-name="Trazado 102980" d="M-302.765,4210.135c.808,0,1.617,0,2.43.018q1.452,3.894,2.958,7.769c.968-2.589,1.989-5.157,2.927-7.757.812-.028,1.625-.039,2.444-.042-1.337,3.664-2.8,7.277-4.115,10.947-.815.04-1.628.061-2.44.078C-299.992,4217.494-301.368,4213.809-302.765,4210.135Z" fill="#12263f"/>
      <path id="Trazado_102981" data-name="Trazado 102981" d="M-250.613,4210.139h2.252v10.993h-2.252Z" fill="#12263f"/>
    </g>
    <g id="Group_59731" data-name="Group 59731">
      <g id="Group_59718" data-name="Group 59718">
        <rect id="Rectangle_7521" data-name="Rectangle 7521" width="206.74" height="399.38" rx="21.349" transform="translate(-446.417 3777.247)" fill="#12263f"/>
        <path id="Rectangle_7521_-_Outline" data-name="Rectangle 7521 - Outline" d="M21.349-.155H185.391a21.486,21.486,0,0,1,21.5,21.5V378.031a21.486,21.486,0,0,1-21.5,21.5H21.349a21.486,21.486,0,0,1-21.5-21.5V21.349a21.486,21.486,0,0,1,21.5-21.5Zm164.042,399.38a21.218,21.218,0,0,0,21.194-21.194V21.349A21.218,21.218,0,0,0,185.391.155H21.349A21.218,21.218,0,0,0,.155,21.349V378.031a21.218,21.218,0,0,0,21.194,21.194Z" transform="translate(-446.417 3777.247)" fill="#fff"/>
        <rect id="Rectangle_7522" data-name="Rectangle 7522" width="198.998" height="390.207" rx="18.7" transform="translate(-442.546 3780.744)" fill="#fff"/>
        <path id="Path_104000" data-name="Path 104000" d="M-252.259,3801.782v346.366a14.71,14.71,0,0,1-14.709,14.709H-419.126a14.709,14.709,0,0,1-14.709-14.709V3801.782a14.709,14.709,0,0,1,14.709-14.709h25.373a3.719,3.719,0,0,1,3.326,2.054l2.694,5.379a7.271,7.271,0,0,0,6.519,4.037h76.334a7.269,7.269,0,0,0,6.518-4.037l2.694-5.379a3.72,3.72,0,0,1,3.326-2.054h25.374A14.71,14.71,0,0,1-252.259,3801.782Z" fill="#ebebeb"/>
        <path id="Path_104001" data-name="Path 104001" d="M-311.013,3792.251h-61.48a2.589,2.589,0,0,1-2.589-2.589h0a2.589,2.589,0,0,1,2.589-2.589h61.48a2.589,2.589,0,0,1,2.589,2.589h0A2.589,2.589,0,0,1-311.013,3792.251Z" fill="#ebebeb"/>
      </g>
      <g id="Group_59719" data-name="Group 59719">
        <path id="Path_104002" data-name="Path 104002" d="M-275.488,4151.36h-2.981a.525.525,0,0,1-.526-.525.525.525,0,0,1,.526-.526h2.981a.524.524,0,0,1,.315.1.525.525,0,0,1,.307-.128,8.179,8.179,0,0,0,2.7-.673.527.527,0,0,1,.693.27.526.526,0,0,1-.27.693,9.265,9.265,0,0,1-3.051.758.517.517,0,0,1-.353-.1A.529.529,0,0,1-275.488,4151.36Zm-5.963,0h-2.982a.525.525,0,0,1-.525-.525.525.525,0,0,1,.525-.526h2.982a.525.525,0,0,1,.526.526A.525.525,0,0,1-281.451,4151.36Zm-5.963,0H-290.4a.525.525,0,0,1-.525-.525.525.525,0,0,1,.525-.526h2.982a.525.525,0,0,1,.525.526A.525.525,0,0,1-287.414,4151.36Zm-5.963,0h-2.982a.525.525,0,0,1-.525-.525.525.525,0,0,1,.525-.526h2.982a.525.525,0,0,1,.525.526A.525.525,0,0,1-293.377,4151.36Zm-5.963,0h-2.982a.525.525,0,0,1-.526-.525.525.525,0,0,1,.526-.526h2.982a.525.525,0,0,1,.525.526A.525.525,0,0,1-299.34,4151.36Zm-5.964,0h-2.982a.525.525,0,0,1-.525-.525.525.525,0,0,1,.525-.526h2.982a.525.525,0,0,1,.525.526A.525.525,0,0,1-305.3,4151.36Zm-5.963,0h-2.982a.525.525,0,0,1-.525-.525.525.525,0,0,1,.525-.526h2.982a.525.525,0,0,1,.525.526A.525.525,0,0,1-311.267,4151.36Zm-5.963,0h-2.982a.525.525,0,0,1-.526-.525.525.525,0,0,1,.526-.526h2.982a.525.525,0,0,1,.525.526A.525.525,0,0,1-317.23,4151.36Zm-5.964,0h-2.981a.525.525,0,0,1-.526-.525.525.525,0,0,1,.526-.526h2.981a.525.525,0,0,1,.526.526A.525.525,0,0,1-323.194,4151.36Zm-5.963,0h-2.981a.525.525,0,0,1-.526-.525.525.525,0,0,1,.526-.526h2.981a.525.525,0,0,1,.526.526A.525.525,0,0,1-329.157,4151.36Zm-5.963,0H-338.1a.525.525,0,0,1-.525-.525.525.525,0,0,1,.525-.526h2.982a.525.525,0,0,1,.526.526A.525.525,0,0,1-335.12,4151.36Zm-5.963,0h-2.982a.525.525,0,0,1-.525-.525.525.525,0,0,1,.525-.526h2.982a.525.525,0,0,1,.525.526A.525.525,0,0,1-341.083,4151.36Zm-5.964,0h-2.981a.525.525,0,0,1-.526-.525.525.525,0,0,1,.526-.526h2.981a.525.525,0,0,1,.526.526A.525.525,0,0,1-347.047,4151.36Zm-5.963,0h-2.982a.525.525,0,0,1-.525-.525.525.525,0,0,1,.525-.526h2.982a.525.525,0,0,1,.525.526A.525.525,0,0,1-353.01,4151.36Zm-5.963,0h-2.982a.525.525,0,0,1-.525-.525.525.525,0,0,1,.525-.526h2.982a.525.525,0,0,1,.525.526A.525.525,0,0,1-358.973,4151.36Zm-5.963,0h-2.982a.525.525,0,0,1-.525-.525.525.525,0,0,1,.525-.526h2.982a.525.525,0,0,1,.525.526A.525.525,0,0,1-364.936,4151.36Zm-5.964,0h-2.981a.525.525,0,0,1-.526-.525.525.525,0,0,1,.526-.526h2.981a.525.525,0,0,1,.526.526A.525.525,0,0,1-370.9,4151.36Zm-5.963,0h-2.981a.525.525,0,0,1-.526-.525.525.525,0,0,1,.526-.526h2.981a.525.525,0,0,1,.526.526A.525.525,0,0,1-376.863,4151.36Zm-5.963,0h-2.981a.525.525,0,0,1-.526-.525.525.525,0,0,1,.526-.526h2.981a.526.526,0,0,1,.526.526A.526.526,0,0,1-382.826,4151.36Zm-5.964,0h-2.981a.525.525,0,0,1-.526-.525.525.525,0,0,1,.526-.526h2.981a.525.525,0,0,1,.526.526A.525.525,0,0,1-388.79,4151.36Zm-5.963,0h-2.981a.525.525,0,0,1-.526-.525.525.525,0,0,1,.526-.526h2.981a.525.525,0,0,1,.526.526A.525.525,0,0,1-394.753,4151.36Zm-5.963,0H-403.7a.525.525,0,0,1-.526-.525.525.525,0,0,1,.526-.526h2.981a.525.525,0,0,1,.526.526A.525.525,0,0,1-400.716,4151.36Zm-5.963,0h-2.982a.525.525,0,0,1-.525-.525.525.525,0,0,1,.525-.526h2.982a.525.525,0,0,1,.525.526A.525.525,0,0,1-406.679,4151.36Zm-5.963,0h-1.508a9.4,9.4,0,0,1-1.553-.129.526.526,0,0,1-.432-.606.521.521,0,0,1,.605-.431,8.38,8.38,0,0,0,1.38.115h1.508a.525.525,0,0,1,.525.526A.525.525,0,0,1-412.642,4151.36Zm-5.776-1.1a.532.532,0,0,1-.254-.066,9.315,9.315,0,0,1-2.453-1.966.526.526,0,0,1,.044-.742.526.526,0,0,1,.742.044,8.251,8.251,0,0,0,2.177,1.745.525.525,0,0,1,.2.714A.525.525,0,0,1-418.418,4150.259Zm148.945-1.272a.523.523,0,0,1-.384-.166.526.526,0,0,1,.025-.743,8.3,8.3,0,0,0,1.689-2.221.526.526,0,0,1,.709-.223.526.526,0,0,1,.223.709,9.394,9.394,0,0,1-1.9,2.5A.528.528,0,0,1-269.473,4148.987Zm-152.83-3.1a.526.526,0,0,1-.486-.327,9.273,9.273,0,0,1-.681-3.07.526.526,0,0,1,.5-.55.522.522,0,0,1,.551.5,8.22,8.22,0,0,0,.6,2.723.527.527,0,0,1-.288.686A.537.537,0,0,1-422.3,4145.888Zm155.535-2.087a.644.644,0,0,1-.075,0,.525.525,0,0,1-.446-.594,8.324,8.324,0,0,0,.082-1.173v-1.73a.525.525,0,0,1,.526-.525.525.525,0,0,1,.525.525v1.73a9.5,9.5,0,0,1-.092,1.32A.527.527,0,0,1-266.768,4143.8Zm-156.188-3.791a.525.525,0,0,1-.525-.526V4136.5a.525.525,0,0,1,.525-.526.525.525,0,0,1,.526.526v2.981A.525.525,0,0,1-422.956,4140.01Zm156.275-2.168a.525.525,0,0,1-.526-.525v-2.982a.525.525,0,0,1,.526-.525.525.525,0,0,1,.525.525v2.982A.525.525,0,0,1-266.681,4137.842Zm-156.275-3.795a.525.525,0,0,1-.525-.526v-2.981a.525.525,0,0,1,.525-.526.525.525,0,0,1,.526.526v2.981A.525.525,0,0,1-422.956,4134.047Zm156.275-2.168a.525.525,0,0,1-.526-.525v-2.982a.525.525,0,0,1,.526-.525.525.525,0,0,1,.525.525v2.982A.525.525,0,0,1-266.681,4131.879Zm-156.275-3.795a.525.525,0,0,1-.525-.526v-2.981a.525.525,0,0,1,.525-.526.526.526,0,0,1,.526.526v2.981A.525.525,0,0,1-422.956,4128.084Zm156.275-2.168a.525.525,0,0,1-.526-.526v-2.981a.526.526,0,0,1,.526-.526.525.525,0,0,1,.525.526v2.981A.525.525,0,0,1-266.681,4125.916Zm-156.275-3.795a.526.526,0,0,1-.525-.526v-2.982a.525.525,0,0,1,.525-.525.525.525,0,0,1,.526.525v2.982A.526.526,0,0,1-422.956,4122.121Zm156.275-2.168a.526.526,0,0,1-.526-.526v-2.981a.525.525,0,0,1,.526-.526.525.525,0,0,1,.525.526v2.981A.525.525,0,0,1-266.681,4119.953Zm-156.275-3.8a.525.525,0,0,1-.525-.525v-2.982a.525.525,0,0,1,.525-.525.525.525,0,0,1,.526.525v2.982A.525.525,0,0,1-422.956,4116.156Zm156.275-2.166a.526.526,0,0,1-.526-.526v-2.981a.525.525,0,0,1,.526-.526.525.525,0,0,1,.525.526v2.981A.525.525,0,0,1-266.681,4113.99Zm-156.275-3.8a.525.525,0,0,1-.525-.525v-2.982a.525.525,0,0,1,.525-.525.525.525,0,0,1,.526.525v2.982A.525.525,0,0,1-422.956,4110.193Zm156.275-2.166a.525.525,0,0,1-.526-.526v-2.982a.525.525,0,0,1,.526-.526.525.525,0,0,1,.525.526v2.982A.525.525,0,0,1-266.681,4108.027Zm-156.275-3.8a.525.525,0,0,1-.525-.525v-2.982a.525.525,0,0,1,.525-.525.525.525,0,0,1,.526.525v2.982A.525.525,0,0,1-422.956,4104.23Zm156.275-2.167a.525.525,0,0,1-.526-.526v-2.981a.526.526,0,0,1,.526-.526.525.525,0,0,1,.525.526v2.981A.525.525,0,0,1-266.681,4102.063Zm-156.275-3.8a.525.525,0,0,1-.525-.525v-2.982a.525.525,0,0,1,.525-.525.525.525,0,0,1,.526.525v2.982A.525.525,0,0,1-422.956,4098.267Zm156.275-2.167a.525.525,0,0,1-.526-.526v-2.981a.525.525,0,0,1,.526-.526.525.525,0,0,1,.525.526v2.981A.525.525,0,0,1-266.681,4096.1Zm-156.274-3.8h-.005a.525.525,0,0,1-.521-.53,9.282,9.282,0,0,1,.56-3.094.528.528,0,0,1,.674-.314.525.525,0,0,1,.313.673,8.25,8.25,0,0,0-.5,2.745A.525.525,0,0,1-422.955,4092.3Zm155.988-2.143a.526.526,0,0,1-.508-.392,8.2,8.2,0,0,0-1.153-2.54.526.526,0,0,1,.141-.73.528.528,0,0,1,.73.141,9.252,9.252,0,0,1,1.3,2.862.526.526,0,0,1-.375.642A.52.52,0,0,1-266.967,4090.161Zm-153.99-3.354a.525.525,0,0,1-.333-.119.526.526,0,0,1-.072-.74,9.358,9.358,0,0,1,2.374-2.061.528.528,0,0,1,.722.177.525.525,0,0,1-.176.722,8.285,8.285,0,0,0-2.108,1.829A.527.527,0,0,1-420.957,4086.807Zm150.711-1.489a.523.523,0,0,1-.312-.1,8.267,8.267,0,0,0-2.488-1.26.525.525,0,0,1-.348-.657.522.522,0,0,1,.656-.347,9.282,9.282,0,0,1,2.806,1.42.525.525,0,0,1,.109.735A.525.525,0,0,1-270.246,4085.318Zm-145.711-1.544a.526.526,0,0,1-.515-.419.526.526,0,0,1,.408-.621,9.535,9.535,0,0,1,1.913-.2h1.163a.525.525,0,0,1,.525.526.525.525,0,0,1-.525.525h-1.162a8.471,8.471,0,0,0-1.7.175A.489.489,0,0,1-415.957,4083.774Zm140.124-.186h-2.982a.526.526,0,0,1-.526-.525.526.526,0,0,1,.526-.526h2.982a.525.525,0,0,1,.525.526A.525.525,0,0,1-275.833,4083.588Zm-5.964,0h-2.982a.525.525,0,0,1-.525-.525.525.525,0,0,1,.525-.526h2.982a.525.525,0,0,1,.526.526A.525.525,0,0,1-281.8,4083.588Zm-5.963,0h-2.982a.525.525,0,0,1-.525-.525.525.525,0,0,1,.525-.526h2.982a.525.525,0,0,1,.525.526A.525.525,0,0,1-287.76,4083.588Zm-5.963,0H-296.7a.525.525,0,0,1-.525-.525.525.525,0,0,1,.525-.526h2.982a.525.525,0,0,1,.525.526A.525.525,0,0,1-293.723,4083.588Zm-5.963,0h-2.982a.525.525,0,0,1-.526-.525.525.525,0,0,1,.526-.526h2.982a.525.525,0,0,1,.525.526A.525.525,0,0,1-299.686,4083.588Zm-5.964,0h-2.981a.525.525,0,0,1-.526-.525.525.525,0,0,1,.526-.526h2.981a.525.525,0,0,1,.526.526A.525.525,0,0,1-305.65,4083.588Zm-5.963,0h-2.981a.525.525,0,0,1-.526-.525.525.525,0,0,1,.526-.526h2.981a.525.525,0,0,1,.526.526A.525.525,0,0,1-311.613,4083.588Zm-5.964,0h-2.981a.525.525,0,0,1-.526-.525.525.525,0,0,1,.526-.526h2.981a.525.525,0,0,1,.526.526A.525.525,0,0,1-317.577,4083.588Zm-5.963,0h-2.981a.525.525,0,0,1-.526-.525.525.525,0,0,1,.526-.526h2.981a.525.525,0,0,1,.526.526A.525.525,0,0,1-323.54,4083.588Zm-5.963,0h-2.981a.525.525,0,0,1-.526-.525.525.525,0,0,1,.526-.526h2.981a.525.525,0,0,1,.526.526A.525.525,0,0,1-329.5,4083.588Zm-5.963,0h-2.982a.525.525,0,0,1-.525-.525.525.525,0,0,1,.525-.526h2.982a.525.525,0,0,1,.525.526A.525.525,0,0,1-335.466,4083.588Zm-5.963,0h-2.982a.525.525,0,0,1-.525-.525.525.525,0,0,1,.525-.526h2.982a.525.525,0,0,1,.525.526A.525.525,0,0,1-341.429,4083.588Zm-5.963,0h-2.982a.525.525,0,0,1-.525-.525.525.525,0,0,1,.525-.526h2.982a.525.525,0,0,1,.525.526A.525.525,0,0,1-347.392,4083.588Zm-5.964,0h-2.982a.525.525,0,0,1-.525-.525.525.525,0,0,1,.525-.526h2.982a.526.526,0,0,1,.526.526A.526.526,0,0,1-353.356,4083.588Zm-5.963,0H-362.3a.525.525,0,0,1-.525-.525.525.525,0,0,1,.525-.526h2.982a.525.525,0,0,1,.525.526A.525.525,0,0,1-359.319,4083.588Zm-5.963,0h-2.982a.525.525,0,0,1-.525-.525.525.525,0,0,1,.525-.526h2.982a.525.525,0,0,1,.525.526A.525.525,0,0,1-365.282,4083.588Zm-5.964,0h-2.981a.525.525,0,0,1-.526-.525.525.525,0,0,1,.526-.526h2.981a.525.525,0,0,1,.526.526A.525.525,0,0,1-371.246,4083.588Zm-5.963,0h-2.981a.525.525,0,0,1-.526-.525.525.525,0,0,1,.526-.526h2.981a.525.525,0,0,1,.526.526A.525.525,0,0,1-377.209,4083.588Zm-5.963,0h-2.981a.525.525,0,0,1-.526-.525.525.525,0,0,1,.526-.526h2.981a.525.525,0,0,1,.526.526A.525.525,0,0,1-383.172,4083.588Zm-5.963,0h-2.982a.525.525,0,0,1-.525-.525.525.525,0,0,1,.525-.526h2.982a.525.525,0,0,1,.525.526A.525.525,0,0,1-389.135,4083.588Zm-5.963,0h-2.982a.526.526,0,0,1-.526-.525.526.526,0,0,1,.526-.526h2.982a.525.525,0,0,1,.525.526A.525.525,0,0,1-395.1,4083.588Zm-5.964,0h-2.982a.525.525,0,0,1-.525-.525.525.525,0,0,1,.525-.526h2.982a.525.525,0,0,1,.526.526A.525.525,0,0,1-401.062,4083.588Zm-5.963,0h-2.982a.525.525,0,0,1-.525-.525.525.525,0,0,1,.525-.526h2.982a.525.525,0,0,1,.525.526A.525.525,0,0,1-407.025,4083.588Z" fill="#ffa726"/>
      </g>
      <g id="Group_59720" data-name="Group 59720">
        <path id="Path_104003" data-name="Path 104003" d="M-282.68,3985.055h-2.981a.525.525,0,0,1-.526-.525.525.525,0,0,1,.526-.526h2.981a.519.519,0,0,1,.287.085.538.538,0,0,1,.275-.111,5.851,5.851,0,0,0,2.561-.879.528.528,0,0,1,.726.161.526.526,0,0,1-.162.726,6.9,6.9,0,0,1-3.024,1.039.563.563,0,0,1-.337-.083A.524.524,0,0,1-282.68,3985.055Zm-5.963,0h-2.982a.525.525,0,0,1-.525-.525.525.525,0,0,1,.525-.526h2.982a.525.525,0,0,1,.526.526A.525.525,0,0,1-288.643,3985.055Zm-5.963,0h-2.982a.525.525,0,0,1-.525-.525.525.525,0,0,1,.525-.526h2.982a.525.525,0,0,1,.525.526A.525.525,0,0,1-294.606,3985.055Zm-5.963,0h-2.982a.525.525,0,0,1-.525-.525.525.525,0,0,1,.525-.526h2.982a.525.525,0,0,1,.525.526A.525.525,0,0,1-300.569,3985.055Zm-5.964,0h-2.982a.525.525,0,0,1-.525-.525.525.525,0,0,1,.525-.526h2.982a.525.525,0,0,1,.526.526A.525.525,0,0,1-306.533,3985.055Zm-5.963,0h-2.982a.525.525,0,0,1-.525-.525.525.525,0,0,1,.525-.526h2.982a.525.525,0,0,1,.525.526A.525.525,0,0,1-312.5,3985.055Zm-5.963,0h-2.982a.525.525,0,0,1-.525-.525.525.525,0,0,1,.525-.526h2.982a.525.525,0,0,1,.525.526A.525.525,0,0,1-318.459,3985.055Zm-5.963,0H-327.4a.525.525,0,0,1-.526-.525.525.525,0,0,1,.526-.526h2.982a.525.525,0,0,1,.525.526A.525.525,0,0,1-324.422,3985.055Zm-5.964,0h-2.981a.525.525,0,0,1-.526-.525.525.525,0,0,1,.526-.526h2.981a.525.525,0,0,1,.526.526A.525.525,0,0,1-330.386,3985.055Zm-5.963,0h-2.981a.525.525,0,0,1-.526-.525.525.525,0,0,1,.526-.526h2.981a.525.525,0,0,1,.526.526A.525.525,0,0,1-336.349,3985.055Zm-5.963,0h-2.982a.526.526,0,0,1-.526-.525.526.526,0,0,1,.526-.526h2.982a.526.526,0,0,1,.526.526A.526.526,0,0,1-342.312,3985.055Zm-5.964,0h-2.981a.525.525,0,0,1-.526-.525.525.525,0,0,1,.526-.526h2.981a.525.525,0,0,1,.526.526A.525.525,0,0,1-348.276,3985.055Zm-5.909-.43a.519.519,0,0,1-.191-.036,6.928,6.928,0,0,1-2.628-1.821.526.526,0,0,1,.04-.742.524.524,0,0,1,.742.04,5.866,5.866,0,0,0,2.228,1.544.525.525,0,0,1,.3.68A.525.525,0,0,1-354.185,3984.625Zm76.967-2.678a.514.514,0,0,1-.268-.074.525.525,0,0,1-.183-.72,5.834,5.834,0,0,0,.8-2.586.531.531,0,0,1,.559-.49.526.526,0,0,1,.49.559,6.886,6.886,0,0,1-.949,3.055A.525.525,0,0,1-277.218,3981.947Zm-80.8-1.6a.525.525,0,0,1-.507-.39,6.874,6.874,0,0,1-.233-1.777v-1.32a.525.525,0,0,1,.525-.526.525.525,0,0,1,.526.526v1.32a5.8,5.8,0,0,0,.2,1.506.527.527,0,0,1-.372.644A.564.564,0,0,1-358.02,3980.345Zm81.692-4.2a.525.525,0,0,1-.525-.525v-2.982a.525.525,0,0,1,.525-.525.525.525,0,0,1,.526.525v2.982A.525.525,0,0,1-276.328,3976.145Zm-81.907-1.743a.525.525,0,0,1-.525-.526V3970.9a.525.525,0,0,1,.525-.526.525.525,0,0,1,.526.526v2.981A.525.525,0,0,1-358.235,3974.4Zm81.907-4.22a.525.525,0,0,1-.525-.525v-2.982a.525.525,0,0,1,.525-.525.525.525,0,0,1,.526.525v2.982A.525.525,0,0,1-276.328,3970.182Zm-81.907-1.743a.525.525,0,0,1-.525-.526v-2.981a.525.525,0,0,1,.525-.526.525.525,0,0,1,.526.526v2.981A.525.525,0,0,1-358.235,3968.439Zm81.907-4.221a.525.525,0,0,1-.525-.525v-2.982a.525.525,0,0,1,.525-.525.525.525,0,0,1,.526.525v2.982A.525.525,0,0,1-276.328,3964.218Zm-81.907-1.743a.525.525,0,0,1-.525-.525v-2.983a.525.525,0,0,1,.525-.525.525.525,0,0,1,.526.525v2.983A.525.525,0,0,1-358.235,3962.475Zm81.907-4.22a.525.525,0,0,1-.525-.525v-2.982a.525.525,0,0,1,.525-.525.525.525,0,0,1,.526.525v2.982A.525.525,0,0,1-276.328,3958.255Zm-81.907-1.744a.525.525,0,0,1-.525-.525V3953a.525.525,0,0,1,.525-.525.525.525,0,0,1,.526.525v2.982A.525.525,0,0,1-358.235,3956.511Zm81.907-4.219a.525.525,0,0,1-.525-.525v-2.982a.525.525,0,0,1,.525-.525.525.525,0,0,1,.526.525v2.982A.525.525,0,0,1-276.328,3952.292Zm-81.907-1.744a.525.525,0,0,1-.525-.525v-2.982a.525.525,0,0,1,.525-.525.525.525,0,0,1,.526.525v2.982A.525.525,0,0,1-358.235,3950.548Zm81.907-4.219a.525.525,0,0,1-.525-.525v-2.5c0-.148-.006-.293-.017-.438a.525.525,0,0,1,.485-.563.529.529,0,0,1,.563.485c.013.169.02.342.02.516v2.5A.525.525,0,0,1-276.328,3946.329Zm-81.907-1.744a.525.525,0,0,1-.525-.525v-.761a6.847,6.847,0,0,1,.414-2.356.523.523,0,0,1,.674-.314.525.525,0,0,1,.314.673,5.812,5.812,0,0,0-.351,2v.761A.525.525,0,0,1-358.235,3944.585Zm80.99-4.05a.526.526,0,0,1-.45-.253,5.875,5.875,0,0,0-1.9-1.929.525.525,0,0,1-.168-.723.523.523,0,0,1,.724-.168,6.913,6.913,0,0,1,2.246,2.276.524.524,0,0,1-.177.721A.519.519,0,0,1-277.245,3940.535Zm-78.976-1.349a.522.522,0,0,1-.383-.167.525.525,0,0,1,.024-.743,6.885,6.885,0,0,1,2.779-1.583.525.525,0,0,1,.651.359.526.526,0,0,1-.358.651,5.838,5.838,0,0,0-2.354,1.341A.527.527,0,0,1-356.221,3939.186Zm74.1-1.689-.047,0c-.168-.015-.339-.022-.511-.022H-285.1a.525.525,0,0,1-.525-.526.525.525,0,0,1,.525-.525h2.423q.306,0,.6.026a.527.527,0,0,1,.477.571A.525.525,0,0,1-282.121,3937.5Zm-5.962-.024h-2.982a.525.525,0,0,1-.525-.526.525.525,0,0,1,.525-.525h2.982a.525.525,0,0,1,.525.525A.525.525,0,0,1-288.083,3937.473Zm-5.964,0h-2.982a.525.525,0,0,1-.525-.526.525.525,0,0,1,.525-.525h2.982a.525.525,0,0,1,.526.525A.525.525,0,0,1-294.047,3937.473Zm-5.963,0h-2.982a.525.525,0,0,1-.525-.526.525.525,0,0,1,.525-.525h2.982a.525.525,0,0,1,.525.525A.525.525,0,0,1-300.01,3937.473Zm-5.963,0h-2.982a.525.525,0,0,1-.525-.526.525.525,0,0,1,.525-.525h2.982a.525.525,0,0,1,.525.525A.525.525,0,0,1-305.973,3937.473Zm-5.964,0h-2.981a.525.525,0,0,1-.526-.526.525.525,0,0,1,.526-.525h2.981a.525.525,0,0,1,.526.525A.525.525,0,0,1-311.937,3937.473Zm-5.963,0h-2.981a.525.525,0,0,1-.526-.526.525.525,0,0,1,.526-.525h2.981a.525.525,0,0,1,.526.525A.525.525,0,0,1-317.9,3937.473Zm-5.963,0h-2.981a.525.525,0,0,1-.526-.526.525.525,0,0,1,.526-.525h2.981a.525.525,0,0,1,.526.525A.525.525,0,0,1-323.863,3937.473Zm-5.963,0h-2.982a.526.526,0,0,1-.526-.526.526.526,0,0,1,.526-.525h2.982a.525.525,0,0,1,.525.525A.525.525,0,0,1-329.826,3937.473Zm-5.964,0h-2.981a.525.525,0,0,1-.526-.526.525.525,0,0,1,.526-.525h2.981a.525.525,0,0,1,.526.525A.525.525,0,0,1-335.79,3937.473Zm-5.963,0h-2.981a.525.525,0,0,1-.526-.526.525.525,0,0,1,.526-.525h2.981a.525.525,0,0,1,.526.525A.525.525,0,0,1-341.753,3937.473Zm-5.963,0H-350.7a.525.525,0,0,1-.525-.526.525.525,0,0,1,.525-.525h2.982a.525.525,0,0,1,.525.525A.525.525,0,0,1-347.716,3937.473Z" fill="#039be5"/>
      </g>
      <g id="Group_59724" data-name="Group 59724">
        <rect id="Rectangle_7523" data-name="Rectangle 7523" width="156.895" height="75.847" rx="7.201" transform="translate(-417.267 3999.098)" fill="#ccc" style="mix-blend-mode: multiply;isolation: isolate"/>
        <path id="Path_104004" data-name="Path 104004" d="M-266.681,4001.313v59.153a8.342,8.342,0,0,1-8.351,8.339H-414.605a8.342,8.342,0,0,1-8.351-8.339v-59.153a8.352,8.352,0,0,1,8.351-8.351h139.573A8.352,8.352,0,0,1-266.681,4001.313Z" fill="#fff"/>
        <rect id="Rectangle_7524" data-name="Rectangle 7524" width="52.41" height="52.41" rx="4.861" transform="translate(-415.735 4010.231)" fill="#039be5"/>
        <g id="Group_59721" data-name="Group 59721">
          <path id="Path_104005" data-name="Path 104005" d="M-320.238,4016.863h-36.214a1.783,1.783,0,0,1-1.783-1.783h0a1.783,1.783,0,0,1,1.783-1.783h36.214a1.783,1.783,0,0,1,1.783,1.783h0A1.783,1.783,0,0,1-320.238,4016.863Z" fill="#039be5"/>
          <path id="Path_104006" data-name="Path 104006" d="M-336.741,4023.982h-19.711a1.783,1.783,0,0,1-1.783-1.783h0a1.783,1.783,0,0,1,1.783-1.783h19.711a1.783,1.783,0,0,1,1.783,1.783h0A1.783,1.783,0,0,1-336.741,4023.982Z" fill="#039be5"/>
          <path id="Path_104007" data-name="Path 104007" d="M-276.15,4023.982h-53.336a1.783,1.783,0,0,1-1.783-1.783h0a1.783,1.783,0,0,1,1.783-1.783h53.336a1.783,1.783,0,0,1,1.783,1.783h0A1.783,1.783,0,0,1-276.15,4023.982Z" fill="#039be5"/>
          <path id="Path_104008" data-name="Path 104008" d="M-325.954,4031.1h-30.5a1.784,1.784,0,0,1-1.783-1.783h0a1.783,1.783,0,0,1,1.783-1.783h30.5a1.783,1.783,0,0,1,1.782,1.783h0A1.783,1.783,0,0,1-325.954,4031.1Z" fill="#039be5"/>
          <path id="Path_104009" data-name="Path 104009" d="M-300.068,4031.1H-319.24a1.783,1.783,0,0,1-1.782-1.783h0a1.783,1.783,0,0,1,1.782-1.783h19.172a1.783,1.783,0,0,1,1.783,1.783h0A1.783,1.783,0,0,1-300.068,4031.1Z" fill="#039be5"/>
          <path id="Path_104010" data-name="Path 104010" d="M-276.15,4031.1H-293.8a1.783,1.783,0,0,1-1.783-1.783h0a1.783,1.783,0,0,1,1.783-1.783h17.655a1.783,1.783,0,0,1,1.783,1.783h0A1.783,1.783,0,0,1-276.15,4031.1Z" fill="#039be5"/>
          <path id="Path_104011" data-name="Path 104011" d="M-276.15,4038.22h-80.3a1.784,1.784,0,0,1-1.783-1.783h0a1.783,1.783,0,0,1,1.783-1.783h80.3a1.783,1.783,0,0,1,1.783,1.783h0A1.783,1.783,0,0,1-276.15,4038.22Z" fill="#039be5"/>
          <path id="Path_104012" data-name="Path 104012" d="M-312.256,4045.338h-44.2a1.783,1.783,0,0,1-1.783-1.783h0a1.784,1.784,0,0,1,1.783-1.783h44.2a1.784,1.784,0,0,1,1.783,1.783h0A1.783,1.783,0,0,1-312.256,4045.338Z" fill="#039be5"/>
          <path id="Path_104013" data-name="Path 104013" d="M-276.15,4045.338h-28.981a1.783,1.783,0,0,1-1.783-1.783h0a1.783,1.783,0,0,1,1.783-1.783h28.981a1.783,1.783,0,0,1,1.783,1.783h0A1.783,1.783,0,0,1-276.15,4045.338Z" fill="#039be5"/>
          <path id="Path_104014" data-name="Path 104014" d="M-330.485,4052.457h-25.967a1.783,1.783,0,0,1-1.783-1.783h0a1.784,1.784,0,0,1,1.783-1.783h25.967a1.783,1.783,0,0,1,1.783,1.783h0A1.783,1.783,0,0,1-330.485,4052.457Z" fill="#039be5"/>
          <path id="Path_104015" data-name="Path 104015" d="M-297.49,4052.457h-25.967a1.783,1.783,0,0,1-1.783-1.783h0a1.784,1.784,0,0,1,1.783-1.783h25.967a1.783,1.783,0,0,1,1.783,1.783h0A1.783,1.783,0,0,1-297.49,4052.457Z" fill="#039be5"/>
          <path id="Path_104016" data-name="Path 104016" d="M-276.15,4052.457h-15.067a1.783,1.783,0,0,1-1.783-1.783h0a1.784,1.784,0,0,1,1.783-1.783h15.067a1.783,1.783,0,0,1,1.783,1.783h0A1.783,1.783,0,0,1-276.15,4052.457Z" fill="#039be5"/>
          <path id="Path_104017" data-name="Path 104017" d="M-320.238,4059.576h-36.214a1.783,1.783,0,0,1-1.783-1.783h0a1.783,1.783,0,0,1,1.783-1.783h36.214a1.783,1.783,0,0,1,1.783,1.783h0A1.783,1.783,0,0,1-320.238,4059.576Z" fill="#039be5"/>
          <path id="Path_104018" data-name="Path 104018" d="M-276.15,4016.863h-36.213a1.783,1.783,0,0,1-1.783-1.783h0a1.783,1.783,0,0,1,1.783-1.783h36.213a1.783,1.783,0,0,1,1.783,1.783h0A1.783,1.783,0,0,1-276.15,4016.863Z" fill="#039be5"/>
        </g>
        <g id="Group_59723" data-name="Group 59723">
          <path id="Path_104019" data-name="Path 104019" d="M-266.681,4001.313v2.485H-422.956v-2.485a8.352,8.352,0,0,1,8.351-8.351h139.573A8.352,8.352,0,0,1-266.681,4001.313Z" fill="#039be5"/>
          <g id="Group_59722" data-name="Group 59722">
            <path id="Path_104020" data-name="Path 104020" d="M-296.137,3998.576a1.936,1.936,0,0,1-1.936,1.936,1.936,1.936,0,0,1-1.936-1.936,1.936,1.936,0,0,1,1.936-1.936A1.936,1.936,0,0,1-296.137,3998.576Z" fill="#fff"/>
            <path id="Path_104021" data-name="Path 104021" d="M-286.232,3998.576a1.936,1.936,0,0,1-1.936,1.936,1.936,1.936,0,0,1-1.936-1.936,1.936,1.936,0,0,1,1.936-1.936A1.936,1.936,0,0,1-286.232,3998.576Z" fill="#fff"/>
            <path id="Path_104022" data-name="Path 104022" d="M-276.328,3998.576a1.935,1.935,0,0,1-1.935,1.936,1.936,1.936,0,0,1-1.936-1.936,1.936,1.936,0,0,1,1.936-1.936A1.936,1.936,0,0,1-276.328,3998.576Z" fill="#fff"/>
          </g>
        </g>
      </g>
      <g id="Group_59730" data-name="Group 59730">
        <g id="Group_59725" data-name="Group 59725">
          <path id="Path_104023" data-name="Path 104023" d="M-373.783,3985h-32.509a8,8,0,0,1-7.986-7.986V3944.5a8,8,0,0,1,7.986-7.986h32.509a8,8,0,0,1,7.986,7.986v32.51A8,8,0,0,1-373.783,3985Zm-32.509-47.54a7.052,7.052,0,0,0-7.045,7.044v32.51a7.052,7.052,0,0,0,7.045,7.044h32.509a7.052,7.052,0,0,0,7.044-7.044V3944.5a7.052,7.052,0,0,0-7.044-7.044Z" fill="#ffa726"/>
        </g>
        <g id="Group_59729" data-name="Group 59729">
          <g id="Group_59726" data-name="Group 59726">
            <path id="Path_104024" data-name="Path 104024" d="M-397.4,3968.514a.876.876,0,0,1-.621-.257l-6.9-6.9a.878.878,0,0,1-.258-.621.876.876,0,0,1,.258-.621l6.849-6.849a.878.878,0,0,1,1.242,0,.878.878,0,0,1,0,1.242l-6.228,6.228,6.282,6.282a.878.878,0,0,1,0,1.242A.878.878,0,0,1-397.4,3968.514Z" fill="#ffa726"/>
          </g>
          <g id="Group_59727" data-name="Group 59727">
            <path id="Path_104025" data-name="Path 104025" d="M-382.676,3968.514a.876.876,0,0,1-.621-.257.878.878,0,0,1,0-1.242l6.281-6.282-6.227-6.228a.878.878,0,0,1,0-1.242.878.878,0,0,1,1.242,0l6.849,6.849a.878.878,0,0,1,0,1.242l-6.9,6.9A.878.878,0,0,1-382.676,3968.514Z" fill="#ffa726"/>
          </g>
          <g id="Group_59728" data-name="Group 59728">
            <path id="Path_104026" data-name="Path 104026" d="M-393.245,3968.514a.871.871,0,0,1-.371-.082.878.878,0,0,1-.425-1.168l6.414-13.752a.881.881,0,0,1,1.168-.425.88.88,0,0,1,.424,1.168l-6.414,13.752A.877.877,0,0,1-393.245,3968.514Z" fill="#ffa726"/>
          </g>
        </g>
      </g>
      <path id="Path_104027" data-name="Path 104027" d="M-266.681,3820.954v96.715a9.5,9.5,0,0,1-9.5,9.5H-413.455a9.5,9.5,0,0,1-9.5-9.5v-96.715a9.505,9.505,0,0,1,9.5-9.5h137.273A9.5,9.5,0,0,1-266.681,3820.954Z" fill="#fff"/>
      <circle id="Ellipse_4056" data-name="Ellipse 4056" cx="22.649" cy="22.649" r="22.649" transform="translate(-320.979 3819.363)" fill="#ffefbf"/>
      <path id="Path_104028" data-name="Path 104028" d="M-331.1,3927.169h-82.359a9.5,9.5,0,0,1-9.5-9.5v-15.227l36.04-62.429a4.9,4.9,0,0,1,8.479,0l27.213,47.132,20.209,35.007A4.8,4.8,0,0,1-331.1,3927.169Z" fill="#bcf4fa"/>
      <path id="Path_104029" data-name="Path 104029" d="M-295.578,3927.169h-78.759l23.113-40.024,12.451-21.568a4.405,4.405,0,0,1,7.631,0Z" fill="#94f0fa"/>
    </g>
    <g id="Group_59741" data-name="Group 59741">
      <g id="Group_59733" data-name="Group 59733">
        <rect id="Rectangle_7525" data-name="Rectangle 7525" width="75.384" height="113.291" transform="translate(-448.037 4317.999) rotate(180)" fill="#12263f"/>
        <rect id="Rectangle_7526" data-name="Rectangle 7526" width="28.864" height="113.291" transform="translate(-552.286 4204.708)" fill="#a1a1a1"/>
        <g id="Group_59732" data-name="Group 59732">
          <rect id="Rectangle_7527" data-name="Rectangle 7527" width="21.192" height="3.616" transform="translate(-527.554 4212.674) rotate(180)" fill="#12263f"/>
          <rect id="Rectangle_7528" data-name="Rectangle 7528" width="21.192" height="3.616" transform="translate(-527.554 4220.441) rotate(180)" fill="#12263f"/>
          <rect id="Rectangle_7529" data-name="Rectangle 7529" width="21.192" height="3.616" transform="translate(-527.554 4228.208) rotate(180)" fill="#12263f"/>
          <rect id="Rectangle_7530" data-name="Rectangle 7530" width="21.192" height="3.616" transform="translate(-527.554 4235.976) rotate(180)" fill="#12263f"/>
          <rect id="Rectangle_7531" data-name="Rectangle 7531" width="21.192" height="3.616" transform="translate(-527.554 4243.743) rotate(180)" fill="#12263f"/>
          <rect id="Rectangle_7532" data-name="Rectangle 7532" width="21.192" height="3.616" transform="translate(-527.554 4251.51) rotate(180)" fill="#12263f"/>
          <rect id="Rectangle_7533" data-name="Rectangle 7533" width="21.192" height="3.616" transform="translate(-527.554 4259.277) rotate(180)" fill="#12263f"/>
          <rect id="Rectangle_7534" data-name="Rectangle 7534" width="21.192" height="3.616" transform="translate(-527.554 4267.044) rotate(180)" fill="#12263f"/>
          <rect id="Rectangle_7535" data-name="Rectangle 7535" width="21.192" height="3.616" transform="translate(-527.554 4274.812) rotate(180)" fill="#12263f"/>
          <rect id="Rectangle_7536" data-name="Rectangle 7536" width="21.192" height="3.616" transform="translate(-527.554 4282.579) rotate(180)" fill="#12263f"/>
          <rect id="Rectangle_7537" data-name="Rectangle 7537" width="21.192" height="3.616" transform="translate(-527.554 4290.346) rotate(180)" fill="#12263f"/>
          <rect id="Rectangle_7538" data-name="Rectangle 7538" width="21.192" height="3.616" transform="translate(-527.554 4298.113) rotate(180)" fill="#12263f"/>
          <rect id="Rectangle_7539" data-name="Rectangle 7539" width="21.192" height="3.616" transform="translate(-527.554 4305.88) rotate(180)" fill="#12263f"/>
          <rect id="Rectangle_7540" data-name="Rectangle 7540" width="21.192" height="3.616" transform="translate(-527.554 4313.647) rotate(180)" fill="#12263f"/>
        </g>
      </g>
      <g id="Group_59740" data-name="Group 59740">
        <path id="Path_104030" data-name="Path 104030" d="M-435.792,4318H-474.1s-2.141-6.822,2.5-15.274c0,0,3.084,2.473,12.321.8a41.093,41.093,0,0,0,6.517,4.553C-450.091,4309.372-434.759,4312.383-435.792,4318Z" fill="#12263f"/>
        <path id="Path_104031" data-name="Path 104031" d="M-438.463,4209.969c-2.475,14.765-13.893,64.718-18.8,94.229-8.97.764-13.279-.266-15.562-.792.447-10.29,1.332-34.9,1.228-45.7-.17-18.244-1.027-42.3,7-55.5l27,2.125c-.164,1.426-.314,2.585-.446,3.415C-438.167,4208.538-438.315,4209.273-438.463,4209.969Z" fill="#026799"/>
        <path id="Path_104032" data-name="Path 104032" d="M-366.494,4318h-38.312s-2.141-6.822,2.5-15.274c0,0,3.084,2.473,12.321.8a41.091,41.091,0,0,0,6.517,4.553C-380.793,4309.372-365.461,4312.383-366.494,4318Z" fill="#12263f"/>
        <path id="Path_104033" data-name="Path 104033" d="M-388.876,4303.334a43.948,43.948,0,0,1-15.134,1.353c-2.038-11.861-5.255-37.961-8.151-50.194-4.494-19.016-8.892-45.166-5.836-54.5l26.562-6.671C-391.346,4194.166-389.183,4274.2-388.876,4303.334Z" fill="#0279b3"/>
        <path id="Path_104034" data-name="Path 104034" d="M-494.6,4166.1h0c.533-5.25,1.147-9.085,1.147-9.085l29.677,7.264,25.21,5.743c9.346,2.082,20.636,4.59,30.589,6.839,11.169,2.537,18.584,11.021,16.137,22.205l-2.8,13.566c-15.621-.213-89.068-7.254-95.349-10.426C-497.08,4198.619-499.217,4185.947-494.6,4166.1Z" fill="#0279b3"/>
        <path id="Path_104035" data-name="Path 104035" d="M-538.9,4166.1h0a41.006,41.006,0,0,1,3.092-10.883l27.733,9.062,25.209,5.743c9.346,2.082,20.636,4.59,30.589,6.839,11.169,2.537,18.584,11.021,16.138,22.205l-2.8,13.566c-15.621-.213-80.913-2.489-95.349-10.426C-541.252,4198.372-543.519,4185.947-538.9,4166.1Z" fill="#026799"/>
        <g id="Group_59734" data-name="Group 59734">
          <path id="Path_104036" data-name="Path 104036" d="M-455.831,4123.564s-13.181-5.954-16.809.018c-1.986,3.269-.613,9.341,3.883,11.891s29.9,13.294,53.877,19.285a58.348,58.348,0,0,1,2.675-6.84,126.187,126.187,0,0,1-21.449-11.973,136.737,136.737,0,0,0-22.177-12.381Z" fill="#e5918f"/>
        </g>
        <path id="Path_104037" data-name="Path 104037" d="M-459.126,4082.4l11.3,45.123s-1.167,11.407-12.688,5.808-19.155-41.547-19.155-41.547Z" fill="#e5918f"/>
        <path id="Path_104038" data-name="Path 104038" d="M-478.239,4107.638c1.4-.338,2.732-.707,4.017-1.093q1.977-.577,3.761-1.205c10.734-3.68,16.536-8.1,16.536-8.1-3.375-14.672-7.441-24.523-11.056-31.016a4.611,4.611,0,0,1-.274-.482l-.289-.482a28.193,28.193,0,0,0-7.858-8.179c-.322-.225-.627-.434-.948-.659l-1.334,23.558-.225,2.427Z" fill="#ffca28"/>
        <path id="Path_104039" data-name="Path 104039" d="M-478.239,4107.638c1.4-.338,2.732-.707,4.017-1.093q1.977-.577,3.761-1.205c-2.254-15.869-4.291-25.841-4.291-25.841l-1.157,2.909Z" opacity="0.6" fill="url(#linear-gradient-2)" style="mix-blend-mode: multiply;isolation: isolate"/>
        <path id="Path_104040" data-name="Path 104040" d="M-544.93,4066.9c.273,6.975,1.495,18.176,2.555,29.425.338,3.567.659,7.151.932,10.606.193,2.153,3.439,13.643,3.568,15.7.579,9.835,5.4,17.2.836,32.172a23.585,23.585,0,0,0-1.366,6.91c0,1.029,1.333,2.106,1.864,2.4,1.912,1.109,5.673,1.88,10.236,2.443h.016a265.4,265.4,0,0,0,28.412,1.3c9.819,0,24.555-1.559,26.419-4.033,1.7-2.266.129-5.561-.675-10.108-3.615-20.522-2.33-31.225-2.105-46.041,0-.37.016-.739.016-1.125.37-22.851,1.88-42.409.82-49.463-.322-.225-.627-.434-.948-.659-1.559-1.061-3.086-2.009-4.564-2.845-.129-.064-.289-.16-.45-.257-.45-.257-.916-.5-1.35-.739a5.161,5.161,0,0,0-.514-.257,112.054,112.054,0,0,0-10.96-4.323c-.354-.112-.675-.225-.948-.3-2.62-.161-5.464-.193-8.533-.113-2.668.081-6.75.434-11.185,1.013h-.016a115.511,115.511,0,0,0-14.849,2.78.782.782,0,0,0-.08.032c-.82.257-6.139,2.25-11.683,8.18A39.526,39.526,0,0,0-544.93,4066.9Z" fill="#ffca28"/>
        <path id="Path_104041" data-name="Path 104041" d="M-537.039,4154.8a23.585,23.585,0,0,0-1.366,6.91c0,1.029,1.333,2.106,1.864,2.4,1.912,1.109,5.673,1.88,10.236,2.443-1.88-.225-5.125-3.208-5.126-5.9,0-1.884,2.443-14.608,1.768-22.82-.675-8.195-2.009-21.244.53-31.69,2.555-10.445,4.95-24.185,4.95-24.185L-538.5,4090.6s-1.848,2.587-3.873,5.721c.338,3.567.659,7.151.932,10.606C-541.25,4109.084-532.475,4139.826-537.039,4154.8Z" opacity="0.6" fill="url(#linear-gradient-3)" style="mix-blend-mode: multiply;isolation: isolate"/>
        <g id="Group_59738" data-name="Group 59738">
          <path id="Path_104042" data-name="Path 104042" d="M-474.048,4006.506s-1.239,14.975-6.2,15.981S-484,4017.13-484,4017.13l.694-7.111Z" fill="#12263f"/>
          <path id="Path_104043" data-name="Path 104043" d="M-496.945,4060.778c9.723-1.157,6.091-10.606,4.757-12.776-.354-.112-2.025-.627-2.153-.707a.053.053,0,0,0-.033-.016,2.675,2.675,0,0,1-.755-1.125c-.948-2.491-.514-7.457-.482-7.778v-.916c-.161-.594-.321-1.157-.45-1.687l-5.11-4.018-10.815-8.5s2.876,14.222.562,23.189a3.375,3.375,0,0,1-1.43,2.154c0,.016-.016,0-.016,0a2.581,2.581,0,0,1-1.077.385C-516.6,4050.236-512.9,4062.674-496.945,4060.778Z" fill="#e5918f"/>
          <path id="Path_104044" data-name="Path 104044" d="M-505.514,4032.292s.091,9.491,10.393,13.856c-.957-2.477-.517-7.446-.486-7.765l-4.316-3.389Z" fill="#cc6362"/>
          <path id="Path_104045" data-name="Path 104045" d="M-476.423,4008.637s-2.247,31.072-10.637,33.712c0,0-10.689,1.007-18.363-9.317-2.211-2.974-5.006-3.643-5.918-7.234-1.482-5.834-3.574-16.6-.906-23.081C-508.448,3993.482-476.783,3986.149-476.423,4008.637Z" fill="#e5918f"/>
          <path id="Path_104046" data-name="Path 104046" d="M-512.375,3997.59c.138-5.644,5.85-7.753,5.85-7.753,5.687-2.662,17.507-1.514,29.692,1.205,2.856.637,6.441-1.116,8.437.268,2.411,1.672.01,9.315.01,9.315-4.7,14.234-22,9.6-27.194,7.85-1.235,3.664-1.076,8.76-4.158,11.388-1.756,1.5-4.807,1.54-7.91,1.022-.382.727-1.817,1.366-2.109,2.363-.977,3.329-.837,8.53-.807,12.545l-1.466-.716C-512.222,4033.99-527.392,3998.056-512.375,3997.59Z" fill="#12263f"/>
          <g id="Group_59735" data-name="Group 59735">
            <path id="Path_104047" data-name="Path 104047" d="M-481.085,4014.756h0a3.164,3.164,0,0,1,.53.045,3.557,3.557,0,0,1,2.518,1.935,5.711,5.711,0,0,1,.529,3.645c-.417,2.453-2.218,4.3-4.189,4.3a3.174,3.174,0,0,1-.531-.045c-2.141-.365-3.508-2.868-3.047-5.58C-484.858,4016.606-483.056,4014.756-481.085,4014.756Zm-.612,9.427c1.73,0,3.318-1.67,3.7-3.886a5.21,5.21,0,0,0-.477-3.324,3.069,3.069,0,0,0-2.16-1.678,2.68,2.68,0,0,0-.446-.038c-1.73,0-3.319,1.67-3.7,3.886-.415,2.44.768,4.684,2.637,5A2.689,2.689,0,0,0-481.7,4024.183Z" fill="#fff"/>
            <path id="Path_104048" data-name="Path 104048" d="M-491.223,4012.862h0a3.189,3.189,0,0,1,.53.045c2.142.365,3.508,2.868,3.047,5.58-.417,2.453-2.219,4.3-4.19,4.3a3.155,3.155,0,0,1-.531-.045c-2.141-.365-3.507-2.868-3.046-5.58C-495,4014.712-493.194,4012.862-491.223,4012.862Zm-.612,9.427c1.73,0,3.319-1.671,3.7-3.886.415-2.44-.768-4.684-2.637-5a2.679,2.679,0,0,0-.446-.038c-1.73,0-3.319,1.67-3.7,3.886-.415,2.44.768,4.684,2.636,5A2.7,2.7,0,0,0-491.836,4022.289Z" fill="#fff"/>
            <path id="Path_104049" data-name="Path 104049" d="M-485.236,4019.241c0-.006-.46-.589-2.55-.409l-.043-.5c2.419-.209,2.96.55,3.014.637l-.427.263Z" fill="#fff"/>
            <path id="Line_165" data-name="Line 165" d="M8.627,1.632-.04.247.04-.247,8.706,1.137Z" transform="translate(-503.919 4016.442)" fill="#fff"/>
          </g>
          <g id="Group_59736" data-name="Group 59736">
            <path id="Path_104050" data-name="Path 104050" d="M-504.557,4027.441c-5.968,2.286-7.831-12.4-2.164-13.054,4.3-.494,4.474,5.5,4.474,5.5S-501.149,4026.136-504.557,4027.441Z" fill="#e5918f"/>
          </g>
          <g id="Group_59737" data-name="Group 59737" opacity="0.5">
            <path id="Path_104051" data-name="Path 104051" d="M-504.924,4024.327l-.674-.266c.878-2.221.964-4.16.25-5.607a3.67,3.67,0,0,0-1.348-1.532l.34-.64a4.306,4.306,0,0,1,1.634,1.8C-504.141,4019.232-503.706,4021.244-504.924,4024.327Z" fill="#cc6362"/>
            <path id="Path_104052" data-name="Path 104052" d="M-504.9,4021.664a2.764,2.764,0,0,0-2.54-1.912h-.008l-.02-.724a3.459,3.459,0,0,1,1.3.275,3.466,3.466,0,0,1,1.947,2.117Z" fill="#cc6362"/>
          </g>
        </g>
        <path id="Path_104053" data-name="Path 104053" d="M-561.934,4129.511v.015c2.623,3.043,12.576,5.261,17.365,1.051,1.505-1.341,3.2-4.874,4.873-9.258,4.246-11.209,8.265-27.978,8.265-27.978l-22.274-11.382s-2.865,12.848-5.334,25.058c0,0-.022.124-.067.34-.8,3.912-1.551,7.758-2.139,11.06a1.6,1.6,0,0,0-.043.262A46.768,46.768,0,0,0-561.934,4129.511Z" fill="#e5918f"/>
        <path id="Path_104054" data-name="Path 104054" d="M-523.018,4077.74c-2.152,8.945-8.912,25.894-8.912,25.894-4.735.786-11.086-.086-16.348-1.977a30.126,30.126,0,0,1-10.412-6.763s4.484-12.6,8.508-21.655c3.612-8.128,5.781-11.162,7.344-12.773a35.423,35.423,0,0,1,8.844-6.577Z" fill="#ffca28"/>
        <path id="Path_104055" data-name="Path 104055" d="M-551.185,4083.582l13.071-5.639,10.3-26.536s-1.888.573-4.373,1.577h-.012c-.048.024-.155.06-.334.131a1.278,1.278,0,0,0-.191.084c-2.223,1.039-10.837,6.117-16.8,24.565q-.072.233-.143.466c-.634,2.126-1.1,3.835-1.351,4.719-.024.084-.047.167-.071.263C-551.125,4083.332-551.149,4083.463-551.185,4083.582Z" fill="#ffca28"/>
        <g id="Group_59739" data-name="Group 59739">
          <path id="Path_104056" data-name="Path 104056" d="M-561.934,4129.511v.015c.192,1.631.641,2.8,1.447,3.218.128.082,1.957,1.171,2.085,1.253a111.184,111.184,0,0,0,13.807,7.139,499.915,499.915,0,0,0,48.212,17.324,56.665,56.665,0,0,1,2.95-6.73,126.355,126.355,0,0,1-20.931-12.848c-10.389-7.93-25.332-17.563-25.332-17.563l-3.774-4.439s-13.415-12.347-15.569-9.863c0,0-.022.124-.067.34-.32,1.287-1.385,6.025-2.139,11.06a1.6,1.6,0,0,0-.043.262A46.768,46.768,0,0,0-561.934,4129.511Z" fill="#e5918f"/>
          <path id="Path_104057" data-name="Path 104057" d="M-494.975,4150.976a8.3,8.3,0,0,0,5.3,1.018c1.478-.311,2.074-.915,3.168-1.108a24.553,24.553,0,0,0,5.446-1.259c1.441-.706,2-.786,1.953.662s-2.894,2.7-3.666,3.1a7.309,7.309,0,0,0-1.843,1.846c-.1.161,4.74,2.7,6.042,2.182a3.763,3.763,0,0,1,.167,1.817c-.22.651-1.216.88-1.293,1.207s.228,1,.012,1.515-1.105.522-1.464,1.366.036.857-.225,1.737-1.387,1.039-1.6,1.493-.1.984-.572,1.3-4.829-1.085-6.419-1.767-5.84-6.8-10.543-8.885Z" fill="#e5918f"/>
        </g>
        <path id="Path_104058" data-name="Path 104058" d="M-517.241,4178.285h33.884v-3.316h-33.884a1.658,1.658,0,0,0-1.657,1.658h0A1.658,1.658,0,0,0-517.241,4178.285Z" fill="#12263f"/>
        <path id="Path_104059" data-name="Path 104059" d="M-498.907,4178.285h84.839a2.262,2.262,0,0,0,2.179-1.656l17.364-62.508a2.172,2.172,0,0,0-2.092-2.753h-82.041a4.257,4.257,0,0,0-4.1,3.117l-17.3,62.283A1.2,1.2,0,0,0-498.907,4178.285Z" fill="#12263f"/>
        <path id="Path_104060" data-name="Path 104060" d="M-495.837,4178.285H-411a2.262,2.262,0,0,0,2.179-1.656l17.364-62.508a2.172,2.172,0,0,0-2.092-2.753h-82.041a4.255,4.255,0,0,0-4.1,3.117l-17.3,62.283A1.2,1.2,0,0,0-495.837,4178.285Z" fill="#ccc"/>
      </g>
    </g>
    <g id="Group_59742" data-name="Group 59742">
      <rect id="Rectangle_7541" data-name="Rectangle 7541" width="65.721" height="65.721" rx="7.708" transform="translate(-296.757 4252.277)" fill="#ffa726"/>
      <rect id="Rectangle_7542" data-name="Rectangle 7542" width="65.721" height="65.721" rx="7.708" transform="translate(-308.734 4252.277)" fill="#ffca28"/>
      <path id="Path_104061" data-name="Path 104061" d="M-283.635,4272.733l18.865,10.892a1.747,1.747,0,0,1,0,3.026l-18.865,10.891a1.746,1.746,0,0,1-2.62-1.512v-21.784A1.747,1.747,0,0,1-283.635,4272.733Z" fill="#12263f"/>
    </g>
    <g id="Group_59744" data-name="Group 59744">
      <g id="Group_59743" data-name="Group 59743">
        <path id="Path_104062" data-name="Path 104062" d="M-479.475,3906.4h-19.251a2.111,2.111,0,0,1-2.111-2.111h0a2.111,2.111,0,0,1,2.111-2.111h19.251a2.111,2.111,0,0,1,2.111,2.111h0A2.111,2.111,0,0,1-479.475,3906.4Z" fill="#ebebeb"/>
        <path id="Path_104063" data-name="Path 104063" d="M-460.083,3915.766h-38.643a2.111,2.111,0,0,1-2.111-2.111h0a2.111,2.111,0,0,1,2.111-2.111h38.643a2.111,2.111,0,0,1,2.111,2.111h0A2.111,2.111,0,0,1-460.083,3915.766Z" fill="#ebebeb"/>
        <path id="Path_104064" data-name="Path 104064" d="M-494.162,3925.136h-4.564a2.111,2.111,0,0,1-2.111-2.111h0a2.111,2.111,0,0,1,2.111-2.111h4.564a2.111,2.111,0,0,1,2.111,2.111h0A2.111,2.111,0,0,1-494.162,3925.136Z" fill="#ebebeb"/>
        <path id="Path_104065" data-name="Path 104065" d="M-460.083,3925.136H-486.99a2.111,2.111,0,0,1-2.111-2.111h0a2.111,2.111,0,0,1,2.111-2.111h26.907a2.111,2.111,0,0,1,2.111,2.111h0A2.111,2.111,0,0,1-460.083,3925.136Z" fill="#ebebeb"/>
        <path id="Path_104066" data-name="Path 104066" d="M-460.083,3906.4h-11.668a2.111,2.111,0,0,1-2.111-2.111h0a2.111,2.111,0,0,1,2.111-2.111h11.668a2.111,2.111,0,0,1,2.111,2.111h0A2.111,2.111,0,0,1-460.083,3906.4Z" fill="#ebebeb"/>
      </g>
    </g>
    <g id="Group_59746" data-name="Group 59746">
      <g id="Group_59745" data-name="Group 59745">
        <path id="Path_104067" data-name="Path 104067" d="M-211.934,4104.109h-19.251A2.111,2.111,0,0,1-233.3,4102h0a2.111,2.111,0,0,1,2.111-2.111h19.251a2.111,2.111,0,0,1,2.111,2.111h0A2.111,2.111,0,0,1-211.934,4104.109Z" fill="#ebebeb"/>
        <path id="Path_104068" data-name="Path 104068" d="M-192.541,4113.479h-38.644a2.111,2.111,0,0,1-2.111-2.111h0a2.111,2.111,0,0,1,2.111-2.111h38.644a2.111,2.111,0,0,1,2.11,2.111h0A2.11,2.11,0,0,1-192.541,4113.479Z" fill="#ebebeb"/>
        <path id="Path_104069" data-name="Path 104069" d="M-226.62,4122.849h-4.565a2.111,2.111,0,0,1-2.111-2.111h0a2.111,2.111,0,0,1,2.111-2.111h4.565a2.11,2.11,0,0,1,2.11,2.111h0A2.111,2.111,0,0,1-226.62,4122.849Z" fill="#ebebeb"/>
        <path id="Path_104070" data-name="Path 104070" d="M-192.541,4122.849h-26.907a2.111,2.111,0,0,1-2.111-2.111h0a2.111,2.111,0,0,1,2.111-2.111h26.907a2.11,2.11,0,0,1,2.11,2.111h0A2.111,2.111,0,0,1-192.541,4122.849Z" fill="#ebebeb"/>
        <path id="Path_104071" data-name="Path 104071" d="M-192.541,4104.109H-204.21a2.111,2.111,0,0,1-2.111-2.111h0a2.111,2.111,0,0,1,2.111-2.111h11.669a2.11,2.11,0,0,1,2.11,2.111h0A2.11,2.11,0,0,1-192.541,4104.109Z" fill="#ebebeb"/>
      </g>
    </g>
    <g id="Group_59747" data-name="Group 59747">
      <rect id="Rectangle_7543" data-name="Rectangle 7543" width="10.984" height="10.984" rx="0.664" transform="translate(-558.039 3804.864)" fill="#ffefbf"/>
      <rect id="Rectangle_7544" data-name="Rectangle 7544" width="10.984" height="10.984" rx="0.664" transform="translate(-543.346 3804.864)" fill="#ffefbf"/>
      <rect id="Rectangle_7545" data-name="Rectangle 7545" width="10.984" height="10.984" rx="0.664" transform="translate(-528.653 3804.864)" fill="#ffefbf"/>
    </g>
    <g id="Group_59748" data-name="Group 59748">
      <rect id="Rectangle_7546" data-name="Rectangle 7546" width="10.984" height="10.984" rx="0.664" transform="translate(-189.143 4021.855) rotate(90)" fill="#ffefbf"/>
      <rect id="Rectangle_7547" data-name="Rectangle 7547" width="10.984" height="10.984" rx="0.664" transform="translate(-189.143 4036.548) rotate(90)" fill="#ffefbf"/>
      <rect id="Rectangle_7548" data-name="Rectangle 7548" width="10.984" height="10.984" rx="0.664" transform="translate(-189.143 4051.241) rotate(90)" fill="#ffefbf"/>
    </g>
  </g>
</svg>
